<svg width="110" height="55" viewBox="0 0 110 55" fill="none" xmlns="http://www.w3.org/2000/svg">
<path d="M9.19875 1.43799H99.2737C104.317 1.43799 108.409 5.52394 108.409 10.5545V46.7662C108.409 50.5159 105.359 53.5599 101.601 53.5599H9.19875C5.44128 53.5599 2.39098 50.5159 2.39098 46.7662V8.23169C2.39098 4.48199 5.44128 1.43799 9.19875 1.43799Z" fill="#202020"/>
<path d="M101.601 55H9.19873C4.64987 55 0.950043 51.3078 0.950043 46.7684V8.23164C0.950043 3.69218 4.64987 0 9.19873 0H99.2737C105.106 0 109.85 4.73413 109.85 10.5545V46.7662C109.85 51.3056 106.15 54.9978 101.601 54.9978V55ZM9.19873 2.87587C6.23931 2.87587 3.83187 5.27834 3.83187 8.23164V46.7662C3.83187 49.7195 6.23931 52.1219 9.19873 52.1219H101.599C104.559 52.1219 106.966 49.7195 106.966 46.7662V10.5545C106.966 6.32029 103.514 2.87587 99.2715 2.87587H9.19873Z" fill="#5AC4F4"/>
<g opacity="0.5">
<path d="M98.8991 48.3634H11.901C9.52901 48.3634 7.6004 46.4388 7.6004 44.0717V10.9283C7.6004 8.56128 9.52901 6.63666 11.901 6.63666H98.8991C101.271 6.63666 103.2 8.56128 103.2 10.9283V44.0717C103.2 46.4388 101.271 48.3634 98.8991 48.3634ZM11.901 7.30032C9.897 7.30032 8.26544 8.92851 8.26544 10.9283V44.0717C8.26544 46.0715 9.897 47.6997 11.901 47.6997H98.8991C100.903 47.6997 102.535 46.0715 102.535 44.0717V10.9283C102.535 8.92851 100.903 7.30032 98.8991 7.30032H11.901Z" fill="#5AC4F4"/>
</g>
<path d="M35.6207 44.9035C35.2771 44.9035 34.9313 44.8747 34.5899 44.8172C34.131 44.8061 33.8406 44.6468 33.7231 44.3416C33.6057 44.0319 33.7209 43.7177 34.0645 43.408C34.1576 43.3085 34.3527 42.9788 34.3527 41.9745C34.3527 37.1297 34.3527 32.9088 34.3217 29.4711C29.4403 30.0905 25.5343 30.8869 22.699 31.8359C22.566 31.9023 22.4241 31.9377 22.2734 31.9377C21.6727 31.9377 21.0919 31.4001 20.3913 30.1923C20.1386 29.7609 19.8349 29.126 20.1342 28.6039C20.2628 28.3782 20.5465 28.1106 21.1628 28.1106C21.4133 28.1106 21.7103 28.1526 22.065 28.2389C25.7272 27.4181 29.8282 26.666 34.2618 26.0045C34.2219 24.7524 34.2086 23.5534 34.2175 22.423C33.732 22.7946 33.1822 23.1685 32.5593 23.5512C31.2115 24.3166 30.1098 25.0422 29.2674 25.7236C28.9659 26.2833 28.5913 26.4049 28.323 26.4049C27.7245 26.4049 27.3632 25.8143 27.2435 25.6196C26.8866 25.0378 26.4742 24.3719 26.1129 23.8521C25.8801 23.5246 25.5853 23.0291 25.7915 22.5712C25.9067 22.3124 26.155 22.1464 26.4698 22.111L26.523 22.1044L26.5762 22.1088C26.5917 22.1088 26.6072 22.1088 26.6228 22.1088C27.1127 22.1088 28.323 21.7151 29.2009 21.4164C30.4645 20.8833 32.1514 20.3479 34.2197 19.8258C34.1754 18.7131 34.1466 17.9078 34.1333 17.3703C33.7874 17.3636 33.5081 17.2951 33.282 17.1623C33.0803 17.0893 32.8431 17.0517 32.5748 17.0517C32.0206 17.0517 31.3423 17.211 30.5598 17.5229C30.3381 17.6203 30.1253 17.6711 29.9258 17.6711C29.6221 17.6711 28.9127 17.5428 28.8462 16.3681C28.7797 15.7443 28.6134 15.1072 28.3519 14.4723C28.1745 14.0144 28.1878 13.6383 28.3918 13.3418C28.6001 13.0388 28.9615 12.8861 29.4669 12.8861C29.6531 12.8861 29.8615 12.906 30.0987 12.9459C32.8409 12.9436 35.3015 12.6782 37.4141 12.1605C39.7462 11.5898 41.3999 11.3044 42.6147 11.2668C42.9805 11.2668 43.7963 11.4261 43.8738 12.8972V12.9259C43.8738 13.9413 43.5701 14.532 42.9694 14.6802C41.278 15.2112 39.693 15.7598 38.1368 16.3571C38.1368 18.7197 38.1102 20.8081 38.0836 22.6176C39.5755 21.1332 41.2447 19.3524 43.3485 17.003C43.6522 16.6004 44.0002 16.5142 44.2374 16.5142C44.6187 16.5142 44.9822 16.7199 45.3458 17.1446C45.5187 17.3305 45.6916 17.5251 45.8557 17.7087C46.0973 17.9808 46.3079 18.2153 46.503 18.4122L46.5362 18.4454L46.565 18.4852C46.8421 18.8812 46.8177 19.2175 46.7468 19.4321C46.6382 19.7617 46.3567 20.0117 45.9111 20.1754C44.816 20.9651 43.8273 21.7726 42.8918 22.642C41.7391 23.7127 40.6307 24.5378 39.6021 25.0909C39.4735 25.1639 39.3472 25.2347 39.223 25.3011C41.1671 25.0997 43.2288 24.9515 45.4722 24.852C48.7153 24.7546 49.5311 24.5467 49.7306 24.4294L49.7794 24.4007L49.8348 24.383C49.9235 24.3542 50.0144 24.3387 50.1075 24.3387C50.7304 24.3387 51.0895 25.0046 51.2247 25.2568L51.2513 25.3033L51.2668 25.3541C51.3888 25.7457 51.5439 25.9979 51.7324 26.1019L51.7656 26.1196L51.7967 26.1417C52.2733 26.5001 52.4839 27.2257 52.4395 28.3628C52.3353 29.6746 51.7856 29.9467 51.3444 29.9467C51.1516 29.9467 50.9565 29.8914 50.7526 29.7741C48.2919 29.1791 45.5453 28.8782 42.5881 28.8782C41.0851 28.8782 39.5023 28.9556 37.8774 29.1105C37.7333 31.8713 37.5892 36.0015 37.4052 41.6781C37.4052 42.8019 37.5804 43.1868 37.6557 43.2996L37.689 43.3483L37.7112 43.4014C37.8819 43.8261 37.7821 44.1314 37.669 44.3128C37.4873 44.6004 37.1592 44.7663 36.6914 44.8061C36.3279 44.8658 35.9665 44.8946 35.6163 44.8946L35.6207 44.9035Z" fill="black"/>
<path d="M42.6346 11.8221C43.0558 11.8221 43.2842 12.2048 43.3241 12.9282C43.3241 13.6538 43.1711 14.0741 42.8275 14.1494C40.8767 14.7599 39.1565 15.3705 37.587 15.9811V16.1337C37.587 19.1866 37.5493 21.7815 37.5094 23.9583C39.4602 22.089 41.5262 19.8746 43.7829 17.3548C43.9204 17.1668 44.0733 17.0695 44.2418 17.0695C44.448 17.0695 44.6763 17.2133 44.929 17.5075C45.3879 18.003 45.7714 18.461 46.115 18.8061C46.3832 19.1866 46.2303 19.4941 45.6561 19.6843C44.7007 20.3723 43.63 21.2107 42.5194 22.2416C41.4088 23.2725 40.3403 24.0733 39.3449 24.6087C38.5424 25.0666 37.8907 25.3719 37.4717 25.5245C37.4717 25.7148 37.4717 25.8674 37.5094 26.0599C40.2627 25.717 42.9406 25.5245 45.5032 25.4117C48.0658 25.3365 49.5577 25.1817 50.0166 24.9162C50.0498 24.9051 50.0808 24.9007 50.1141 24.9007C50.3114 24.9007 50.5131 25.102 50.7437 25.5268C50.8966 26.0223 51.1272 26.405 51.4708 26.5953C51.7767 26.8253 51.9297 27.3961 51.892 28.3518C51.8366 29.053 51.6548 29.4048 51.3511 29.4048C51.2424 29.4048 51.1161 29.3583 50.9742 29.2676C48.4515 28.6504 45.6539 28.3363 42.597 28.3363C40.9277 28.3363 39.1809 28.4292 37.3587 28.6194C37.2057 31.367 37.0528 35.7184 36.8621 41.6737C36.8621 42.6272 36.9774 43.2775 37.2057 43.6204C37.3587 44.0031 37.168 44.231 36.6316 44.2686C36.288 44.3261 35.9532 44.3549 35.6229 44.3549C35.2926 44.3549 34.969 44.3261 34.6431 44.2686C34.1842 44.2686 34.1066 44.116 34.4525 43.8107C34.7584 43.5054 34.9113 42.8948 34.9113 41.979C34.9113 36.7891 34.9113 32.3979 34.8736 28.8495C29.5578 29.4977 25.4257 30.3383 22.4818 31.3294C22.4175 31.367 22.351 31.3869 22.2778 31.3869C21.9165 31.3869 21.4487 30.9046 20.8746 29.918C20.3891 29.0906 20.48 28.6681 21.165 28.6681C21.3955 28.6681 21.6926 28.7168 22.0584 28.8119C25.6163 28.0111 29.8992 27.208 34.8337 26.4846C34.7584 24.3853 34.7584 22.6288 34.7961 21.2174C34.1066 21.8656 33.2665 22.4761 32.2711 23.0867C30.8568 23.8875 29.7085 24.6507 28.8284 25.3763C28.6777 25.6971 28.5092 25.8586 28.3252 25.8586C28.1412 25.8586 27.9329 25.686 27.7201 25.3387C27.2989 24.6507 26.9176 24.0402 26.5718 23.5446C26.1882 23.0093 26.1882 22.704 26.5341 22.6664C26.5629 22.6686 26.5939 22.6708 26.6272 22.6708C27.1149 22.6708 28.0415 22.4075 29.4026 21.943C30.664 21.4076 32.4618 20.8369 34.7961 20.2639C34.7185 18.3946 34.6808 17.2487 34.6808 16.7907C34.5012 16.8151 34.3416 16.8283 34.1953 16.8283C33.9071 16.8283 33.6854 16.7775 33.5325 16.6757C33.2554 16.5651 32.9362 16.5098 32.5793 16.5098C31.9541 16.5098 31.2115 16.6801 30.358 17.0208C30.194 17.0938 30.0499 17.1292 29.9302 17.1292C29.6021 17.1292 29.4314 16.8637 29.4026 16.335C29.3272 15.6094 29.1344 14.9236 28.8661 14.2732C28.6555 13.7312 28.8484 13.4503 29.4669 13.4503C29.6309 13.4503 29.826 13.4702 30.0521 13.51C32.883 13.51 35.368 13.2423 37.5493 12.7092C39.7284 12.1739 41.4132 11.8686 42.6369 11.831M42.6346 10.716H42.5992C41.3445 10.7558 39.6553 11.0434 37.2833 11.6252C35.2239 12.1296 32.8231 12.3884 30.143 12.3951C29.8925 12.3553 29.6708 12.3353 29.4669 12.3353C28.5957 12.3353 28.1523 12.7136 27.9351 13.0322C27.7201 13.3463 27.5272 13.8839 27.8331 14.667L27.8375 14.6781L27.842 14.6891C28.0814 15.2709 28.2343 15.8528 28.2964 16.4191C28.4028 18.1402 29.673 18.2287 29.9302 18.2287C30.2029 18.2287 30.4822 18.1645 30.7837 18.0362C31.493 17.753 32.0982 17.6115 32.5793 17.6115C32.7633 17.6115 32.9251 17.6336 33.0581 17.6756C33.2199 17.7619 33.3995 17.8283 33.5968 17.8703C33.6101 18.2796 33.6278 18.7906 33.6522 19.4078C31.7635 19.8989 30.2051 20.4011 29.008 20.9054C27.4163 21.4474 26.8355 21.5625 26.6272 21.5625L26.5208 21.5536L26.4144 21.5647C25.8978 21.6222 25.4877 21.9076 25.2904 22.35C24.9358 23.1442 25.4789 23.9163 25.6673 24.1795C26.0176 24.6861 26.4254 25.3409 26.7757 25.9139C26.9508 26.2015 27.1437 26.4293 27.3521 26.5997C25.5077 26.9426 23.7453 27.301 22.0717 27.6748C21.7281 27.5974 21.431 27.5598 21.1672 27.5598C20.2406 27.5598 19.8238 28.042 19.6576 28.3296C19.1632 29.1902 19.7329 30.1569 19.9192 30.4755C20.4977 31.471 21.2337 32.4908 22.2778 32.4908C22.4973 32.4908 22.7123 32.4421 22.9118 32.3492C25.5875 31.4555 29.2386 30.7011 33.7763 30.0994C33.8029 33.4177 33.8029 37.4218 33.8029 41.9746C33.8029 42.7156 33.6854 42.9789 33.6588 43.032C33.0071 43.647 33.0958 44.2376 33.2088 44.5385C33.3219 44.8372 33.6455 45.3327 34.5367 45.3681C34.8958 45.4256 35.2616 45.4566 35.6229 45.4566C35.9843 45.4566 36.3788 45.4256 36.7668 45.3637C37.5626 45.2907 37.9572 44.919 38.1456 44.6159C38.2942 44.3792 38.5048 43.8793 38.2343 43.2067L38.1922 43.1006L38.1279 43.0054C38.1279 43.0054 37.9705 42.7267 37.9705 41.6892C38.1368 36.4905 38.2786 32.3957 38.4161 29.6304C39.857 29.5065 41.2602 29.4446 42.597 29.4446C45.481 29.4446 48.1589 29.7344 50.5597 30.3073C50.8213 30.4423 51.0873 30.5109 51.3489 30.5109C51.7944 30.5109 52.8452 30.3096 52.9937 28.4402V28.4181L52.9959 28.396C53.0292 27.5465 52.9782 26.3431 52.1336 25.7104L52.0737 25.6661L52.0072 25.6285C52.0072 25.6285 51.9075 25.5422 51.8011 25.2016L51.77 25.0976L51.7191 25.0025C51.5572 24.7038 51.0673 23.7946 50.1141 23.7946C49.9634 23.7946 49.8126 23.8189 49.6663 23.8676L49.5577 23.903L49.4734 23.9517C49.3227 24.0158 48.6089 24.2127 45.4699 24.3056H45.4611H45.4522C44.0667 24.3676 42.7499 24.4472 41.4863 24.5467C42.0694 24.1176 42.6657 23.6176 43.2753 23.0513C44.1775 22.2129 45.1308 21.432 46.1837 20.6687C46.8865 20.3856 47.1658 19.9431 47.2766 19.6091C47.3675 19.337 47.4539 18.7862 47.0239 18.1734L46.9685 18.0937L46.8998 18.0252C46.7158 17.8415 46.5118 17.6115 46.2746 17.346C46.1106 17.1624 45.9421 16.9743 45.7581 16.773C45.2926 16.2377 44.7827 15.9656 44.244 15.9656C43.947 15.9656 43.3906 16.0563 42.9273 16.6536C41.278 18.4941 39.8991 19.983 38.6621 21.2528C38.6799 19.8856 38.6932 18.3813 38.6954 16.7421C40.1208 16.2023 41.5772 15.7023 43.1246 15.2156C43.7342 15.0586 44.4325 14.5299 44.4325 12.9282V12.8707C44.4014 12.3132 44.2817 11.873 44.0667 11.5235C43.7497 11.0102 43.2287 10.716 42.6346 10.716ZM29.6974 26.0909C30.5043 25.4471 31.5507 24.7591 32.8165 24.0446L32.8342 24.0357L32.8519 24.0247C33.1357 23.8499 33.4061 23.6774 33.6633 23.5048C33.6655 24.1618 33.6766 24.8388 33.6943 25.5312C32.3088 25.7413 30.9566 25.9604 29.6398 26.186C29.6597 26.155 29.6797 26.1241 29.6996 26.0909H29.6974Z" fill="#E0E0E0"/>
<path d="M60.7924 42.8749C60.2249 42.8749 59.715 42.3749 59.0877 41.2047C58.866 40.8065 58.6 40.2114 58.8904 39.7203C59.0145 39.5101 59.2761 39.2623 59.8281 39.2623C60.083 39.2623 60.3845 39.3132 60.7503 39.4194C62.2843 39.1031 63.7962 38.8509 65.3435 38.6562C65.2615 38.508 65.1684 38.3443 65.0664 38.1695C64.5299 37.2227 64.0688 36.0104 63.6897 34.5592C63.4814 34.2052 63.4127 33.8867 63.4792 33.5902C63.5213 33.4088 63.6365 33.1522 63.9491 32.9553L64.071 32.8779L64.2151 32.8713C65.696 32.7983 67.1746 32.5129 68.6133 32.0218C69.3027 31.7829 70.1783 31.5594 71.3089 31.3293C71.2357 31.2917 71.1603 31.2519 71.0828 31.2143C70.267 30.8626 69.4778 30.3405 68.795 29.7034C67.8108 28.7212 67.3874 28.2389 67.5137 27.8053C67.4184 27.7876 67.3297 27.75 67.2521 27.6925C67.097 27.5929 66.995 27.4381 66.9662 27.2589C66.9396 27.0885 66.9817 26.916 67.0859 26.7656C67.4095 25.9448 67.6201 25.2015 67.6999 24.6064C67.6866 24.4848 67.6822 24.3719 67.6888 24.2658C67.5403 24.2989 67.4007 24.3321 67.2743 24.3609C67.2388 24.3697 67.2034 24.3786 67.1679 24.3852C67.1679 24.3963 67.1679 24.4737 67.1679 24.4737L67.1546 24.5334C66.8886 25.7302 66.7245 26.5974 66.627 27.3474C66.5494 27.8075 66.627 27.9402 66.6292 27.9469L66.6514 27.9845L66.6669 28.0265C66.8398 28.4557 66.6625 28.8738 66.4452 29.2631L66.4231 29.3052L66.3942 29.3428C65.3989 30.575 64.3016 31.5063 63.1356 32.1125C62.8429 32.2872 62.619 32.3647 62.4129 32.3647C62.169 32.3647 61.9584 32.2541 61.8343 32.0572C61.6215 31.7231 61.7589 31.3249 61.9052 31.0152L61.9185 30.9865L61.9363 30.9599C63.0158 29.2145 63.7363 28.0022 63.989 27.3629C64.2151 26.6572 64.3925 25.9006 64.5277 25.0644C64.2905 25.1506 64.0688 25.2436 63.9535 25.3254C63.7141 25.4847 63.4836 25.5599 63.253 25.5599C62.7232 25.5599 62.2954 25.1905 61.9828 24.4649C61.5661 23.6751 61.3732 23.1309 61.6148 22.7017C61.8609 22.2394 62.4129 22.1774 62.6523 22.1509C63.2597 22.0646 63.9425 21.9252 64.6674 21.7792L64.8225 21.7483C64.8647 20.9895 64.8935 20.2749 64.9179 19.6179C64.4124 19.7949 63.8338 19.9763 63.1333 20.1798L63.0956 20.1887C62.8518 20.2417 62.6523 20.2661 62.4838 20.2661C61.9451 20.2661 61.7478 19.9829 61.6791 19.8148C61.473 19.3193 61.9207 18.8547 62.1114 18.6622C62.8141 17.8326 63.6831 16.95 64.6984 16.043C65.8888 14.8152 67.0349 13.2711 68.1078 11.4571C68.2386 11.1628 68.4381 10.8443 68.713 10.4859C68.8615 10.2381 69.1187 10.0988 69.4268 10.0988C69.8325 10.0988 70.3468 10.3443 71.1448 10.9173C71.7256 11.3442 72.2976 11.8575 72.1845 12.4437C72.149 12.6251 72.0182 12.9437 71.535 13.0985C70.9586 13.4303 70.318 13.9945 69.6241 14.7776C70.584 14.5541 71.3709 14.4435 72.0005 14.4435C72.3995 14.4435 72.732 14.4878 73.0136 14.5763L73.089 14.6006L73.1555 14.6448C74.3592 15.4567 74.8735 16.0916 74.8269 16.7088C74.8114 16.9146 74.7117 17.2907 74.224 17.5517C74.04 17.7287 73.9336 18.1379 73.9336 18.691V18.7507L73.9203 18.8104C73.8892 18.9454 73.8604 19.1401 73.8471 19.3967C73.9956 19.3679 74.1308 19.3436 74.2572 19.3259L74.3414 19.3148L74.4257 19.3281C74.6429 19.3635 74.9466 19.4874 75.0796 19.8812C75.3323 19.3104 75.5274 18.8127 75.5895 18.5052L75.5962 18.4742L75.605 18.4454C75.8799 17.5915 75.8688 16.4478 75.5762 15.1315C75.3479 14.7488 75.4299 14.4457 75.503 14.2909C75.7402 13.802 76.3875 13.7002 76.9417 13.6737C77.1878 13.6184 77.7996 13.4414 79.2561 12.8707C80.0541 12.5875 80.7724 12.4481 81.4108 12.4481C81.8364 12.4481 82.2332 12.5101 82.5879 12.6339L82.6323 12.6494L82.6722 12.6716C83.7584 13.2666 84.2217 13.7179 84.2682 14.2312C84.2838 14.4059 84.2594 14.7444 83.9025 15.0342L83.8737 15.0585L83.8426 15.0784C83.4392 15.3262 83.0889 15.793 82.7985 16.4655C82.4704 17.1513 82.5658 17.4942 82.732 17.7265C82.8052 17.7574 82.9293 17.7884 83.1355 17.7884C83.5389 17.7884 84.0953 17.6712 84.7914 17.4411L84.8114 17.4344L84.8313 17.43C84.9444 17.4013 85.0508 17.388 85.1527 17.388C85.5008 17.388 85.718 17.5473 85.8377 17.6822C86.1437 18.0229 86.1281 18.5229 86.0905 18.868C85.9885 19.7772 85.4764 20.3944 84.6828 20.5647C83.8227 20.828 83.1044 20.9828 82.5059 21.0293C82.9803 21.2018 83.3704 21.3346 83.6187 21.4032L83.6498 21.412L83.6786 21.4231C84.4168 21.7173 84.5941 22.2283 84.634 22.507L84.6407 22.5469V22.5867C84.6407 22.9406 84.4367 23.2282 84.0333 23.4406C83.9623 23.518 83.6498 23.9229 82.8517 25.6926C84.1153 26.1837 85.3013 26.6881 86.3897 27.1991L86.4274 27.2168L86.4629 27.239C86.6225 27.3452 86.8907 27.5243 87.088 29.1592C87.1634 30.0927 87.1523 30.9865 86.5959 31.3537C86.3698 31.5373 86.1348 31.6302 85.8976 31.6302C85.7047 31.6302 85.4254 31.5683 85.1749 31.2807C85.0064 31.1125 84.7892 30.9201 84.5187 30.679L84.3348 30.513C83.0579 29.7609 81.9007 29.053 80.8766 28.4269L80.7347 28.3406C80.0164 28.9026 79.1763 29.314 78.2275 29.5684C77.0193 29.8494 76.0927 29.9843 75.3745 29.9843C74.9998 29.9843 74.685 29.9489 74.4168 29.8737C74.2683 29.8339 74.0998 29.7919 73.9402 29.7321C73.9868 30.1989 74.0222 30.5772 74.0422 30.8803C74.4368 30.8272 74.8424 30.7785 75.1883 30.7387C76.3809 30.5794 77.5403 30.4998 78.6287 30.4998C80.2248 30.4998 81.7455 30.6745 83.1488 31.0196L83.1687 31.0241L83.1887 31.0307C84.9289 31.5992 85.7557 32.1766 85.8688 32.9C85.9175 33.2075 85.8488 33.6654 85.2658 34.1057C84.5986 34.849 83.9801 35.756 83.4702 36.7338L83.4569 36.7603L83.4392 36.7847C83.3771 36.8776 83.3217 36.9727 83.2773 37.07H84.0865C86.5249 37.07 87.9636 36.9926 88.3627 36.84L88.387 36.8311C88.4757 36.8024 88.5666 36.7869 88.6597 36.7869C88.9745 36.7869 89.4179 36.9572 89.7304 37.7691C89.8479 38.0943 90.0186 38.3598 90.2137 38.5323C90.8255 39.0101 90.8189 39.968 90.759 40.6494V40.6737L90.7524 40.6981C90.5839 41.6604 90.1982 42.1493 89.6063 42.1493C89.4267 42.1493 89.245 42.0962 89.0632 41.9922C86.0018 41.1317 82.4305 40.6958 78.4469 40.6958C77.4738 40.6958 76.4607 40.7224 75.4321 40.7733C69.3404 41.1494 64.5321 41.8307 61.1471 42.7997C61.034 42.8505 60.9121 42.8771 60.7858 42.8771L60.7924 42.8749ZM67.8507 35.5038C67.8108 36.663 67.977 37.5988 68.3362 38.2425C68.9635 38.1496 69.6285 38.0722 70.318 38.008C70.3047 37.9372 70.2914 37.8642 70.2825 37.7868C69.9788 37.1784 69.8125 36.4329 69.7704 35.5082C69.7527 35.2184 69.7349 34.9552 69.7194 34.7273C68.3694 35.1299 67.9637 35.402 67.8507 35.5016V35.5038ZM73.1266 33.911C72.9183 35.475 72.8673 36.7979 72.9737 37.7425C73.3528 37.7005 73.7717 37.6563 74.2528 37.6076C74.3636 37.1718 74.4789 36.5966 74.5964 35.8909C74.7671 34.9507 74.8846 34.1986 74.9511 33.6101C74.2949 33.7097 73.6831 33.8114 73.1244 33.911H73.1266ZM78.5223 33.6079C78.4093 33.9486 78.3051 34.2716 78.2053 34.5791C78.11 34.8755 78.0169 35.1587 77.926 35.433L77.9193 35.4551L77.9105 35.4772C77.5802 36.236 77.3829 36.8422 77.3208 37.2824C77.9194 37.236 78.5356 37.1917 79.1519 37.1607C79.8657 35.6609 80.165 34.3844 80.0475 33.3602C79.6706 33.2695 79.2162 33.223 78.6886 33.223H78.6509C78.6332 33.3491 78.591 33.4774 78.5245 33.6057L78.5223 33.6079ZM73.8604 23.0424C73.7917 24.9427 73.7895 26.6859 73.856 28.3583C74.2084 28.23 74.6939 28.146 75.3368 28.1039C76.0196 27.9646 76.7511 27.688 77.5757 27.2611C77.7198 27.1638 77.9016 27.0377 78.0967 26.8828C76.9683 26.2457 75.9641 25.6816 75.1018 25.2059L75.0819 25.1949L75.0641 25.1816C74.5986 24.8719 74.5831 24.5202 74.6163 24.3388C74.6939 23.9184 75.0885 23.7525 75.3368 23.6817C75.1417 23.2835 75.1018 22.9406 75.2126 22.6376C75.2237 22.6088 75.2348 22.5778 75.2503 22.5469C75.1085 22.6022 74.9821 22.6287 74.8624 22.6287C74.6163 22.6287 74.3991 22.5093 74.2816 22.3102C74.2151 22.1951 74.1841 22.0712 74.1907 21.9319C74.102 21.9872 74.0089 22.0358 73.9092 22.0801C73.8914 22.0912 73.8759 22.1 73.8582 22.1089V23.0402L73.8604 23.0424ZM68.5357 27.3098C68.631 27.3407 68.7307 27.3872 68.8394 27.4491L68.8682 27.4646L68.8948 27.4845C69.7283 28.0995 70.2559 28.2278 70.5507 28.2278C70.5818 28.2278 70.6106 28.2278 70.6394 28.2234C70.6771 28.1592 70.7746 27.9447 70.8012 27.3651C70.7325 26.52 70.7214 25.3807 70.7635 23.6773C70.7635 23.5645 70.7635 23.4517 70.7635 23.3411C70.3357 23.4826 69.9079 23.6176 69.48 23.7503C69.6684 23.8786 69.8702 24.0401 70.0852 24.237L70.1052 24.2547L70.1229 24.2746C70.5419 24.7347 70.7658 25.071 70.6704 25.4316C70.6239 25.613 70.4975 25.759 70.3268 25.8342C70.2648 25.8674 70.2382 25.8917 70.2182 25.9139L70.1916 25.9404C69.6175 26.4404 69.0721 26.8916 68.5357 27.3098ZM77.7509 24.1109C78.4292 24.2812 79.1098 24.4671 79.7859 24.6684C80.1384 23.8985 80.2137 23.4295 80.1827 23.1442C80.1605 23.142 80.1339 23.1397 80.1073 23.1397C79.8125 23.1397 79.1364 23.2769 77.7487 24.1109H77.7509ZM79.7815 15.8217C79.5243 15.8217 79.0677 15.9235 78.3605 16.4013L78.3295 16.4213L78.2962 16.439C78.2364 16.4699 78.1566 16.669 78.1809 17.096V17.1292C78.1809 17.7419 78.2541 18.3392 78.3937 18.9034C78.5068 19.2971 78.4159 19.8037 78.1233 20.3922L78.1011 20.4386L78.0701 20.4807C77.793 20.8435 77.5026 21.1642 77.1967 21.4408C78.4669 20.9386 79.6108 20.6687 80.6593 20.6222C80.5285 20.5161 80.4199 20.39 80.329 20.244C79.715 19.2374 79.6063 18.1092 80.012 16.9809C80.2847 16.1315 80.1472 15.9124 80.145 15.9102L80.1295 15.9036H80.1206C80.0231 15.8483 79.9122 15.824 79.7815 15.824V15.8217ZM70.666 19.5139C70.3357 19.8391 69.9655 20.1798 69.5598 20.536C69.5731 20.5315 69.6263 20.5183 69.6263 20.5183C69.9389 20.4453 70.298 20.3524 70.6948 20.2351C70.6815 20.0072 70.6727 19.7661 70.6682 19.5117L70.666 19.5139ZM67.9105 18.0959C67.8684 18.3437 67.8063 18.8923 67.7354 20.1068C68.0812 19.3303 68.283 18.691 68.3495 18.1645C68.3339 18.0472 68.3251 17.9123 68.3362 17.7773C68.0546 17.9101 67.9504 18.0273 67.9127 18.0937L67.9105 18.0959ZM70.1052 17.3614C70.3002 17.4964 70.4909 17.6579 70.6771 17.8415L70.6926 17.857C70.6993 17.6689 70.6704 17.5428 70.6128 17.4809C70.5419 17.4035 70.3645 17.3614 70.1273 17.3614H70.1052Z" fill="black"/>
<path d="M69.4268 10.6496C69.6972 10.6496 70.1583 10.8885 70.8211 11.3642C71.7012 12.0123 71.8919 12.4327 71.3177 12.5853C70.6283 12.968 69.9034 13.6162 69.1386 14.4944C68.5644 15.0298 68.1433 15.4877 67.8772 15.8306C69.6994 15.2709 71.0716 14.9988 72.0049 14.9988C72.3441 14.9988 72.6256 15.0342 72.8495 15.105C74.2638 16.0585 74.6473 16.7465 73.9202 17.0894C73.5766 17.357 73.3838 17.8902 73.3838 18.6932C73.3062 19.0361 73.2685 19.494 73.3062 20.067C73.7274 19.9918 74.071 19.9144 74.3392 19.8768C74.5697 19.9144 74.6451 20.1444 74.5697 20.64C74.4168 21.0603 74.1109 21.4032 73.652 21.5934C73.5367 21.6686 73.4214 21.7085 73.3084 21.7461V23.0446C73.233 25.144 73.233 27.2058 73.3461 29.3052C73.4613 30.4511 73.5367 31.1745 73.499 31.5196C73.9956 31.4444 74.6074 31.367 75.2592 31.2896C76.4341 31.1325 77.558 31.0528 78.6353 31.0528C80.1893 31.0528 81.6457 31.2188 83.0224 31.555C85.2414 32.2806 85.8532 33.0062 84.8956 33.692C84.1685 34.4928 83.5189 35.4485 82.9825 36.4772C82.7519 36.8201 82.599 37.2028 82.5613 37.6231H84.0909C86.5759 37.6231 88.0678 37.5479 88.5666 37.3554C88.5998 37.3444 88.6309 37.34 88.6641 37.34C88.8614 37.34 89.0521 37.5413 89.2161 37.966C89.3691 38.3863 89.5996 38.7292 89.8656 38.9593C90.1715 39.1894 90.2868 39.7225 90.2092 40.6008C90.0939 41.2578 89.8944 41.594 89.6085 41.594C89.5131 41.594 89.4067 41.5564 89.2915 41.479C86.1503 40.5875 82.5347 40.1406 78.4491 40.1406C77.4627 40.1406 76.4496 40.1672 75.4077 40.218C69.2117 40.5985 64.3924 41.2865 60.9498 42.2798C60.8988 42.3086 60.8456 42.3219 60.7901 42.3219C60.4687 42.3219 60.063 41.8551 59.5731 40.9436C59.1586 40.2003 59.2428 39.8154 59.8236 39.8154C60.0475 39.8154 60.3468 39.8729 60.7214 39.9902C62.3663 39.6473 64.1641 39.342 66.1903 39.1119C66.0373 38.769 65.8068 38.3487 65.5407 37.8908C65.0442 37.0125 64.5853 35.829 64.2018 34.3402C63.9336 33.9199 63.9336 33.6146 64.2395 33.4243C65.8068 33.3491 67.3386 33.0416 68.7906 32.5461C69.7859 32.2032 71.1625 31.8979 72.9204 31.5926C72.4616 31.325 71.9251 31.0197 71.3133 30.7144C70.5108 30.3715 69.7837 29.876 69.1718 29.303C68.3694 28.5022 67.9859 28.0442 68.0634 27.9292C68.1011 27.854 68.1588 27.8142 68.2408 27.8142C68.3228 27.8142 68.427 27.8518 68.5622 27.9292C69.3448 28.5066 70.0054 28.7809 70.5463 28.7809C70.6128 28.7809 70.6793 28.7765 70.7413 28.7676C71.1248 28.73 71.3155 28.2323 71.3532 27.3562C71.2756 26.4404 71.2756 25.2192 71.3155 23.6928C71.3155 23.3101 71.3155 22.9296 71.2778 22.5867C69.9389 23.0446 68.6775 23.4274 67.5669 23.7326C67.2233 23.8101 66.9174 23.8853 66.7245 23.9229C66.6469 24.1131 66.6092 24.2658 66.6092 24.4184C66.3787 25.4493 66.188 26.4028 66.0728 27.281C65.9974 27.739 66.0351 28.0442 66.1504 28.2345C66.2279 28.4247 66.1504 28.6548 65.9597 28.9977C65.0043 30.1812 63.9712 31.0595 62.8606 31.6302C62.6567 31.7519 62.5059 31.8116 62.4084 31.8116C62.2311 31.8116 62.2288 31.617 62.4018 31.2475C63.5102 29.4534 64.2373 28.2323 64.5055 27.5443C64.8114 26.5908 65.042 25.5223 65.1949 24.2614C64.4301 24.4914 63.8937 24.6817 63.6276 24.8719C63.4946 24.9604 63.3683 25.0047 63.2486 25.0047C62.9537 25.0047 62.6966 24.7392 62.4793 24.2238C62.1357 23.5756 61.9828 23.1553 62.0958 22.965C62.1712 22.8124 62.3641 22.7349 62.7077 22.6973C63.5102 22.5823 64.3902 22.392 65.3457 22.2018C65.421 20.943 65.4609 19.7971 65.4986 18.8038C64.7338 19.1091 63.8914 19.3768 62.9737 19.6445C62.7697 19.6887 62.6035 19.7108 62.4793 19.7108C62.0626 19.7108 62.0759 19.4741 62.5148 19.0339C63.1266 18.3083 63.969 17.4301 65.0774 16.439C66.2634 15.2178 67.4494 13.6538 68.5955 11.7071C68.7108 11.4394 68.9014 11.1341 69.1696 10.7912C69.2162 10.6983 69.3004 10.6496 69.4201 10.6496M67.0725 21.7837C67.875 21.5536 68.7928 21.3258 69.7504 21.0581C70.247 20.943 70.7835 20.7904 71.28 20.6378C71.2024 19.8369 71.2024 18.9211 71.2423 17.9654C71.3044 17.1801 70.9275 16.8084 70.1295 16.8084C69.9588 16.8084 69.7682 16.8261 69.5598 16.8593C68.2984 17.0894 67.5713 17.4323 67.3807 17.9278C67.3031 18.3105 67.2277 19.2264 67.1501 20.6754C67.1124 21.0183 67.0725 21.401 67.0725 21.7815M76.6735 37.8908C77.5912 37.8134 78.5467 37.7382 79.5043 37.7005C80.4598 35.7914 80.8056 34.1898 80.5373 32.9288C80.0497 32.7563 79.4334 32.6722 78.6863 32.6722C78.438 32.6722 78.1742 32.681 77.8971 32.7009C78.1277 32.8912 78.1654 33.1213 78.0124 33.3889C77.7819 34.0769 77.5912 34.6875 77.4006 35.2583C77.0171 36.1365 76.7887 36.8621 76.7511 37.3953C76.7134 37.5479 76.6757 37.7005 76.6757 37.8908M75.5629 32.9664C75.4099 32.9664 75.2946 32.9664 75.2569 33.004C74.2239 33.1567 73.3062 33.3093 72.5037 33.4619C72.5813 33.5372 72.619 33.6522 72.5813 33.8048C72.3507 35.5215 72.313 36.8953 72.4283 37.851C72.4283 38.0036 72.466 38.1563 72.5436 38.3465C73.1931 38.2691 73.9202 38.1939 74.685 38.1164C74.838 37.6209 74.9909 36.8953 75.1439 35.9794C75.3744 34.7207 75.5274 33.6898 75.5651 32.9642M68.0679 38.8443C69.0233 38.6916 70.0563 38.5766 71.0894 38.5014C70.9364 38.2713 70.8588 37.966 70.8211 37.6231C70.5152 37.0502 70.3623 36.3245 70.3246 35.4861C70.2869 34.8379 70.2492 34.3402 70.2093 33.9973C69.9788 34.0725 69.7881 34.1499 69.5975 34.1876C68.1832 34.6079 67.4184 34.9884 67.3031 35.3335C67.2277 36.8975 67.4937 38.081 68.0679 38.8443ZM81.4152 13.0012C81.781 13.0012 82.1113 13.0521 82.4105 13.1561C83.5965 13.8042 83.9778 14.2622 83.5588 14.6073C83.0623 14.9126 82.6411 15.4479 82.2975 16.2487C81.914 17.0496 81.9539 17.6601 82.3729 18.1579C82.5613 18.2818 82.8184 18.3437 83.1421 18.3437C83.612 18.3437 84.2261 18.2154 84.9732 17.9676C85.0419 17.9499 85.1039 17.9411 85.1594 17.9411C85.483 17.9411 85.6116 18.222 85.5451 18.806C85.4675 19.494 85.1239 19.9122 84.5497 20.0272C83.5433 20.3369 82.7386 20.4918 82.1246 20.4918C81.4573 20.4918 81.0206 20.3104 80.8011 19.952C80.2647 19.0737 80.1893 18.1203 80.5329 17.1668C80.8388 16.2133 80.8011 15.6028 80.38 15.4103C80.2004 15.3152 80.0009 15.2687 79.7792 15.2687C79.2915 15.2687 78.7041 15.4988 78.0457 15.9457C77.7398 16.0983 77.5868 16.481 77.6245 17.1292C77.6245 17.7774 77.7021 18.4278 77.855 19.0383C77.9326 19.306 77.855 19.6865 77.6245 20.1444C76.8974 21.0979 76.0572 21.7483 75.0996 22.0138C74.9998 22.058 74.9178 22.0801 74.8579 22.0801C74.7138 22.0801 74.6961 21.9518 74.8313 21.7085C75.5584 20.2196 76.0173 19.1888 76.1326 18.6158C76.4385 17.6623 76.4385 16.4014 76.0949 14.9126C75.789 14.4922 76.0949 14.2644 77.0126 14.2246C77.3962 14.1493 78.1986 13.8817 79.46 13.3839C80.1849 13.1273 80.8388 12.999 81.4108 12.999M69.1364 17.5185C69.1807 17.5185 69.2339 17.5274 69.2916 17.5473C69.5975 17.6623 69.9411 17.8902 70.2869 18.2353C70.5551 18.6158 70.6704 18.8459 70.6305 18.8835C70.4775 18.9211 70.3999 18.9587 70.3623 19.0361C69.7881 19.6091 69.061 20.2573 68.2208 20.9453C68.1676 20.9718 68.1122 20.9983 68.0723 20.9983C68.0546 20.9983 68.0413 20.9939 68.0302 20.9829C67.9526 20.9453 67.9526 20.8678 68.0302 20.7926C68.5268 19.7617 68.8327 18.8835 68.9103 18.1579C68.846 17.7464 68.9147 17.5185 69.1364 17.5185ZM80.9785 21.1643C81.0871 21.1643 81.1957 21.1665 81.3021 21.1731C82.3352 21.5558 83.0623 21.8213 83.4812 21.9363C83.8648 22.089 84.0554 22.319 84.0931 22.5845C84.0931 22.7371 83.9778 22.8522 83.7495 22.9672C83.5212 23.0823 83.0224 23.9605 82.2576 25.6772C82.1822 25.7524 82.1046 25.8674 82.0669 25.9825C83.4813 26.5178 84.8579 27.0886 86.1591 27.6991C86.2744 27.7766 86.4274 28.2721 86.5426 29.2256C86.618 30.179 86.5426 30.752 86.2744 30.9046C86.1414 31.0197 86.0173 31.0772 85.902 31.0772C85.7867 31.0772 85.6825 31.0197 85.5872 30.9046C85.3567 30.6746 85.0507 30.4091 84.6695 30.064C83.1775 29.1857 81.8785 28.3849 80.6925 27.6593C79.9654 28.3075 79.0853 28.7654 78.0922 29.0331C76.9727 29.2941 76.0661 29.4291 75.3833 29.4291C75.0641 29.4291 74.7936 29.4003 74.5742 29.3384C73.8471 29.1481 73.6564 28.9955 74.0377 28.8805C74.3436 28.7654 74.8025 28.6902 75.4143 28.6504C76.1791 28.4977 76.9816 28.1925 77.8617 27.7345C78.2053 27.5045 78.6265 27.1992 79.0477 26.7811C77.6333 25.9802 76.4097 25.2923 75.3766 24.7193C75.033 24.4892 75.1084 24.299 75.6072 24.1839C77.0991 24.4892 78.591 24.8719 80.0829 25.3299C80.6947 24.1463 80.8854 23.3079 80.6571 22.7349C80.5196 22.6354 80.3378 22.5845 80.1162 22.5845C79.4046 22.5845 78.2607 23.0933 76.7178 24.1087C76.6247 24.1596 76.5382 24.1861 76.4562 24.1861C76.2345 24.1861 76.055 23.9915 75.9153 23.5734C75.6094 23.038 75.6471 22.6951 76.0683 22.5425C77.9503 21.62 79.5686 21.1598 80.9851 21.1598M68.5578 23.945C68.5955 23.945 68.6354 23.9494 68.6797 23.9583C68.9479 24.0357 69.2916 24.2636 69.7127 24.6463C70.0962 25.0666 70.2093 25.2945 70.0963 25.3343C69.9433 25.4095 69.8657 25.4869 69.828 25.5245C69.2162 26.0599 68.5268 26.6306 67.762 27.2036C67.7176 27.2478 67.6733 27.2678 67.6356 27.2678C67.609 27.2678 67.5868 27.2589 67.5713 27.2434C67.4937 27.2058 67.4937 27.1284 67.5713 27.0532C67.9548 26.0997 68.1832 25.2591 68.2607 24.6109C68.1942 24.1773 68.3029 23.9472 68.56 23.9472M69.4268 9.54352C68.9346 9.54352 68.5068 9.7758 68.2563 10.1696C67.9726 10.5412 67.7598 10.8797 67.6157 11.2005C66.5738 12.9592 65.4631 14.4546 64.3148 15.6426C63.2951 16.5584 62.4151 17.4477 61.7035 18.2884C60.8234 19.191 61.0828 19.817 61.1692 20.025C61.2468 20.2108 61.5705 20.8169 62.486 20.8169C62.6944 20.8169 62.9338 20.7882 63.2175 20.7262L63.2552 20.7174L63.2929 20.7063C63.6742 20.5957 64.0178 20.4918 64.3348 20.39C64.3215 20.6798 64.3082 20.9807 64.2927 21.2859C63.6808 21.4098 63.1 21.5226 62.5725 21.6001C62.2865 21.631 61.504 21.7328 61.1293 22.4341C60.7347 23.1398 61.0805 23.9384 61.484 24.7016C61.9917 25.8652 62.7254 26.1108 63.2552 26.1108C63.4326 26.1108 63.6077 26.082 63.7784 26.0245C63.6875 26.4249 63.5833 26.8054 63.468 27.1726C63.1954 27.8474 62.3308 29.2676 61.4663 30.6657L61.433 30.721L61.4064 30.7785C61.2978 31.0108 60.9675 31.7187 61.3709 32.3536C61.5971 32.7054 61.9872 32.9177 62.4173 32.9177C62.7254 32.9177 63.0313 32.8182 63.4082 32.597C64.6385 31.9554 65.789 30.9776 66.8309 29.6901L66.8908 29.6171L66.9373 29.5331C67.0282 29.3694 67.1723 29.1127 67.2477 28.803C67.3208 28.9114 67.3895 28.9977 67.4361 29.0552C67.6445 29.3118 67.9504 29.637 68.396 30.0839L68.4093 30.0972L68.4226 30.1104C68.8282 30.4887 69.2694 30.8294 69.7305 31.1214C69.2406 31.2453 68.8127 31.3714 68.4359 31.5019C67.0504 31.9753 65.6205 32.2497 64.1929 32.3204L63.9047 32.3337L63.6609 32.4864C63.1843 32.7828 63.0069 33.1832 62.9427 33.4686C62.8495 33.8823 62.9271 34.3181 63.1754 34.7694C63.5345 36.1277 63.9668 37.2869 64.4634 38.216C63.2264 38.3885 62.0072 38.5987 60.7746 38.8509C60.4155 38.7558 60.1052 38.7093 59.8325 38.7093C58.9768 38.7093 58.5778 39.1672 58.4182 39.4393C57.9371 40.2534 58.4381 41.1649 58.6088 41.4746C59.1298 42.4413 59.797 43.428 60.799 43.428C60.9852 43.428 61.1714 43.3904 61.3443 43.3196C64.6873 42.3661 69.4423 41.6936 75.4786 41.3219C76.4939 41.2711 77.4981 41.2467 78.458 41.2467C82.364 41.2467 85.8643 41.6693 88.8636 42.5055C89.1097 42.6338 89.3624 42.7001 89.6173 42.7001C90.125 42.7001 91.0206 42.4524 91.3087 40.791L91.3176 40.7445L91.3221 40.6981C91.393 39.8906 91.3908 38.7536 90.5816 38.1098C90.5151 38.0479 90.3755 37.8952 90.2646 37.5921L90.2602 37.5833L90.2558 37.5744C89.808 36.4108 89.0698 36.2383 88.6686 36.2383C88.5178 36.2383 88.3671 36.2626 88.2208 36.3113L88.1964 36.3201L88.172 36.329C88.0102 36.3865 87.2941 36.5192 84.2261 36.5214C84.6495 35.7803 85.1372 35.0946 85.6515 34.515C86.4518 33.8867 86.4806 33.1876 86.4229 32.8182C86.3853 32.5793 86.2988 32.3603 86.1724 32.1634C86.434 32.1147 86.6867 31.9953 86.9261 31.805C87.702 31.2741 87.7264 30.1658 87.6444 29.1415V29.1194L87.64 29.0973C87.4493 27.5177 87.1789 27.0532 86.7732 26.7833L86.7045 26.7368L86.6291 26.7014C85.6892 26.259 84.6761 25.8232 83.6032 25.394C84.0754 24.3852 84.3148 24.0003 84.4079 23.8676C85.0574 23.4804 85.2015 22.9628 85.2015 22.5867V22.5071L85.1904 22.4296C85.1461 22.1199 84.9887 21.6111 84.4478 21.2129C84.5741 21.1775 84.7005 21.1399 84.8335 21.1001C85.8466 20.8723 86.5227 20.0648 86.649 18.9299C86.6779 18.6689 86.7665 17.8791 86.2589 17.315C85.9818 17.0075 85.5916 16.8372 85.1594 16.8372C85.0131 16.8372 84.8601 16.8571 84.7027 16.8969L84.6606 16.908L84.6207 16.9212C83.8249 17.1845 83.3771 17.242 83.1399 17.242C83.1399 17.1358 83.1775 16.9788 83.295 16.7288L83.3039 16.7089L83.3128 16.689C83.5566 16.1226 83.8337 15.7399 84.1374 15.5541L84.2017 15.5143L84.2593 15.4678C84.6628 15.1382 84.869 14.6714 84.8246 14.1847C84.7426 13.2932 83.8714 12.6981 82.9426 12.1915L82.8628 12.1473L82.7763 12.1163C82.3618 11.9725 81.9051 11.8995 81.4152 11.8995C80.7147 11.8995 79.9344 12.05 79.0942 12.3486L79.0765 12.3552L79.0587 12.3619C77.6688 12.9083 77.0836 13.0786 76.8708 13.1295C76.3942 13.1538 75.3988 13.2512 75.0087 14.0564C74.9111 14.2555 74.7449 14.7489 75.0574 15.3373C75.0885 15.4811 75.1151 15.6205 75.1395 15.7576C74.7914 15.1493 74.1286 14.636 73.4702 14.1914L73.3372 14.1029L73.1842 14.0542C72.8473 13.948 72.4616 13.8949 72.0027 13.8949C71.7832 13.8949 71.5482 13.906 71.2978 13.9325C71.4596 13.8064 71.617 13.6981 71.7677 13.6073C72.5015 13.3463 72.6855 12.7888 72.7298 12.5499C72.9227 11.5434 71.9118 10.7978 71.4795 10.4793L71.4729 10.4749L71.4662 10.4704C70.5551 9.81562 69.9632 9.54794 69.4246 9.54794L69.4268 9.54352ZM78.7373 16.8151C79.1408 16.5496 79.4223 16.4434 79.5952 16.4014C79.573 16.5076 79.5398 16.6425 79.4866 16.8106C79.0765 17.961 79.1385 19.1113 79.6595 20.1643C79.3647 20.2108 79.0632 20.2727 78.755 20.3502C79.0011 19.7595 79.061 19.2219 78.9346 18.7552C78.806 18.2397 78.7417 17.6911 78.7417 17.127V17.0628C78.7329 16.95 78.7351 16.8704 78.7417 16.8173L78.7373 16.8151ZM74.6008 17.9765C74.8956 17.7929 75.1173 17.5495 75.2503 17.2663C75.2326 17.6424 75.1771 17.9809 75.0818 18.2773L75.0619 18.3371L75.0486 18.399C75.0242 18.5251 74.9665 18.6999 74.8912 18.9034C74.7293 18.826 74.5875 18.7972 74.521 18.7861L74.4922 18.7817V18.6954C74.4922 18.2552 74.5653 18.0517 74.6008 17.9809V17.9765ZM74.3968 23.6021C74.4013 23.4384 74.4079 23.2725 74.4123 23.1044C74.4744 23.1287 74.5387 23.1464 74.6074 23.1597C74.6163 23.2371 74.6296 23.3145 74.6473 23.3942C74.5498 23.4583 74.4656 23.5291 74.3968 23.5999V23.6021ZM79.2627 23.9406C79.358 23.8986 79.4445 23.8654 79.5221 23.8366C79.5065 23.8875 79.4866 23.9406 79.4644 23.9981C79.3957 23.9782 79.3292 23.9605 79.2605 23.9406H79.2627ZM74.388 27.6549C74.3658 26.8873 74.3591 26.1041 74.3658 25.2967C74.4655 25.4139 74.5919 25.5312 74.7582 25.6418L74.7959 25.6661L74.8358 25.6882C75.4875 26.0488 76.2213 26.4603 77.0304 26.916C76.3853 27.2301 75.8045 27.4381 75.2636 27.5553C74.9377 27.5775 74.6473 27.6106 74.3902 27.6549H74.388ZM69.511 27.239C69.7393 27.0532 69.9699 26.8607 70.2049 26.6594C70.2137 26.9182 70.2293 27.1549 70.2448 27.3739C70.2403 27.4646 70.2337 27.5443 70.2248 27.6106C70.0519 27.5509 69.8169 27.4425 69.5088 27.2412L69.511 27.239ZM78.8925 29.9467C79.5753 29.7145 80.2026 29.4003 80.7679 29.0066C81.4928 29.4512 82.2842 29.9335 83.1354 30.4423C81.8076 30.1304 80.3822 29.9622 78.8925 29.9445V29.9467ZM79.0344 33.8181C79.0388 33.8071 79.0454 33.796 79.0499 33.7849C79.2139 33.7938 79.3691 33.8071 79.5132 33.8247C79.5088 34.6057 79.2605 35.5547 78.7839 36.6254C78.5334 36.6387 78.2851 36.6564 78.0368 36.6719C78.121 36.4108 78.243 36.0901 78.4159 35.6963L78.4358 35.652L78.4513 35.6056C78.5444 35.3291 78.6353 35.0459 78.7329 34.7472C78.8282 34.4508 78.928 34.1433 79.0366 33.8159L79.0344 33.8181ZM73.6254 34.3844C73.8448 34.3468 74.0732 34.3092 74.3059 34.2716C74.2417 34.7074 74.1574 35.2096 74.0532 35.7848V35.7936L74.051 35.8025C73.9668 36.3069 73.8847 36.7404 73.8049 37.0988C73.6941 37.1099 73.5877 37.1209 73.4835 37.132C73.4525 36.3843 73.5012 35.4397 73.6254 34.3867V34.3844ZM68.3982 35.8069C68.5445 35.7295 68.795 35.6166 69.214 35.4706C69.214 35.495 69.2162 35.5171 69.2184 35.5414C69.2539 36.3024 69.3714 36.9572 69.5731 37.5258C69.265 37.559 68.9613 37.5966 68.6664 37.6364C68.5135 37.2293 68.396 36.6453 68.4004 35.8047L68.3982 35.8069Z" fill="#E0E0E0"/>
</svg>
