<svg width="36" height="35" viewBox="0 0 36 35" fill="none" xmlns="http://www.w3.org/2000/svg">
<g clip-path="url(#clip0_53_172)">
<path d="M30.2953 4.89758C27.0018 2.22408 22.6351 0.751953 18 0.751953C13.3649 0.751953 8.99819 2.22408 5.70466 4.89758C2.34837 7.62127 0.5 11.2619 0.5 15.1485C0.5 18.806 2.16439 22.2902 5.18662 24.9592C7.91646 27.3702 11.5411 28.9267 15.4768 29.394V33.2122C15.4768 33.7786 15.9359 34.2376 16.5022 34.2376C18.2758 34.2376 23.077 32.0611 27.1305 28.9379C29.5519 27.0722 31.4924 25.0687 32.8978 22.9824C34.6244 20.4197 35.5 17.7839 35.5 15.1485C35.5 11.2619 33.6516 7.62127 30.2953 4.89758ZM11.7489 19.4707H8.26707C7.72607 19.4707 7.33327 19.1521 7.33327 18.7128V11.5736C7.33327 11.1266 7.74396 10.8264 8.35492 10.8264C8.96588 10.8264 9.3763 11.1266 9.3763 11.5736V17.6036H11.7489C12.182 17.6036 12.4848 17.9873 12.4848 18.5371C12.4848 19.0781 12.1753 19.4707 11.7489 19.4707ZM15.0338 18.7128C15.0338 19.1521 14.6042 19.4707 14.0125 19.4707C13.4108 19.4707 12.9911 19.159 12.9911 18.7128V11.5736C12.9911 11.1266 13.4015 10.8264 14.0125 10.8264C14.6234 10.8264 15.0338 11.1266 15.0338 11.5736V18.7128ZM22.0207 18.7128C22.0207 19.1521 21.591 19.4707 20.999 19.4707C20.4957 19.4707 20.1277 19.2656 19.9058 18.8608L18.1215 15.5248V18.7128C18.1215 19.1521 17.6918 19.4707 17.1001 19.4707C16.4985 19.4707 16.0785 19.159 16.0785 18.7128V11.5845C16.0785 11.1311 16.4892 10.8264 17.1001 10.8264C17.7618 10.8264 18.0617 11.0331 18.4377 11.7487L19.9776 14.7248V11.5736C19.9776 11.1266 20.388 10.8264 20.999 10.8264C21.61 10.8264 22.0207 11.1266 22.0207 11.5736V18.7128ZM26.4699 14.2754C26.9019 14.2754 27.2277 14.6532 27.2277 15.1542C27.2277 15.5694 26.9623 16.0108 26.4699 16.0108H25.108V17.6033H27.9086C28.3482 17.6033 28.6667 18.0007 28.6667 18.5478C28.6667 19.0827 28.3482 19.4707 27.9086 19.4707H23.9985C23.4575 19.4707 23.065 19.1518 23.065 18.7128V11.5845C23.065 11.1452 23.4575 10.8264 23.9985 10.8264H27.9086C28.3482 10.8264 28.6667 11.2144 28.6667 11.7493C28.6667 12.2967 28.3482 12.6937 27.9086 12.6937H25.108V14.2754H26.4699Z" fill="white"/>
</g>
<defs>
<clipPath id="clip0_53_172">
<rect width="35" height="35" fill="white" transform="translate(0.5)"/>
</clipPath>
</defs>
</svg>
