<svg width="110" height="55" viewBox="0 0 110 55" fill="none" xmlns="http://www.w3.org/2000/svg">
<path d="M9.19875 1.43799H99.2737C104.317 1.43799 108.409 5.52394 108.409 10.5545V46.7662C108.409 50.5159 105.359 53.5599 101.601 53.5599H9.19875C5.44128 53.5599 2.39098 50.5159 2.39098 46.7662V8.23169C2.39098 4.48199 5.44128 1.43799 9.19875 1.43799Z" fill="#202020"/>
<path d="M101.601 55H9.19873C4.64987 55 0.950043 51.3078 0.950043 46.7684V8.23164C0.950043 3.69218 4.64987 0 9.19873 0H99.2737C105.106 0 109.85 4.73413 109.85 10.5545V46.7662C109.85 51.3056 106.15 54.9978 101.601 54.9978V55ZM9.19873 2.87587C6.23931 2.87587 3.83187 5.27834 3.83187 8.23164V46.7662C3.83187 49.7195 6.23931 52.1219 9.19873 52.1219H101.599C104.559 52.1219 106.966 49.7195 106.966 46.7662V10.5545C106.966 6.32029 103.514 2.87587 99.2715 2.87587H9.19873Z" fill="#CF2D20"/>
<g opacity="0.5">
<path d="M98.8991 48.3634H11.901C9.52901 48.3634 7.6004 46.4388 7.6004 44.0717V10.9283C7.6004 8.56128 9.52901 6.63666 11.901 6.63666H98.8991C101.271 6.63666 103.2 8.56128 103.2 10.9283V44.0717C103.2 46.4388 101.271 48.3634 98.8991 48.3634ZM11.901 7.30032C9.897 7.30032 8.26544 8.92851 8.26544 10.9283V44.0717C8.26544 46.0715 9.897 47.6997 11.901 47.6997H98.8991C100.903 47.6997 102.535 46.0715 102.535 44.0717V10.9283C102.535 8.92851 100.903 7.30032 98.8991 7.30032H11.901Z" fill="#CF2D20"/>
</g>
<path d="M49.8814 44.43C49.6685 44.43 49.4291 44.3747 49.1476 44.2641C47.2678 43.6115 45.501 42.5895 43.896 41.229C43.2953 40.7334 42.8785 40.3441 43.047 39.8773C43.1179 39.6826 43.313 39.4747 43.6544 39.4747C43.8206 39.4747 44.0202 39.5233 44.3216 39.6362C44.9689 39.8375 45.5298 39.9415 45.9887 39.9415C46.3301 39.9415 46.6138 39.8884 46.851 39.7755C46.8865 39.6295 46.9463 39.2247 46.9153 38.1916C46.8444 37.039 46.8333 35.2803 46.8776 32.1368C46.8776 29.3826 46.8776 27.7013 46.8421 26.9735C46.7823 26.5841 46.882 26.3164 46.9973 26.1461C46.6581 26.0842 46.4365 25.9183 46.3035 25.7722C45.9909 25.4338 45.8667 24.9272 45.9222 24.2215C45.9222 23.9073 45.8712 23.6308 45.7692 23.3786V24.2812C45.7692 24.6374 45.6318 25.4979 44.3771 25.8054C43.5635 26.0864 42.5549 26.3275 41.2935 26.5443L41.2713 26.5487C39.8947 26.7257 39.5644 26.9049 39.509 26.9425L39.489 26.9624C39.2718 27.1792 39.0457 27.2257 38.8949 27.2257C38.2077 27.2257 37.8885 26.4138 37.6447 25.5355C37.6247 25.4736 37.607 25.4139 37.5892 25.3563C37.5294 25.4603 37.4607 25.5488 37.3853 25.6262L37.3676 25.6439L37.3476 25.6594C35.9998 26.7744 34.785 27.3938 33.6456 27.5509C33.5414 27.9491 33.4217 28.3915 33.2887 28.8826C33.1956 29.2233 33.098 29.5839 32.996 29.9688C32.9717 30.5904 32.668 30.8559 32.4019 30.9687C32.229 31.0484 32.0073 31.0793 31.6238 31.0793C31.4332 31.0793 31.1894 31.0705 30.8613 31.055C30.6263 31.055 30.0854 31.1125 28.9748 31.4267C28.9659 31.5616 28.9615 31.6965 28.9637 31.8315L30.1984 31.6014C30.5531 31.5439 31.5906 31.378 31.7835 31.2851L31.8012 31.274L31.8123 31.2696C31.9275 31.2121 32.0473 31.1833 32.1714 31.1833C32.3997 31.1833 32.7278 31.2829 33.0005 31.7563L33.0138 31.7828C33.1024 31.9598 33.1911 32.0483 33.2399 32.0793C33.497 32.1523 33.7741 32.3602 33.9249 32.8867C33.9936 32.004 34.0778 31.1302 34.1798 30.2652C34.0712 28.8185 34.683 28.407 35.2195 28.3185C35.5564 28.2499 36.0308 28.042 36.4919 27.8296C36.9153 27.6172 37.4917 27.4513 38.241 27.3274C38.9792 27.2102 39.5622 27.1571 40.0831 27.1571C40.2139 27.1571 40.3425 27.1615 40.4689 27.1681H40.4888L40.5088 27.1726C41.9364 27.3562 42.6058 27.6283 42.8231 28.115C42.9384 28.3738 42.9029 28.6658 42.73 28.9158L42.7078 28.9446C42.3509 29.3892 42.2955 29.6126 42.2888 29.6702C41.9231 32.8181 41.8721 35.913 42.1403 38.8553C42.4396 41.7333 42.2689 42.5806 41.9209 42.9678C41.7679 43.1359 41.5617 43.231 41.3423 43.231C41.145 43.231 40.9477 43.1558 40.7548 43.0098L40.7238 42.9855C38.0237 40.6051 36.9974 39.6362 36.6582 39.1451C36.3922 38.7911 36.135 38.3951 36.3323 38.0036C36.4409 37.7845 36.6648 37.654 36.9264 37.654C37.0949 37.654 37.2922 37.7071 37.5671 37.8266L37.6203 37.8487L37.6668 37.8819C38.17 38.2403 38.64 38.477 38.9969 38.5544C39.0501 38.2425 39.11 37.5147 39.0457 35.871C38.9659 35.9816 38.8528 36.0723 38.6976 36.1342L38.6622 36.1475L38.6245 36.1564C38.2742 36.2449 37.904 36.3864 37.5139 36.5391L37.2745 36.632C36.769 36.8399 36.401 37.1187 36.1372 37.4992V39.9702C36.1372 41.3086 35.3015 41.521 34.9402 41.5519C34.887 41.5564 34.8382 41.5586 34.7916 41.5586C34.3084 41.5586 34.0446 41.3551 33.9094 41.1825C33.7764 41.0166 33.6411 40.7224 33.7276 40.2622C33.6855 38.3243 33.7187 36.4019 33.8207 34.5127C33.6655 34.6897 33.4416 34.7892 33.1933 34.7892C33.1091 34.7892 33.0226 34.7782 32.934 34.756C32.7611 34.7472 32.5837 34.7428 32.4086 34.7428C31.349 34.7428 30.2361 34.8932 29.0235 35.2029C29.0235 35.5856 29.0324 35.8975 29.0568 36.1298V36.163C29.1211 37.3952 29.2075 38.6761 29.3006 40.0344L29.3605 40.917C29.7595 41.9723 29.8216 42.6337 29.5578 43.0585C29.4159 43.2863 29.1898 43.4279 28.9194 43.4567C28.5758 43.5053 28.2277 43.5297 27.8841 43.5297C27.4518 43.5297 27.0129 43.4898 26.5762 43.4146C26.0708 43.3372 25.7427 43.1359 25.6075 42.8173C25.5432 42.6669 25.4745 42.3616 25.725 42.0143L25.7427 41.99C25.7604 41.9678 25.8469 41.8351 25.8912 41.2621C25.9755 39.53 26.0331 37.8841 26.0663 36.1564C24.5656 36.6652 23.3596 37.2005 22.4729 37.7558C22.3111 37.873 22.1182 37.935 21.9121 37.935C21.3379 37.935 20.684 37.4748 19.7906 36.4395C19.4071 35.9949 18.9305 35.3334 19.2165 34.7118C19.5224 34.0459 20.4401 34.0459 20.7416 34.0459C20.8857 34.0459 21.0453 34.0526 21.2138 34.0658C22.566 33.6167 24.1821 33.0902 26.0819 32.5328C26.0819 32.4332 26.0819 32.3314 26.0863 32.2319H26.0819C25.5387 32.3292 25.3503 32.4 25.2882 32.4354L25.2506 32.4996L25.1464 32.5682C25.0112 32.6589 24.856 32.7075 24.703 32.7075C24.1466 32.7075 23.8407 32.1655 23.6146 31.6258C22.2535 29.2078 21.5397 26.7146 21.4953 24.2104C21.4266 23.6662 21.5042 23.2769 21.7303 23.0203C21.8877 22.8389 22.1094 22.7393 22.3554 22.7393C22.515 22.7393 22.821 22.6707 23.2643 22.5358C23.9072 22.3566 24.856 22.1509 26.0464 21.892V21.0492C24.3816 21.3611 23.8429 21.6443 23.67 21.808C23.4638 22.1044 23.1978 22.1509 23.0515 22.1509C22.4618 22.1509 22.0894 21.4806 21.6837 20.3966C21.2426 19.1555 21.1761 18.6224 21.4222 18.2773C21.5485 18.0981 21.7502 17.9941 21.9719 17.9941C22.0362 17.9941 22.1027 18.003 22.1714 18.0207C22.382 18.014 23.1513 17.9211 26.0264 17.3172C25.9777 16.1049 25.971 14.7731 26.0087 13.2644C25.9156 12.7423 25.9976 12.322 26.2503 12.0145C26.5008 11.7114 26.8799 11.5566 27.3809 11.5566C27.4186 11.5566 27.4563 11.5566 27.4962 11.5588C28.2166 11.561 29.059 11.7689 29.9989 12.176L30.0278 12.1871L30.0544 12.2025C30.3425 12.3662 30.5154 12.583 30.5731 12.8441C30.6108 13.0211 30.6108 13.2976 30.3824 13.6161L30.3558 13.6537L30.3226 13.6869C30.2516 13.7577 30.0876 14.0387 29.9768 14.5873L29.9701 14.6138C29.8659 15.0275 29.775 15.6138 29.6775 16.5075C29.9369 16.4522 30.2295 16.388 30.5687 16.3084C31.3623 16.1049 31.9519 16.0031 32.3598 16.0031C33.1667 16.0031 33.3197 16.4566 33.3485 16.6535L33.3552 16.6933V16.7331C33.3552 16.9367 33.3751 17.2132 33.3995 17.5627L33.4305 18.0118V18.0295C33.4305 18.4896 33.2465 19.3104 32.0207 19.6621C31.227 19.9696 30.3359 20.2196 29.3672 20.4076C29.3428 20.6709 29.325 20.943 29.3139 21.2217C29.9879 21.1133 30.5554 21.0558 30.9788 21.0558C31.0896 21.0558 31.1894 21.0602 31.278 21.0669H31.3068C33.4638 21.3655 34.7783 21.9783 35.4434 22.9959L35.4944 23.0733V23.0866C35.5941 22.976 35.6894 22.8632 35.7848 22.7526C37.5449 19.6466 38.7974 17.0716 39.5068 15.0983C39.7329 14.3926 39.9324 13.7843 40.092 13.2932C40.3026 12.6472 40.4777 12.1163 40.5331 11.9083C40.5021 11.6119 40.6019 11.4106 40.6994 11.2889C40.8147 11.1429 41.0408 10.9703 41.4553 10.9703C41.7834 10.9703 42.2157 11.0721 42.8187 11.2933C43.9049 11.7335 44.3682 12.072 44.4945 12.5056C44.5611 12.7357 44.5212 12.9702 44.3793 13.1649L44.3305 13.2334L44.2618 13.2843C44.0601 13.437 43.8384 13.8175 43.6034 14.417L43.5945 14.4413L43.5834 14.4634C43.4815 14.6669 43.3352 14.9767 43.1711 15.3771C43.6167 16.0452 44.2862 16.8504 45.2527 17.8857C47.0261 19.7307 48.6422 21.0713 50.0543 21.8655L50.0875 21.8854L50.1186 21.9097C50.7082 22.3588 51.5994 22.8455 52.9428 23.5357C54.8359 24.5135 54.909 24.8807 54.9534 25.1019L54.9645 25.155V25.2103C54.9645 25.9824 54.0312 26.1815 53.7231 26.2479C52.8208 26.4315 51.8565 26.5244 50.8479 26.5244C50.7304 26.5244 50.6107 26.5244 50.491 26.52C50.6173 26.6461 50.6971 26.7832 50.737 26.9381C50.7814 27.1084 50.808 27.438 50.4932 27.7632C50.42 27.8849 50.2117 28.4866 50.2604 31.347V31.3736C50.1873 33.6477 50.287 36.8532 50.5664 41.167C50.6617 42.6271 50.737 43.22 50.7858 43.4611L50.7969 43.5142V43.5695C50.7969 44.0849 50.4289 44.4433 49.9035 44.4433L49.8814 44.43ZM36.288 34.1278C36.3168 34.1211 36.3523 34.1101 36.3922 34.0968C36.9153 33.922 37.423 33.7716 37.9417 33.6322C38.0237 33.6057 38.108 33.5946 38.1922 33.5946C38.3917 33.5946 38.7065 33.6676 38.9437 34.057C38.9282 33.6765 38.9104 33.3292 38.8927 33.0128C38.8107 33.0725 38.7154 33.1146 38.6023 33.1389C38.1324 33.2562 37.669 33.4022 37.2235 33.5747L37.2013 33.5836L37.1769 33.5902C36.7757 33.7052 36.4897 33.8535 36.3057 34.0459C36.2991 34.0747 36.2924 34.1012 36.288 34.1278ZM37.7954 29.679C37.5183 29.7078 37.3166 29.7586 37.1969 29.8317L37.1592 29.8538L37.1171 29.8693C37.1038 29.8803 36.922 30.0374 36.7336 30.9643C36.9042 30.9178 37.0794 30.8692 37.2634 30.8161C37.4895 30.7519 37.7267 30.6856 37.9794 30.617C38.0592 30.5927 38.139 30.5816 38.2188 30.5816C38.4205 30.5816 38.5801 30.6502 38.7087 30.7541C38.6289 30.1347 38.558 29.9113 38.5203 29.8339L38.4471 29.7609L38.4338 29.7144C38.374 29.6967 38.2476 29.6724 38.0126 29.6724C37.9461 29.6724 37.873 29.6724 37.7976 29.679H37.7954ZM25.2107 28.6835C25.2905 28.9999 25.3681 29.2034 25.4301 29.3339C25.5853 29.2874 25.8025 29.2167 26.0819 29.1237C26.0663 28.845 26.053 28.5707 26.0442 28.2986C25.9954 28.3141 25.9466 28.3318 25.8979 28.3495C25.6319 28.438 25.3991 28.553 25.2107 28.6857V28.6835ZM29.0501 27.3938C29.0346 27.615 29.0258 27.8451 29.0258 28.0884C29.6598 27.8119 29.8504 27.6615 29.8925 27.6239L29.908 27.5995C29.9568 27.5287 30.0167 27.3982 30.0876 27.1681C30.0322 27.1947 29.9701 27.2124 29.9036 27.2257C29.6176 27.2765 29.3295 27.3296 29.0479 27.3938H29.0501ZM24.7629 25.7081C24.805 25.7214 24.8471 25.728 24.8892 25.728C24.9358 25.728 24.9823 25.7192 25.0333 25.7037L25.0533 25.697L25.0732 25.6926C25.2949 25.6373 25.5188 25.5731 25.7405 25.5068C25.838 25.478 25.9333 25.4515 26.0309 25.4227V24.7834C25.4368 24.936 25.0865 25.0887 24.8826 25.2059C24.8249 25.2922 24.774 25.4559 24.7629 25.7103V25.7081ZM29.5112 24.5533C29.7861 24.5533 30.245 24.6794 30.4401 25.4603C30.4911 24.6816 30.4866 24.31 30.4733 24.1308C30.3071 24.0644 30.1297 24.0312 29.9413 24.0312C29.7994 24.0312 29.6487 24.0511 29.4913 24.0887C29.3805 24.1241 29.2674 24.1529 29.1543 24.175C29.1455 24.3166 29.141 24.4648 29.141 24.6197L29.2807 24.5843C29.345 24.5666 29.4292 24.5533 29.5112 24.5533ZM41.3157 18.91C40.3181 20.6311 39.4558 21.9097 38.8151 22.6243L38.793 22.6464C38.5447 22.8942 38.3452 23.1331 38.2011 23.3543C38.62 23.3366 40.0853 23.111 43.0603 22.5159C43.7741 22.3345 44.3128 22.2438 44.7074 22.2393C43.916 21.6797 43.1002 20.8456 42.3265 19.8059C42.0295 19.4431 41.6925 19.1422 41.3179 18.9055L41.3157 18.91ZM44.7872 37.5169C44.5721 37.5169 44.315 37.466 44.0024 37.362L43.9825 37.3554L43.9625 37.3465C43.2576 37.0501 42.8896 36.747 42.7677 36.3599C42.7056 36.163 42.7145 35.9551 42.7965 35.7648C42.863 35.1011 42.8985 34.4994 42.8985 33.9751V31.9908C42.8985 31.2165 42.8519 30.5418 42.7566 29.9268C42.6413 29.4622 42.7765 29.1591 42.9095 28.9844C43.1224 28.7078 43.4682 28.5685 43.9359 28.5685C44.1044 28.5685 44.295 28.5862 44.5034 28.6238L44.5322 28.6282C45.0687 28.7499 45.7071 28.9556 45.8911 29.4689C45.9465 29.6237 45.9998 29.9246 45.7626 30.2608C45.7249 30.3449 45.6473 30.6369 45.6916 31.5439V31.5705C45.6916 32.3602 45.6916 33.1787 45.6539 33.9884C45.6539 34.7317 45.6539 35.4971 45.6894 36.2648C45.7736 36.6453 45.7249 36.955 45.5453 37.185C45.4278 37.3355 45.1995 37.5169 44.7916 37.5169H44.7872Z" fill="black"/>
<path d="M41.4376 11.5102C41.6947 11.5102 42.0826 11.6053 42.6102 11.7977C43.6433 12.2181 44.1021 12.561 43.9115 12.8286C43.6056 13.0587 43.3373 13.5166 43.0691 14.2024C42.9162 14.5077 42.7255 14.928 42.5327 15.4236C43.0292 16.2244 43.794 17.1402 44.827 18.2486C46.6249 20.1179 48.2697 21.4939 49.7616 22.3323C50.4111 22.8278 51.4065 23.3632 52.6678 24.0114C53.7762 24.5843 54.3504 25.0046 54.3881 25.1949C54.3881 25.425 54.1198 25.5776 53.5856 25.6904C52.7144 25.8674 51.7944 25.9537 50.8257 25.9537C49.7084 25.9537 48.5246 25.8387 47.2744 25.613C46.6625 25.613 46.3943 25.1551 46.4719 24.2392C46.4719 23.2858 46.0884 22.5602 45.3236 21.9872C44.5211 21.4917 43.641 20.651 42.761 19.4675C42.2644 18.8569 41.6903 18.4366 41.1161 18.1689C41.0644 18.1689 41.0518 18.1815 41.0784 18.2065C39.97 20.1533 39.0523 21.5271 38.4005 22.2527C37.6734 22.9783 37.3298 23.6264 37.3675 24.1618C37.2899 24.6573 37.1769 25.04 36.984 25.2303C35.6451 26.3364 34.4214 26.947 33.313 27.0244H33.1977C33.0071 27.7876 32.7389 28.7411 32.4329 29.887C32.4329 30.1923 32.3553 30.3825 32.1647 30.46C32.076 30.5042 31.8943 30.5241 31.6127 30.5241C31.4132 30.5241 31.1649 30.5153 30.8634 30.4998C30.4046 30.4998 29.6021 30.6524 28.4538 30.9953C28.3762 31.4909 28.3762 31.9886 28.4538 32.4841C29.0656 32.3691 29.6775 32.2541 30.2893 32.1412C31.2447 31.9886 31.8566 31.8736 32.0494 31.7585C32.0871 31.7408 32.1226 31.7298 32.1603 31.7298C32.2755 31.7298 32.393 31.8227 32.5083 32.024C32.6613 32.3293 32.8519 32.5195 33.0448 32.597C33.2753 32.6346 33.4283 32.9797 33.466 33.5504C33.5302 33.9951 33.4349 34.2274 33.18 34.2274C33.129 34.2274 33.0714 34.2185 33.0071 34.1986C32.8054 34.1875 32.6014 34.1831 32.3953 34.1831C31.1627 34.1831 29.8659 34.38 28.456 34.7716C28.456 35.3821 28.456 35.8401 28.4937 36.183C28.5713 37.7094 28.6843 39.3132 28.7996 41.0299C29.2585 42.2134 29.2585 42.8616 28.8373 42.8992C28.5003 42.9479 28.1789 42.9678 27.8686 42.9678C27.4385 42.9678 27.035 42.928 26.6582 42.8594C26.1616 42.7842 25.9688 42.5917 26.1616 42.3241C26.3146 42.1338 26.3922 41.7887 26.4299 41.2932C26.5052 39.7291 26.5828 37.7824 26.6205 35.3777C24.6697 35.9883 23.1778 36.6365 22.1448 37.2868C22.0739 37.3422 21.9918 37.3687 21.8965 37.3687C21.5241 37.3687 20.9566 36.9462 20.194 36.0657C19.3516 35.0901 19.5179 34.5879 20.7238 34.5879C20.8857 34.5879 21.0652 34.5968 21.2647 34.6145C22.7566 34.119 24.5168 33.546 26.6183 32.9354C26.6183 32.4399 26.6183 31.9421 26.656 31.4466C26.3877 31.5218 26.1594 31.5993 25.9665 31.6767C25.317 31.7917 24.9335 31.9067 24.8183 32.097C24.7717 32.128 24.7274 32.1435 24.6808 32.1435C24.4946 32.1435 24.3062 31.8935 24.0911 31.3736C22.7522 29.0065 22.065 26.6019 22.0251 24.1596C21.9475 23.5866 22.0628 23.2813 22.331 23.2813C22.5616 23.2813 22.9052 23.2039 23.4017 23.0513C24.0911 22.861 25.1619 22.6309 26.5762 22.3257V20.3789C24.703 20.6842 23.5924 21.0271 23.2111 21.4474C23.1557 21.5381 23.0958 21.5846 23.0271 21.5846C22.8098 21.5846 22.5283 21.12 22.178 20.1887C21.7923 19.1047 21.697 18.5339 21.9475 18.5339C21.9697 18.5339 21.9963 18.5384 22.0251 18.5472C22.0428 18.5561 22.0761 18.5605 22.1271 18.5605C22.535 18.5605 24.0269 18.2884 26.5762 17.7464C26.4986 16.2576 26.4986 14.7311 26.5385 13.2047C26.3922 12.4769 26.6648 12.0942 27.3543 12.0942C27.3875 12.0942 27.4208 12.0942 27.4562 12.0964C28.1058 12.0964 28.8705 12.2866 29.7506 12.6694C30.0188 12.822 30.0942 13.0123 29.9036 13.2799C29.7129 13.4702 29.5201 13.8905 29.407 14.4635C29.2541 15.074 29.1388 15.9899 29.0235 17.1734C29.4824 17.096 30.0188 16.9832 30.6684 16.8305C31.4221 16.6381 31.9807 16.5407 32.3332 16.5407C32.6081 16.5407 32.7566 16.5982 32.7721 16.7155C32.7721 17.0208 32.8098 17.4411 32.8475 18.0141C32.8475 18.5494 32.5039 18.9299 31.8145 19.1202C30.9344 19.4631 29.9413 19.7307 28.8306 19.921C28.7553 20.5316 28.7154 21.1797 28.7154 21.8677C29.7085 21.6753 30.46 21.5912 30.9477 21.5912C31.043 21.5912 31.1272 21.5934 31.2004 21.6001C33.1512 21.8677 34.3748 22.4009 34.949 23.2791C35.0266 23.5844 34.8736 23.9273 34.4524 24.31C34.2219 24.5003 33.9559 24.998 33.6101 25.874C34.4901 24.9958 35.3702 24.0423 36.2104 23.0491C38.0082 19.8812 39.2695 17.2862 39.9966 15.2621C40.6462 13.2401 41.0297 12.1318 41.0674 11.9039C41.0053 11.6363 41.1228 11.5013 41.4265 11.5013M28.6112 25.3099C28.8417 25.2723 29.1077 25.1949 29.4137 25.1197C29.4469 25.1108 29.478 25.1064 29.509 25.1064C29.7262 25.1064 29.8814 25.3453 29.9479 25.8453C30.0255 26.3408 29.9856 26.6461 29.795 26.6859C29.3738 26.7611 28.9526 26.8386 28.5336 26.9536C28.456 27.6018 28.456 28.2522 28.4959 28.9004C29.6043 28.48 30.256 28.1371 30.3691 27.9071C30.5997 27.5642 30.7903 26.801 30.9809 25.655C31.0563 24.5489 31.0563 23.8985 30.9433 23.7459C30.6418 23.5711 30.307 23.4782 29.939 23.4782C29.7462 23.4782 29.5467 23.5026 29.3361 23.5557C29.1055 23.6331 28.8772 23.6707 28.6467 23.6707C28.5691 24.206 28.5691 24.7392 28.609 25.3121M24.8892 26.2789C24.9956 26.2789 25.102 26.2612 25.2084 26.2258C25.6673 26.1108 26.1262 25.9581 26.585 25.8431V24.0866C25.6296 24.2768 24.9402 24.5069 24.519 24.7746C24.2884 25.0046 24.1754 25.4228 24.2131 26.0333C24.4237 26.1904 24.6542 26.2767 24.8892 26.2767M25.2106 29.9489C25.3503 29.9489 25.8335 29.7963 26.6604 29.5087C26.6227 28.8605 26.5828 28.1725 26.5828 27.5244C26.3146 27.6394 26.0087 27.7146 25.7028 27.8296C25.2439 27.9823 24.8604 28.2124 24.5944 28.4778C24.7473 29.2034 24.938 29.699 25.1685 29.929C25.1685 29.9423 25.1818 29.9489 25.2106 29.9489ZM44.7273 22.7969C45.0465 22.7969 45.2083 22.8721 45.2083 23.0203V24.279C45.2083 24.7746 44.8647 25.1197 44.213 25.2723C43.3329 25.5776 42.2999 25.8077 41.1915 25.9979C40.0055 26.1506 39.2784 26.3408 39.0878 26.5709C39.0212 26.6373 38.9525 26.6727 38.886 26.6727C38.6466 26.6727 38.4094 26.2501 38.17 25.3874C37.8574 24.3852 37.7976 23.8831 37.9882 23.8831C38.0082 23.8831 38.0303 23.8875 38.0547 23.8985C38.0725 23.9074 38.1079 23.9118 38.1633 23.9118C38.6067 23.9118 40.2893 23.6375 43.18 23.0601C43.8694 22.8831 44.3859 22.7969 44.7251 22.7969M48.0369 26.2369C48.2697 26.2369 48.5645 26.2833 48.9214 26.3784C50.0298 26.6837 50.4134 27.0266 50.0697 27.3717C49.7638 27.677 49.6486 29.0132 49.6862 31.3404C49.6087 33.7451 49.7239 37.028 49.9922 41.187C50.0697 42.3705 50.1451 43.1713 50.2227 43.554C50.2227 43.7664 50.1074 43.8748 49.8835 43.8748C49.7439 43.8748 49.5643 43.8328 49.3426 43.7443C47.4694 43.0961 45.7847 42.1028 44.2551 40.8043C43.63 40.2888 43.4305 40.0234 43.6543 40.0234C43.7452 40.0234 43.9071 40.0676 44.1398 40.1561C44.8403 40.3751 45.4566 40.4901 45.9886 40.4901C46.4741 40.4901 46.8909 40.395 47.2389 40.1937C47.4295 40.0787 47.5071 39.3929 47.4695 38.1717C47.3919 36.913 47.3919 34.9264 47.4318 32.1412C47.4318 29.3561 47.4318 27.6372 47.3941 26.9116C47.3143 26.4647 47.5271 26.2346 48.0392 26.2346M40.0764 27.7058C40.1961 27.7058 40.3136 27.708 40.4289 27.7146C41.9208 27.9049 42.5326 28.2101 42.2644 28.5929C41.9585 28.9756 41.7679 29.3185 41.728 29.5861C41.3444 32.8691 41.3068 35.9595 41.575 38.8995C41.8366 41.4148 41.7634 42.6714 41.3289 42.6714C41.2558 42.6714 41.1715 42.636 41.0784 42.563C38.7841 40.541 37.4451 39.3177 37.1015 38.8221C36.7867 38.404 36.7247 38.2005 36.9131 38.2005C36.9995 38.2005 37.1392 38.2425 37.3321 38.3266C38.0858 38.8642 38.7375 39.1318 39.2252 39.1318C39.2584 39.1318 39.2895 39.1318 39.3205 39.1274C39.6264 39.0124 39.704 37.4107 39.5112 34.3955C39.3959 31.3802 39.2052 29.7388 38.937 29.4711C38.8705 29.2366 38.569 29.1194 38.0082 29.1194C37.9284 29.1194 37.8419 29.1216 37.751 29.126C37.3675 29.1636 37.1015 29.241 36.9086 29.3561C36.5251 29.5087 36.2591 30.2343 36.0663 31.5705C36.1239 31.6081 36.1993 31.628 36.2902 31.628C36.381 31.628 36.4852 31.6081 36.6005 31.5705C37.0594 31.4555 37.556 31.3028 38.1301 31.1502C38.1589 31.1413 38.1877 31.1347 38.2143 31.1347C38.3983 31.1347 38.5291 31.3648 38.6289 31.7984C38.7065 32.2939 38.6666 32.5616 38.4759 32.5992C38.017 32.7142 37.5205 32.8668 37.0217 33.0571C36.4852 33.2097 36.0663 33.4398 35.798 33.7827C35.7204 34.0504 35.6828 34.3181 35.7204 34.5459C35.849 34.6543 35.9909 34.7008 36.1527 34.7008C36.2769 34.7008 36.4121 34.672 36.5628 34.6233C37.0217 34.4707 37.5183 34.3181 38.0924 34.1654C38.1257 34.1544 38.1567 34.1499 38.1877 34.1499C38.3739 34.1499 38.5291 34.3512 38.6289 34.776C38.7065 35.2715 38.6666 35.5392 38.4759 35.6166C38.017 35.7317 37.5582 35.9219 37.0616 36.1122C36.4121 36.3798 35.9133 36.7603 35.5697 37.3333V39.9658C35.5697 40.614 35.3392 40.9591 34.8803 40.9967C34.8448 40.9989 34.8116 41.0012 34.7783 41.0012C34.3527 41.0012 34.162 40.7711 34.2684 40.3109C34.1909 36.8754 34.346 33.5172 34.7273 30.2719C34.6519 29.3937 34.8426 28.9358 35.3015 28.8605C35.685 28.7853 36.1439 28.5929 36.7158 28.3252C37.0993 28.1349 37.6335 27.9823 38.323 27.8673C38.9215 27.7721 39.5178 27.7058 40.0742 27.7058M43.9359 29.1194C44.0733 29.1194 44.2307 29.1348 44.4081 29.1658C45.2504 29.3561 45.5564 29.6237 45.2881 29.9666C45.1352 30.2343 45.0975 30.7675 45.1352 31.5705C45.1352 32.3713 45.1352 33.1743 45.0975 33.9752C45.0975 34.7384 45.0975 35.5392 45.1352 36.3422C45.2394 36.7603 45.1285 36.9639 44.7893 36.9639C44.6342 36.9639 44.4302 36.9218 44.1797 36.8378C43.4526 36.5325 43.1467 36.2272 43.3373 35.9219C43.4127 35.1963 43.4526 34.5481 43.4526 33.9752V31.9908C43.4526 31.2652 43.4149 30.5396 43.2997 29.8162C43.1777 29.3583 43.3972 29.1216 43.9359 29.1216M41.4376 10.4041C40.8013 10.4041 40.4378 10.6894 40.2471 10.9306C40.123 11.0876 39.9412 11.3929 39.9567 11.8331C39.8858 12.0721 39.7262 12.5587 39.5466 13.1074C39.387 13.5963 39.1897 14.198 38.9592 14.9148C38.2831 16.7907 37.1082 19.2219 35.4611 22.1509C34.6364 21.3058 33.3108 20.7771 31.3622 20.5116L31.3334 20.5072H31.3046C31.2824 20.5028 31.2603 20.5006 31.2359 20.5006C31.5617 20.401 31.8765 20.2926 32.178 20.1754C33.2975 19.8436 33.9647 19.0427 33.9647 18.0185V17.9455C33.9514 17.7906 33.9426 17.6446 33.9315 17.5119C33.9071 17.1734 33.8872 16.9057 33.8872 16.7221V16.6425L33.8761 16.5651C33.8495 16.377 33.6477 15.4413 32.3398 15.4413C31.8876 15.4413 31.2558 15.5474 30.4112 15.762C30.3735 15.7709 30.3381 15.7797 30.3026 15.7864C30.358 15.386 30.4201 15.0165 30.4888 14.7378L30.4955 14.7112L30.4999 14.6847C30.5753 14.313 30.6728 14.1073 30.7127 14.0476L30.7593 14.0011L30.8125 13.9259C31.1583 13.4436 31.1561 13.0012 31.094 12.7158C31.0297 12.426 30.8435 12.0168 30.3092 11.7137L30.256 11.6827L30.2006 11.6584C29.1809 11.2159 28.2942 10.9991 27.4917 10.9947C27.4474 10.9947 27.4052 10.9925 27.3631 10.9925C26.523 10.9925 26.0508 11.3509 25.8047 11.654C25.5609 11.9504 25.3082 12.4703 25.4367 13.2932C25.4057 14.6006 25.4057 15.7797 25.439 16.8615C23.1224 17.3415 22.4064 17.4367 22.2002 17.4544C22.1182 17.4389 22.0362 17.4322 21.9564 17.4322C21.5507 17.4322 21.1849 17.6203 20.9522 17.9499C20.5354 18.5384 20.6884 19.2927 21.1406 20.5647V20.5736L21.1472 20.5824C21.38 21.2019 21.6372 21.8124 22.0096 22.2173C21.7347 22.2814 21.4886 22.4296 21.2958 22.6486C20.9655 23.0269 20.8435 23.5468 20.9233 24.2414C20.9743 26.8187 21.7059 29.3804 23.098 31.8603C23.1867 32.0749 23.3396 32.4133 23.5857 32.7031C22.6857 32.9863 21.8677 33.254 21.1295 33.4995C20.9876 33.4907 20.8524 33.4863 20.7283 33.4863C19.6819 33.4863 18.9992 33.8181 18.6999 34.4729C18.2344 35.4883 19.0812 36.4683 19.3583 36.7913C20.3802 37.9748 21.1406 38.4792 21.901 38.4792C22.218 38.4792 22.5172 38.3863 22.7699 38.2071C23.4571 37.7802 24.3793 37.3488 25.4833 36.9395C25.4478 38.3708 25.3968 39.7645 25.3259 41.229C25.3037 41.5188 25.2705 41.6493 25.2572 41.6936C24.9646 42.1073 24.9025 42.5917 25.0865 43.0253C25.2993 43.5297 25.7693 43.8416 26.4808 43.9522C26.9442 44.0341 27.4141 44.0739 27.873 44.0739C28.2388 44.0739 28.6112 44.0474 28.9792 43.9965C29.4137 43.9456 29.7905 43.7089 30.0189 43.3417C30.378 42.7621 30.3447 41.9944 29.8991 40.791L29.8459 39.988C29.7551 38.6341 29.6686 37.3532 29.6065 36.1254V36.0923L29.6021 36.0591C29.5888 35.9418 29.5821 35.7958 29.5777 35.6277C30.5819 35.3976 31.513 35.287 32.4041 35.287C32.5549 35.287 32.7056 35.2892 32.8541 35.2959C32.9672 35.3202 33.078 35.3313 33.1889 35.3313C33.1999 35.3313 33.211 35.3313 33.2199 35.3313C33.1512 36.9395 33.1312 38.5699 33.1667 40.2092C33.0647 40.8397 33.2709 41.2644 33.4704 41.5166C33.6433 41.7356 34.0468 42.1006 34.7872 42.1006C34.847 42.1006 34.9091 42.0984 34.9756 42.094C35.7958 42.0254 36.6626 41.4458 36.687 40.0211C37.2766 40.6383 38.3584 41.6272 40.3535 43.3859L40.3824 43.4125L40.4134 43.4368C40.7038 43.658 41.0164 43.7708 41.3378 43.7708C41.7169 43.7708 42.0693 43.6138 42.3265 43.3262C42.6701 42.9457 42.8696 42.3926 42.843 40.9879C43.0536 41.2401 43.3174 41.4591 43.5502 41.6493C45.2039 43.0519 47.0239 44.1027 48.9636 44.7774C49.3072 44.9123 49.6109 44.9765 49.8902 44.9765C50.7281 44.9765 51.3378 44.377 51.3378 43.5496V43.4412L51.3156 43.335C51.2779 43.1514 51.2025 42.6183 51.105 41.114C50.8279 36.8156 50.7281 33.6301 50.8013 31.3736V31.3471V31.3205C50.7614 28.9512 50.9033 28.2323 50.9609 28.042C51.2048 27.75 51.3245 27.4049 51.3045 27.0532C52.1801 27.0288 53.0225 26.9337 53.8161 26.7744C55.2149 26.4758 55.5053 25.7502 55.5053 25.1949V25.0865L55.4832 24.9781C55.3723 24.4273 54.9733 23.9538 53.1843 23.0291C52.1314 22.4872 51.0562 21.9208 50.4422 21.4541L50.3801 21.4076L50.3136 21.37C48.9503 20.6023 47.3786 19.2971 45.6406 17.4898C44.8137 16.6027 44.213 15.8926 43.7874 15.2997C43.896 15.0453 43.9935 14.844 44.0667 14.698L44.0888 14.6515L44.1066 14.6028C44.3903 13.8772 44.561 13.7268 44.581 13.7113L44.7184 13.6095L44.8182 13.4702C45.0554 13.1383 45.1263 12.7247 45.0132 12.3353C44.8071 11.623 44.0711 11.196 43.0336 10.7735L43.0159 10.7669L42.9982 10.7602C42.3331 10.5169 41.841 10.4041 41.4442 10.4041H41.4376ZM39.5488 22.6132C40.1806 21.8235 40.8767 20.7329 41.4797 19.7241C41.6238 19.8524 41.759 19.994 41.8876 20.1511C42.3819 20.8147 42.8851 21.3899 43.3906 21.8722C43.2465 21.9031 43.0957 21.9407 42.9361 21.9806C41.3977 22.2881 40.3026 22.4872 39.5488 22.6155V22.6132ZM44.53 26.3342C45.0199 26.2103 45.3768 26.0134 45.6362 25.79C45.7071 25.9205 45.7936 26.0378 45.8933 26.1462C45.9909 26.2523 46.1216 26.3674 46.2879 26.4669C46.2613 26.6306 46.2569 26.8187 46.2879 27.0266C46.3056 27.4204 46.3145 28.1106 46.3189 29.0729C45.9842 28.4623 45.2637 28.2256 44.6541 28.0863L44.6253 28.0796L44.5965 28.0752C44.3549 28.0332 44.1376 28.0133 43.9359 28.0133C43.7297 28.0133 43.5479 28.0354 43.3883 28.073C43.3706 28.0088 43.3484 27.9469 43.3218 27.8849C43.1201 27.4314 42.7166 27.1439 42.1514 26.9448C43.0868 26.7611 43.8583 26.562 44.53 26.332V26.3342ZM34.0845 28.0332C35.1086 27.8164 36.1771 27.27 37.3254 26.3806C37.3897 26.551 37.4673 26.7235 37.5604 26.8872C37.0328 27.0045 36.5983 27.1505 36.2392 27.3275C35.8379 27.5133 35.3924 27.7102 35.0975 27.7721C34.7938 27.8274 34.2862 27.9978 33.9492 28.5375C33.9958 28.3628 34.0423 28.1947 34.0845 28.0332ZM33.5391 30.0551C33.5635 29.9666 33.5879 29.8782 33.6101 29.7897C33.6056 29.9335 33.6056 30.0861 33.6167 30.2476C33.5679 30.6613 33.5236 31.0772 33.4837 31.4931L33.4748 31.4776C33.3773 31.3095 33.2731 31.1723 33.1645 31.0617C33.3507 30.8383 33.5081 30.5153 33.5369 30.0529L33.5391 30.0551ZM46.2657 30.4976C46.2857 30.4666 46.3034 30.4356 46.3189 30.4024C46.3189 30.9289 46.3189 31.5063 46.3189 32.1346C46.2768 35.2737 46.2879 37.0413 46.3588 38.2226C46.3766 38.7867 46.3655 39.1407 46.3478 39.3553C46.2391 39.3752 46.1194 39.3862 45.9864 39.3862C45.5874 39.3862 45.0864 39.2933 44.4989 39.1119C44.1398 38.977 43.8849 38.9195 43.6521 38.9195C43.2841 38.9195 42.9516 39.0721 42.7299 39.3309C42.7144 39.1584 42.6967 38.9792 42.6767 38.7912C42.6258 38.2292 42.5859 37.6629 42.5593 37.09C42.8785 37.4528 43.3396 37.685 43.7452 37.8554L43.7851 37.8709L43.825 37.8841C44.1997 38.008 44.5056 38.0678 44.7849 38.0678C45.45 38.0678 45.8157 37.7271 45.9753 37.5236C46.2524 37.1674 46.3411 36.7205 46.2347 36.1918C46.2014 35.4551 46.2014 34.7163 46.2014 33.9973C46.2391 33.1788 46.2391 32.3603 46.2391 31.5661V31.513C46.2059 30.8471 46.2436 30.5794 46.2635 30.4931L46.2657 30.4976ZM37.4739 37.1386C37.5515 37.1077 37.6291 37.0789 37.7067 37.0479C37.986 36.9395 38.2542 36.8356 38.5047 36.7559C38.5114 37.1762 38.507 37.5036 38.4981 37.7558C38.3496 37.674 38.1744 37.5656 37.9771 37.424L37.884 37.3576L37.7776 37.3112C37.6402 37.2515 37.516 37.205 37.403 37.1696C37.4274 37.1585 37.4518 37.1475 37.4761 37.1386H37.4739Z" fill="#E0E0E0"/>
<path d="M61.688 43.3483C61.1205 43.3483 60.6106 42.8483 59.9833 41.678C59.7616 41.2798 59.4956 40.6848 59.786 40.1936C59.9101 39.9857 60.1717 39.7357 60.7237 39.7357C60.9764 39.7357 61.2801 39.7866 61.6458 39.8928C63.1799 39.5764 64.6895 39.3242 66.239 39.1296C66.157 38.9813 66.0639 38.8176 65.9619 38.6429C65.4255 37.6961 64.9644 36.486 64.5853 35.0326C64.3769 34.6786 64.3082 34.36 64.3747 34.0636C64.4168 33.8822 64.5321 33.6256 64.8447 33.4287L64.9666 33.3535L65.1107 33.3468C66.5915 33.2738 68.0723 32.9885 69.5088 32.4974C70.196 32.2606 71.0717 32.035 72.2044 31.8049C72.1313 31.7673 72.0559 31.7275 71.9783 31.6899C71.1625 31.3382 70.3734 30.8161 69.6906 30.179C68.7041 29.1967 68.2829 28.7145 68.4093 28.2831C68.314 28.2654 68.2253 28.2278 68.1477 28.1703C67.9925 28.0707 67.8906 27.9159 67.8617 27.7367C67.8351 27.5663 67.8773 27.3938 67.9814 27.2434C68.3051 26.4226 68.5157 25.6793 68.5955 25.0842C68.5822 24.9626 68.5778 24.8497 68.5844 24.7436C68.4359 24.7767 68.2962 24.8099 68.1677 24.8387C68.1322 24.8475 68.0967 24.8542 68.0635 24.863C68.0635 24.8741 68.0635 24.9515 68.0635 24.9515L68.0502 25.0112C67.7842 26.208 67.6201 27.0752 67.5226 27.8252C67.445 28.2853 67.5226 28.418 67.5248 28.4225L67.547 28.4601L67.5625 28.5021C67.7354 28.9313 67.558 29.3494 67.3408 29.7387L67.3186 29.7808L67.2898 29.8184C66.2945 31.0506 65.1972 31.9819 64.0311 32.5881C63.7385 32.7628 63.5146 32.8402 63.3084 32.8402C63.0646 32.8402 62.854 32.7274 62.7299 32.5328C62.5171 32.1987 62.6545 31.8005 62.8008 31.4908L62.8141 31.462L62.8318 31.4355C63.9092 29.6923 64.6319 28.48 64.8846 27.8384C65.1107 27.1327 65.288 26.3762 65.4233 25.54C65.1861 25.6262 64.9644 25.7191 64.8491 25.801C64.6097 25.9603 64.3792 26.0355 64.1486 26.0355C63.6188 26.0355 63.191 25.666 62.8784 24.9404C62.4616 24.1507 62.2688 23.6065 62.5104 23.1773C62.7565 22.7127 63.3084 22.653 63.5479 22.6265C64.153 22.5402 64.838 22.4008 65.5607 22.2548L65.7181 22.2238C65.7602 21.4651 65.789 20.7505 65.8134 20.0935C65.308 20.2705 64.7294 20.4519 64.0289 20.6554L63.9912 20.6642C63.7474 20.7173 63.5479 20.7417 63.3794 20.7417C62.8407 20.7417 62.6434 20.4585 62.5747 20.2904C62.3685 19.7971 62.8163 19.3303 63.007 19.1378C63.7097 18.3082 64.5787 17.4256 65.594 16.5186C66.7844 15.2908 67.9305 13.7467 69.0034 11.9326C69.1342 11.6384 69.3337 11.3199 69.6086 10.9615C69.7571 10.7137 70.0142 10.5743 70.3224 10.5743C70.7281 10.5743 71.2424 10.8199 72.0404 11.3929C72.6212 11.8198 73.1931 12.333 73.0801 12.9193C73.0446 13.1007 72.9138 13.4192 72.4306 13.5741C71.8564 13.9037 71.2135 14.47 70.5197 15.2532C71.4795 15.0297 72.2665 14.9191 72.8961 14.9191C73.2951 14.9191 73.6276 14.9634 73.9092 15.0519L73.9845 15.0762L74.051 15.1204C75.2548 15.9323 75.769 16.5694 75.7225 17.1866C75.707 17.3946 75.6072 17.7685 75.1195 18.0295C74.9355 18.2065 74.8291 18.6157 74.8291 19.1688V19.2285L74.8158 19.2882C74.7848 19.4232 74.756 19.6179 74.7427 19.8745C74.8912 19.8457 75.0264 19.8214 75.1528 19.8037L75.237 19.7926L75.3212 19.8059C75.5385 19.8413 75.8422 19.9652 75.9752 20.359C76.2279 19.7882 76.423 19.2905 76.4851 18.983L76.4917 18.952L76.5006 18.9232C76.7755 18.0693 76.7644 16.9256 76.4718 15.6093C76.2434 15.2266 76.3255 14.9235 76.3986 14.7687C76.6358 14.2798 77.2831 14.178 77.8373 14.1515C78.0834 14.0962 78.6974 13.9192 80.1516 13.3485C80.9497 13.0653 81.6679 12.9259 82.3064 12.9259C82.732 12.9259 83.1288 12.9879 83.4835 13.1117L83.5278 13.1272L83.5677 13.1494C84.654 13.7444 85.1173 14.1957 85.1638 14.709C85.1793 14.8837 85.1549 15.2222 84.798 15.512L84.7692 15.5363L84.7382 15.5562C84.3347 15.804 83.9845 16.2708 83.6941 16.9433C83.366 17.6291 83.4613 17.972 83.6276 18.2043C83.7007 18.2352 83.8249 18.2662 84.031 18.2662C84.4345 18.2662 84.9909 18.149 85.687 17.9189L85.7069 17.9122L85.7269 17.9078C85.8399 17.8791 85.9463 17.8658 86.0483 17.8658C86.3964 17.8658 86.6136 18.0251 86.7333 18.16C87.0392 18.5007 87.0237 19.0007 86.986 19.3458C86.884 20.255 86.372 20.8722 85.5784 21.0425C84.7182 21.3058 84 21.4606 83.4015 21.5071C83.8759 21.6774 84.266 21.8124 84.5143 21.881L84.5453 21.8898L84.5742 21.9009C85.3123 22.1951 85.4897 22.7061 85.5296 22.9848L85.534 23.0247V23.0645C85.534 23.4184 85.3301 23.706 84.9266 23.9184C84.8557 23.9958 84.5431 24.4007 83.7451 26.1726C85.0086 26.6638 86.1946 27.1681 87.2831 27.6792L87.3208 27.6969L87.354 27.719C87.5136 27.8252 87.7818 28.0044 87.9791 29.6392C88.0545 30.5727 88.0434 31.4665 87.487 31.8337C87.2609 32.0173 87.0259 32.1102 86.7887 32.1102C86.5959 32.1102 86.3165 32.0483 86.066 31.7607C85.8976 31.5926 85.6825 31.4023 85.4121 31.1612L85.2259 30.9931C83.9424 30.2365 82.7808 29.5264 81.7544 28.8959L81.628 28.8184C80.9098 29.3804 80.0696 29.7918 79.1208 30.0462C77.9127 30.3272 76.9861 30.4621 76.2678 30.4621C75.8932 30.4621 75.5806 30.4267 75.3102 30.3515C75.1616 30.3117 74.9932 30.2674 74.8336 30.2099C74.8801 30.6767 74.9156 31.055 74.9355 31.3581C75.2547 31.316 75.6294 31.2696 76.0816 31.2165C77.2743 31.0572 78.4336 30.9776 79.5221 30.9776C81.1182 30.9776 82.6389 31.1523 84.0421 31.4974L84.0621 31.5019L84.082 31.5085C85.8222 32.077 86.6491 32.6544 86.7621 33.3778C86.8109 33.6853 86.7422 34.1432 86.1592 34.5835C85.4919 35.3268 84.8734 36.2338 84.3636 37.2138L84.3503 37.2403L84.3325 37.2647C84.2705 37.3576 84.215 37.4527 84.1707 37.55H84.9798C87.4183 37.55 88.857 37.4726 89.256 37.32L89.2804 37.3111C89.3691 37.2824 89.4622 37.2669 89.5531 37.2669C89.8679 37.2669 90.3112 37.4372 90.6238 38.2491C90.7413 38.5743 90.912 38.8398 91.107 39.0101C91.7189 39.4879 91.7122 40.4458 91.6524 41.1272V41.1515L91.6457 41.1759C91.4772 42.1382 91.0915 42.6271 90.4996 42.6271C90.3201 42.6271 90.1383 42.574 89.9565 42.47C86.8951 41.6095 83.3217 41.1736 79.3403 41.1736C78.3671 41.1736 77.3541 41.2002 76.3277 41.2511C70.2359 41.6272 65.4277 42.3085 62.0427 43.2775C61.9274 43.3283 61.8077 43.3549 61.6813 43.3549L61.688 43.3483ZM68.744 35.9772C68.7041 37.1364 68.8704 38.0721 69.2295 38.7159C69.8569 38.623 70.5219 38.5455 71.2113 38.4814C71.198 38.4106 71.1847 38.3376 71.1758 38.2602C70.8721 37.6518 70.7059 36.9063 70.6638 35.9838C70.646 35.694 70.6283 35.4307 70.6128 35.2029C69.2628 35.6055 68.8571 35.8776 68.744 35.9772ZM74.02 34.3844C73.8116 35.9484 73.7606 37.2713 73.867 38.2159C74.2461 38.1739 74.6651 38.1296 75.1461 38.081C75.257 37.6452 75.3722 37.07 75.4897 36.3643C75.6604 35.4241 75.7779 34.672 75.8444 34.0835C75.1882 34.1831 74.5764 34.2848 74.0178 34.3844H74.02ZM79.4157 34.0813C79.3026 34.422 79.1984 34.7428 79.0987 35.0502C79.0033 35.3467 78.9102 35.6321 78.8194 35.9064L78.8127 35.9285L78.8038 35.9506C78.4735 36.7094 78.2762 37.3156 78.2142 37.7558C78.826 37.7071 79.4334 37.6651 80.0452 37.6341C80.759 36.1342 81.0583 34.8578 80.9408 33.8335C80.564 33.7428 80.1095 33.6964 79.5819 33.6964C79.5686 33.6964 79.5575 33.6964 79.5442 33.6964C79.5265 33.8225 79.4844 33.9508 79.4179 34.0791L79.4157 34.0813ZM74.756 23.5158C74.6872 25.4161 74.685 27.1593 74.7515 28.8317C75.104 28.7034 75.5895 28.6193 76.2324 28.5773C76.9151 28.4357 77.6467 28.1614 78.4713 27.7345C78.6154 27.6371 78.7972 27.511 78.9923 27.3562C77.8573 26.7146 76.8531 26.1527 75.9974 25.6793L75.9774 25.6683L75.9597 25.655C75.4942 25.3453 75.4786 24.9935 75.5119 24.8121C75.5895 24.3918 75.9841 24.2259 76.2324 24.1551C76.0373 23.7569 75.9974 23.414 76.1082 23.1109C76.1193 23.0822 76.1304 23.0512 76.1459 23.0202C76.004 23.0755 75.8777 23.1021 75.758 23.1021C75.5119 23.1021 75.2946 22.9826 75.1772 22.7835C75.1107 22.6685 75.0796 22.5424 75.0863 22.4052C74.9976 22.4606 74.9045 22.5092 74.8047 22.5535C74.787 22.5645 74.7715 22.5734 74.7538 22.5822V23.5136L74.756 23.5158ZM69.429 27.7831C69.5243 27.8141 69.6241 27.8606 69.7327 27.9225L69.7615 27.938L69.7881 27.9579C70.6216 28.5729 71.1492 28.7012 71.4441 28.7012C71.4751 28.7012 71.5039 28.7012 71.5328 28.6968C71.5704 28.6326 71.668 28.418 71.6968 27.8384C71.6281 26.9934 71.617 25.8519 71.6591 24.1507C71.6591 24.0379 71.6591 23.925 71.6591 23.8144C71.2313 23.956 70.8034 24.091 70.3756 24.2237C70.564 24.352 70.7657 24.5135 70.9808 24.7104L71.0007 24.7281L71.0185 24.748C71.4374 25.2081 71.6613 25.5444 71.566 25.905C71.5194 26.0864 71.3931 26.2324 71.2224 26.3076C71.1603 26.3408 71.1337 26.3673 71.1138 26.3872L71.0872 26.4116C70.513 26.9115 69.9677 27.3628 69.4312 27.7809L69.429 27.7831ZM78.6442 24.5843C79.3226 24.7546 80.0031 24.9404 80.6792 25.1418C81.0339 24.3719 81.1071 23.9029 81.0761 23.6175C81.0539 23.6175 81.0273 23.6131 81.0007 23.6131C80.7058 23.6131 80.0297 23.7503 78.642 24.5843H78.6442ZM80.677 16.2929C80.4199 16.2929 79.9632 16.3947 79.2561 16.8725L79.225 16.8924L79.1918 16.9079C79.1319 16.9389 79.0521 17.138 79.0765 17.5649V17.5981C79.0765 18.2109 79.1497 18.8082 79.2893 19.3723C79.4024 19.7661 79.3115 20.2727 79.0189 20.8611L78.9967 20.9076L78.9657 20.9496C78.6886 21.3124 78.3982 21.6332 78.0922 21.9097C79.3625 21.4075 80.5063 21.1377 81.5549 21.0912C81.4241 20.985 81.3132 20.8589 81.2246 20.7129C80.6105 19.7063 80.5019 18.5781 80.9076 17.4521C81.1802 16.6026 81.0428 16.3836 81.0406 16.3814L81.0251 16.3748H81.0162C80.9187 16.3195 80.8078 16.2951 80.677 16.2951V16.2929ZM71.5594 19.9873C71.229 20.3125 70.8588 20.6554 70.4532 21.0116C70.4665 21.0071 70.5197 20.9939 70.5197 20.9939C70.8322 20.9209 71.1891 20.8279 71.5882 20.7107C71.5749 20.4828 71.566 20.2417 71.5616 19.9873H71.5594ZM68.8061 18.5693C68.764 18.8148 68.7019 19.3657 68.631 20.5802C68.9768 19.8037 69.1785 19.1644 69.245 18.6379C69.2295 18.5206 69.2206 18.3857 69.2317 18.2507C68.9502 18.3834 68.846 18.5007 68.8083 18.5693H68.8061ZM71.0007 17.8348C71.1958 17.9698 71.3864 18.1313 71.5727 18.3149L71.5882 18.3304C71.5948 18.1423 71.566 18.0162 71.5084 17.9543C71.4374 17.8769 71.2601 17.8348 71.0229 17.8348C71.0162 17.8348 71.0074 17.8348 71.0007 17.8348Z" fill="black"/>
<path d="M70.3202 11.123C70.5906 11.123 71.0517 11.362 71.7146 11.8354C72.5946 12.4836 72.7853 12.9039 72.2111 13.0565C71.5217 13.4392 70.7968 14.0874 70.032 14.9657C69.4579 15.501 69.0367 15.9589 68.7707 16.3018C70.5951 15.7421 71.9651 15.47 72.8983 15.47C73.2375 15.47 73.519 15.5054 73.7429 15.5762C75.1572 16.5297 75.5407 17.2177 74.8136 17.5606C74.47 17.8283 74.2772 18.3614 74.2772 19.1644C74.1996 19.5073 74.1619 19.9653 74.1996 20.5382C74.6208 20.463 74.9644 20.3856 75.2326 20.348C75.4632 20.3856 75.5385 20.6156 75.4632 21.1112C75.3102 21.5315 75.0043 21.8744 74.5454 22.0646C74.4301 22.1421 74.3149 22.1797 74.2018 22.2173V23.5159C74.1264 25.6152 74.1264 27.677 74.2395 29.7742C74.3548 30.9201 74.4301 31.6435 74.3924 31.9886C74.889 31.9134 75.5008 31.836 76.1526 31.7586C77.3275 31.6015 78.4514 31.5218 79.5288 31.5218C81.0827 31.5218 82.5392 31.6878 83.9158 32.024C86.1348 32.7496 86.7466 33.4752 85.789 34.161C85.0619 34.9618 84.4124 35.9175 83.8759 36.9462C83.6453 37.2891 83.4924 37.6718 83.4547 38.0921H84.9843C87.4693 38.0921 88.9612 38.0169 89.46 37.8244C89.4932 37.8134 89.5243 37.809 89.5575 37.809C89.7548 37.809 89.9455 38.0103 90.1095 38.435C90.2625 38.8553 90.493 39.1982 90.759 39.4283C91.065 39.6584 91.1802 40.1915 91.1026 41.0697C90.9874 41.7268 90.7879 42.063 90.5019 42.063C90.4066 42.063 90.3002 42.0254 90.1849 41.948C87.0437 41.0565 83.4281 40.6096 79.3425 40.6096C78.3561 40.6096 77.343 40.6362 76.3011 40.687C70.1052 41.0697 65.2859 41.7555 61.8432 42.7488C61.7922 42.7776 61.739 42.7908 61.6836 42.7908C61.3621 42.7908 60.9565 42.3241 60.4665 41.4126C60.052 40.6693 60.1362 40.2844 60.717 40.2844C60.9409 40.2844 61.2402 40.3419 61.6148 40.4592C63.2597 40.1163 65.0575 39.811 67.0837 39.5809C66.9307 39.238 66.7002 38.8177 66.4342 38.3598C65.9376 37.4815 65.4787 36.298 65.0952 34.8092C64.827 34.3889 64.827 34.0836 65.1329 33.8933C66.7002 33.8159 68.232 33.5106 69.684 33.0151C70.6793 32.6722 72.0559 32.3669 73.8139 32.0616C73.355 31.7939 72.8185 31.4887 72.2067 31.1834C71.4042 30.8405 70.6771 30.3427 70.0653 29.772C69.2628 28.9712 68.8793 28.5132 68.9569 28.3982C68.9946 28.323 69.0522 28.2832 69.1342 28.2832C69.2162 28.2832 69.3204 28.3208 69.4556 28.3982C70.2382 28.9756 70.8988 29.2499 71.4397 29.2499C71.5062 29.2499 71.5727 29.2455 71.6348 29.2366C72.0183 29.199 72.2089 28.7013 72.2466 27.8252C72.169 26.9094 72.169 25.6882 72.2089 24.1618C72.2089 23.7791 72.2089 23.3986 72.1712 23.0557C70.8323 23.5136 69.5709 23.8964 68.4603 24.2016C68.1167 24.2791 67.8108 24.3543 67.6179 24.3919C67.5403 24.5821 67.5027 24.7348 67.5027 24.8874C67.2721 25.9183 67.0815 26.8718 66.9662 27.75C66.8908 28.208 66.9285 28.5132 67.0438 28.7035C67.1214 28.8937 67.0438 29.1238 66.8531 29.4667C65.8977 30.6502 64.8647 31.5285 63.7541 32.0992C63.5501 32.2209 63.3994 32.2806 63.3018 32.2806C63.1245 32.2806 63.1223 32.086 63.2952 31.7165C64.4036 29.9224 65.1307 28.7013 65.3989 28.0133C65.7048 27.0598 65.9354 25.9913 66.0883 24.7304C65.3235 24.9604 64.7871 25.1507 64.5211 25.3409C64.3881 25.4294 64.2617 25.4737 64.142 25.4737C63.8472 25.4737 63.59 25.2082 63.3728 24.6927C63.0292 24.0446 62.8762 23.6243 62.9893 23.434C63.0646 23.2814 63.2575 23.2039 63.6011 23.1663C64.4036 23.0513 65.2836 22.861 66.2391 22.6708C66.3144 21.412 66.3543 20.2661 66.392 19.2728C65.6272 19.5781 64.7849 19.8458 63.8671 20.1135C63.6632 20.1577 63.4969 20.1798 63.3728 20.1798C62.956 20.1798 62.9693 19.9431 63.4082 19.5029C64.0201 18.7773 64.8624 17.899 65.9708 16.908C67.1568 15.6868 68.3428 14.1228 69.4889 12.1761C69.6042 11.9084 69.7948 11.6031 70.063 11.2602C70.1096 11.1673 70.1938 11.1186 70.3135 11.1186M67.966 22.2571C68.7684 22.027 69.6862 21.7992 70.6439 21.5315C71.1404 21.4165 71.6769 21.2638 72.1734 21.1112C72.0958 20.3104 72.0958 19.3945 72.1357 18.4388C72.1978 17.6535 71.821 17.2818 71.0229 17.2818C70.8522 17.2818 70.6616 17.2995 70.4532 17.3327C69.1918 17.5628 68.4647 17.9057 68.2741 18.4012C68.1965 18.7839 68.1211 19.6998 68.0435 21.1488C68.0059 21.4917 67.966 21.8744 67.966 22.2549M77.5669 38.3642C78.4846 38.2868 79.4401 38.2116 80.3977 38.174C81.3532 36.2648 81.699 34.6632 81.4308 33.4022C80.9431 33.2297 80.3268 33.1456 79.5797 33.1456C79.3315 33.1456 79.0677 33.1545 78.7906 33.1744C79.0211 33.3646 79.0588 33.5947 78.9058 33.8624C78.6753 34.5504 78.4846 35.1609 78.294 35.7317C77.9105 36.6099 77.6822 37.3355 77.6445 37.8687C77.6068 38.0213 77.5691 38.174 77.5691 38.3642M76.4585 33.4398C76.3055 33.4398 76.1903 33.4398 76.1526 33.4774C75.1196 33.6301 74.2018 33.7827 73.3993 33.9354C73.4769 34.0128 73.5146 34.1256 73.4769 34.2783C73.2464 35.9949 73.2087 37.3709 73.324 38.3244C73.324 38.477 73.3616 38.6297 73.4392 38.8199C74.0887 38.7425 74.8159 38.6673 75.5806 38.5899C75.7336 38.0943 75.8866 37.3687 76.0395 36.4529C76.2701 35.1941 76.423 34.1632 76.4607 33.4376M68.9613 39.3177C69.9167 39.165 70.9498 39.05 71.9828 38.9748C71.8298 38.7447 71.7522 38.4394 71.7146 38.0965C71.4086 37.5236 71.2557 36.798 71.218 35.9595C71.1803 35.3114 71.1426 34.8136 71.1027 34.4707C70.8722 34.5459 70.6815 34.6234 70.4909 34.661C69.0766 35.0813 68.3118 35.4618 68.1965 35.8069C68.1211 37.3709 68.3871 38.5545 68.9613 39.3177ZM82.3086 13.4746C82.6722 13.4746 83.0047 13.5255 83.304 13.6295C84.4899 14.2777 84.8712 14.7356 84.4523 15.0807C83.9557 15.386 83.5345 15.9213 83.1909 16.7221C82.8074 17.523 82.8473 18.1335 83.2685 18.6313C83.4569 18.7552 83.7141 18.8171 84.0377 18.8171C84.5099 18.8171 85.1217 18.6888 85.8688 18.441C85.9375 18.4233 85.9996 18.4145 86.055 18.4145C86.3787 18.4145 86.5072 18.6954 86.4407 19.2795C86.3653 19.9675 86.0195 20.3856 85.4454 20.5006C84.439 20.8103 83.6343 20.9652 83.0224 20.9652C82.3552 20.9652 81.9185 20.7838 81.699 20.4254C81.1625 19.5471 81.0872 18.5937 81.4308 17.6402C81.7367 16.6868 81.699 16.0762 81.2778 15.8837C81.0982 15.7886 80.8987 15.7421 80.6771 15.7421C80.1894 15.7421 79.6019 15.9722 78.9435 16.4191C78.6376 16.5717 78.4846 16.9544 78.5223 17.6026C78.5223 18.2508 78.5999 18.9012 78.7529 19.5117C78.8305 19.7794 78.7529 20.1599 78.5223 20.6179C77.7952 21.5713 76.9551 22.2217 75.9974 22.4872C75.8977 22.5314 75.8156 22.5535 75.7558 22.5535C75.6117 22.5535 75.5939 22.4252 75.7292 22.1819C76.4563 20.6931 76.9152 19.6622 77.0304 19.0892C77.3364 18.1358 77.3363 16.8748 76.9927 15.386C76.6868 14.9657 76.9927 14.7378 77.9105 14.698C78.294 14.6205 79.0965 14.3551 80.3578 13.8573C81.0827 13.6007 81.7345 13.4724 82.3086 13.4724M70.0298 17.992C70.0741 17.992 70.1273 18.0008 70.185 18.0207C70.4909 18.1358 70.8345 18.3636 71.1803 18.7087C71.4485 19.0914 71.5638 19.3193 71.5239 19.3569C71.371 19.3945 71.2934 19.4321 71.2557 19.5095C70.6815 20.0825 69.9544 20.7307 69.1143 21.4187C69.0611 21.4452 69.0056 21.4718 68.9657 21.4718C68.948 21.4718 68.9347 21.4673 68.9236 21.4563C68.846 21.4187 68.846 21.3412 68.9236 21.266C69.4202 20.2351 69.7261 19.3569 69.8037 18.6335C69.7394 18.222 69.8081 17.9942 70.0298 17.9942M81.8719 21.6377C81.9805 21.6377 82.0892 21.6399 82.1956 21.6465C83.2286 22.0292 83.9557 22.2947 84.3747 22.4097C84.7582 22.5624 84.9488 22.7925 84.9865 23.0579C84.9865 23.2106 84.8712 23.3256 84.6429 23.4406C84.4146 23.5557 83.9158 24.4339 83.151 26.1506C83.0734 26.228 82.998 26.3408 82.9604 26.4559C84.3747 26.9912 85.7513 27.562 87.0526 28.1726C87.1678 28.25 87.3208 28.7455 87.4361 29.699C87.5137 30.6524 87.4361 31.2254 87.1678 31.3781C87.0348 31.4931 86.9107 31.5506 86.7954 31.5506C86.6801 31.5506 86.5759 31.4931 86.4806 31.3781C86.2501 31.148 85.9442 30.8825 85.5629 30.5374C84.071 29.6592 82.7719 28.8583 81.5859 28.1327C80.8588 28.7809 79.9788 29.2388 78.9856 29.5065C77.8662 29.7676 76.9573 29.9025 76.2767 29.9025C75.9575 29.9025 75.6871 29.8737 75.4676 29.8118C74.7405 29.6216 74.5498 29.4689 74.9311 29.3539C75.237 29.2388 75.6959 29.1636 76.3078 29.1238C77.0725 28.9712 77.875 28.6659 78.7551 28.208C79.0987 27.9779 79.5199 27.6726 79.9411 27.2545C78.5268 26.4537 77.3031 25.7657 76.2701 25.1927C75.9265 24.9626 76.0018 24.7724 76.5006 24.6574C77.9925 24.9626 79.4844 25.3454 80.9763 25.8033C81.5882 24.6197 81.7788 23.7813 81.5505 23.2084C81.413 23.1088 81.2313 23.0579 81.0096 23.0579C80.298 23.0579 79.1541 23.5667 77.6112 24.5821C77.5181 24.633 77.4317 24.6596 77.3497 24.6596C77.128 24.6596 76.9484 24.4649 76.8088 24.0468C76.5028 23.5114 76.5405 23.1685 76.9617 23.0159C78.8438 22.0934 80.462 21.6333 81.8786 21.6333M69.4512 24.4184C69.4889 24.4184 69.5288 24.4229 69.5731 24.4317C69.8414 24.5091 70.185 24.737 70.6062 25.1197C70.9897 25.54 71.1027 25.7679 70.9897 25.8077C70.8367 25.8829 70.7591 25.9603 70.7214 25.998C70.1096 26.5333 69.4202 27.1041 68.6554 27.677C68.6111 27.7213 68.5667 27.7412 68.529 27.7412C68.5024 27.7412 68.4803 27.7323 68.4647 27.7168C68.3872 27.6792 68.3872 27.6018 68.4647 27.5266C68.8482 26.5731 69.0766 25.7325 69.1542 25.0843C69.0877 24.6507 69.1963 24.4206 69.4534 24.4206M70.3202 10.0169C69.8281 10.0169 69.4002 10.2492 69.1497 10.643C68.866 11.0146 68.6554 11.3531 68.5091 11.6739C67.4672 13.4326 66.3566 14.928 65.2083 16.116C64.1885 17.0319 63.3085 17.9212 62.5969 18.7618C61.7168 19.6644 61.9762 20.2904 62.0626 20.4984C62.1402 20.6842 62.4639 21.2904 63.3794 21.2904C63.5878 21.2904 63.8272 21.2616 64.111 21.1997L64.1486 21.1908L64.1863 21.1798C64.5676 21.0691 64.9112 20.9652 65.2282 20.8634C65.2149 21.1532 65.2016 21.4541 65.1861 21.7594C64.5743 21.8832 63.9935 21.9961 63.4659 22.0735C63.1799 22.1045 62.3974 22.2062 62.0205 22.9075C61.6259 23.6132 61.9717 24.4118 62.3752 25.175C62.8829 26.3386 63.6166 26.5842 64.1464 26.5842C64.3238 26.5842 64.4989 26.5554 64.6696 26.4979C64.5787 26.8983 64.4745 27.2788 64.3592 27.6461C64.0866 28.3208 63.222 29.741 62.3575 31.1391L62.3242 31.1944L62.2976 31.252C62.189 31.4842 61.8587 32.1921 62.2621 32.8271C62.4883 33.1788 62.8784 33.3912 63.3085 33.3912C63.6166 33.3912 63.9225 33.2916 64.2994 33.0704C65.5297 32.4289 66.6802 31.4511 67.7221 30.1635L67.782 30.0905L67.8285 30.0065C67.9194 29.8428 68.0635 29.5862 68.1389 29.2765C68.212 29.3848 68.2807 29.4711 68.3273 29.5286C68.5357 29.7853 68.8416 30.1127 69.2872 30.5573L69.3005 30.5706L69.3138 30.5839C69.7194 30.9622 70.1606 31.3028 70.6217 31.5949C70.1318 31.7187 69.7017 31.8448 69.3271 31.9753C67.9416 32.4488 66.5117 32.7231 65.0841 32.7939L64.7959 32.8071L64.5521 32.9598C64.0755 33.2562 63.8981 33.6566 63.8339 33.942C63.7408 34.3557 63.8183 34.7915 64.0666 35.2428C64.4257 36.6011 64.858 37.7603 65.3546 38.6894C64.1176 38.862 62.8984 39.0721 61.6658 39.3243C61.3067 39.2292 60.9964 39.1827 60.7237 39.1827C59.868 39.1827 59.469 39.6407 59.3094 39.9128C58.8283 40.7269 59.3293 41.6383 59.5 41.9458C60.021 42.9125 60.6882 43.8992 61.6902 43.8992C61.8764 43.8992 62.0626 43.8616 62.2355 43.7908C65.5785 42.8373 70.3335 42.1648 76.3698 41.7931C77.3851 41.7423 78.3893 41.7179 79.3492 41.7179C83.2552 41.7179 86.7555 42.1405 89.7548 42.9767C90.0009 43.1072 90.2536 43.1713 90.5085 43.1713C91.0162 43.1713 91.9118 42.9236 92.2 41.2622L92.2088 41.2158L92.2133 41.1693C92.2842 40.3618 92.282 39.2248 91.4728 38.5788C91.4063 38.5169 91.2667 38.3642 91.1581 38.0611L91.1536 38.0523L91.1492 38.0434C90.7014 36.8798 89.9632 36.7073 89.562 36.7073C89.4112 36.7073 89.2605 36.7316 89.1142 36.7803L89.0898 36.7891L89.0654 36.798C88.9036 36.8555 88.1876 36.9882 85.1195 36.9904C85.5429 36.2493 86.0306 35.5636 86.5449 34.984C87.3452 34.3557 87.374 33.6566 87.3164 33.2872C87.2787 33.0483 87.1922 32.8293 87.0659 32.6324C87.3274 32.5837 87.5802 32.4642 87.8196 32.2762C88.5954 31.7453 88.6198 30.637 88.5378 29.6127V29.5906L88.5334 29.5685C88.3427 27.9889 88.0723 27.5244 87.6644 27.2523L87.5957 27.2058L87.5203 27.1704C86.5804 26.728 85.5651 26.2922 84.4944 25.863C84.9666 24.8542 85.206 24.4693 85.2991 24.3366C85.9486 23.9494 86.0927 23.434 86.0927 23.0557V22.9761L86.0816 22.8986C86.0373 22.5889 85.8799 22.0801 85.339 21.6819C85.4653 21.6465 85.5917 21.6089 85.7247 21.5691C86.7378 21.3412 87.4139 20.5338 87.5402 19.3989C87.5691 19.1401 87.6577 18.3481 87.1501 17.784C86.873 17.4765 86.4828 17.3062 86.0506 17.3062C85.9043 17.3062 85.7513 17.3261 85.5939 17.3659L85.5518 17.377L85.5119 17.3902C84.7183 17.6535 84.2683 17.711 84.0311 17.711C84.0311 17.6048 84.0688 17.4478 84.1862 17.1978L84.1951 17.1779L84.204 17.158C84.4478 16.5916 84.7249 16.2089 85.0286 16.0231L85.0929 15.9833L85.1505 15.9368C85.554 15.6072 85.7602 15.1404 85.7158 14.6537C85.6338 13.7622 84.7626 13.1671 83.8338 12.6605L83.754 12.6163L83.6675 12.5853C83.253 12.4415 82.7963 12.3663 82.3064 12.3663C81.6059 12.3663 80.8256 12.5167 79.9854 12.8154L79.9677 12.822L79.9499 12.8287C78.56 13.3751 77.9748 13.5454 77.762 13.5963C77.2854 13.6206 76.29 13.718 75.8999 14.521C75.8023 14.7201 75.6361 15.2134 75.9464 15.8019C75.9775 15.9457 76.0041 16.085 76.0284 16.2222C75.6804 15.6138 75.0176 15.1006 74.3592 14.6559L74.2262 14.5675L74.0732 14.5188C73.7363 14.4126 73.3506 14.3595 72.8917 14.3595C72.6722 14.3595 72.4372 14.3706 72.1867 14.3971C72.3486 14.271 72.506 14.1626 72.6567 14.0719C73.3905 13.8109 73.5744 13.2534 73.6188 13.0145C73.8116 12.0079 72.8008 11.2624 72.3685 10.9439L72.3619 10.9394L72.3552 10.935C71.4441 10.2802 70.8522 10.0125 70.3135 10.0125L70.3202 10.0169ZM79.6307 17.2885C80.032 17.023 80.3157 16.9168 80.4886 16.8726C80.4665 16.9788 80.4332 17.1137 80.38 17.2818C79.9699 18.4322 80.032 19.5825 80.5529 20.6356C80.2581 20.682 79.9566 20.744 79.6485 20.8214C79.8945 20.2307 79.9544 19.6932 79.828 19.2242C79.6995 18.7087 79.6352 18.1601 79.6352 17.5982V17.534C79.6263 17.4212 79.6285 17.3416 79.6352 17.2885H79.6307ZM75.4942 18.4499C75.789 18.2663 76.0107 18.0229 76.1437 17.7398C76.126 18.1158 76.0706 18.4543 75.9752 18.7507L75.9553 18.8105L75.942 18.8724C75.9176 18.9985 75.86 19.1733 75.7846 19.3768C75.6228 19.2994 75.4809 19.2706 75.4144 19.2596L75.3856 19.2551V19.1689C75.3856 18.7286 75.4587 18.5251 75.4942 18.4543V18.4499ZM75.2902 24.0755C75.2947 23.9118 75.3013 23.7459 75.3058 23.5778C75.3678 23.6021 75.4321 23.6198 75.5008 23.6331C75.5097 23.7105 75.523 23.788 75.5407 23.8676C75.4432 23.9317 75.359 24.0025 75.2902 24.0733V24.0755ZM80.1561 24.414C80.2514 24.372 80.3379 24.3388 80.4155 24.31C80.4 24.3609 80.38 24.414 80.3578 24.4715C80.2891 24.4516 80.2226 24.4339 80.1539 24.414H80.1561ZM75.2814 28.1283C75.2592 27.3607 75.2526 26.5776 75.2592 25.7701C75.359 25.8873 75.4853 26.0046 75.6516 26.1152L75.6893 26.1395L75.7292 26.1617C76.3765 26.52 77.1125 26.9315 77.9238 27.3894C77.2787 27.7036 76.6979 27.9137 76.157 28.0288C75.8311 28.0509 75.5407 28.0841 75.2814 28.1283ZM70.4044 27.7124C70.6328 27.5266 70.8633 27.3341 71.0983 27.1328C71.1072 27.3916 71.1227 27.6284 71.1382 27.8474C71.1338 27.9381 71.1271 28.0177 71.1182 28.0841C70.9453 28.0243 70.7103 27.9159 70.4022 27.7146L70.4044 27.7124ZM79.7859 30.4202C80.4687 30.1879 81.096 29.8737 81.6613 29.48C82.3862 29.9246 83.1776 30.4069 84.0288 30.9157C82.701 30.6038 81.2756 30.4356 79.7859 30.418V30.4202ZM79.93 34.2915C79.9344 34.2805 79.9411 34.2694 79.9455 34.2584C80.1096 34.2672 80.2647 34.2805 80.4088 34.2982C80.4044 35.0791 80.1561 36.0281 79.6795 37.0988C79.429 37.1121 79.1807 37.1298 78.9324 37.1453C79.0167 36.8842 79.1386 36.5635 79.3115 36.1697L79.3315 36.1255L79.347 36.079C79.4401 35.8025 79.531 35.5171 79.6285 35.2185C79.7238 34.9242 79.8236 34.6167 79.9322 34.2915H79.93ZM74.5188 34.8579C74.7383 34.8203 74.9666 34.7826 75.1994 34.745C75.1351 35.1808 75.0508 35.683 74.9466 36.2582V36.267L74.9444 36.2759C74.8602 36.7803 74.7782 37.2139 74.6984 37.5722C74.5875 37.5833 74.4811 37.5944 74.3769 37.6054C74.3459 36.8577 74.3947 35.9131 74.5188 34.8601V34.8579ZM69.2916 36.2825C69.4379 36.2051 69.6884 36.0923 70.1074 35.9463C70.1074 35.9706 70.1096 35.9949 70.1118 36.0193C70.1473 36.7803 70.2648 37.4351 70.4665 38.0036C70.1584 38.0368 69.8547 38.0744 69.5598 38.1142C69.4069 37.7072 69.2894 37.1232 69.2938 36.2825H69.2916Z" fill="#E0E0E0"/>
</svg>
