<svg width="18" height="18" viewBox="0 0 18 18" fill="none" xmlns="http://www.w3.org/2000/svg">
<g clip-path="url(#clip0_53_180)">
<path d="M16.1351 12.1715C16.1069 12.1481 12.913 9.87568 12.0506 10.0147C11.6346 10.0882 11.397 10.3721 10.9203 10.94C10.8436 11.0316 10.6587 11.2505 10.516 11.4066C10.2147 11.3084 9.92077 11.1888 9.63654 11.0486C8.16931 10.3343 6.98384 9.14884 6.26953 7.68161C6.12937 7.39739 6.00975 7.10349 5.91158 6.80217C6.06818 6.65889 6.28764 6.47405 6.38139 6.39521C6.94656 5.92114 7.22994 5.68303 7.30345 5.26648C7.45419 4.40409 5.1701 1.21126 5.14666 1.1825C5.04265 1.03498 4.90717 0.912396 4.75002 0.823596C4.59287 0.734796 4.41796 0.681996 4.23793 0.669006C3.31215 0.669006 0.669037 4.09727 0.669037 4.67522C0.669037 4.70878 0.71751 8.12 4.92401 12.3989C9.19816 16.6006 12.6094 16.6491 12.6429 16.6491C13.2204 16.6491 16.6491 14.006 16.6491 13.0802C16.636 12.9002 16.5831 12.7253 16.4942 12.5681C16.4053 12.411 16.2827 12.2755 16.1351 12.1715ZM12.5838 15.5806C12.1215 15.5412 9.25568 15.1635 5.67614 11.6473C2.14294 8.05022 1.77486 5.17966 1.73811 4.73488C2.43632 3.63899 3.27954 2.64256 4.24485 1.7727C4.26616 1.79401 4.29439 1.82597 4.33061 1.86751C5.07093 2.87811 5.70867 3.95999 6.23438 5.0971C6.06342 5.26908 5.88273 5.4311 5.69318 5.58236C5.39925 5.80632 5.12934 6.06016 4.88779 6.33982C4.84691 6.39716 4.81782 6.46205 4.80218 6.53071C4.78655 6.59938 4.78469 6.67046 4.7967 6.73985C4.90943 7.22817 5.08208 7.70068 5.31073 8.14663C6.12991 9.82882 7.48922 11.1879 9.17152 12.0069C9.61739 12.2359 10.0899 12.4087 10.5783 12.5215C10.6477 12.5337 10.7188 12.532 10.7875 12.5164C10.8562 12.5007 10.9211 12.4715 10.9783 12.4304C11.259 12.1878 11.5137 11.9169 11.7385 11.6218C11.9057 11.4226 12.1289 11.1568 12.2136 11.0816C13.3536 11.6068 14.4379 12.2454 15.4501 12.9875C15.4943 13.0248 15.5257 13.0536 15.5465 13.0722C14.6766 14.0379 13.68 14.8813 12.5838 15.5795V15.5806Z" fill="white"/>
<path d="M12.3878 8.12641H13.4531C13.4518 6.99662 13.0025 5.91346 12.2036 5.11458C11.4047 4.31569 10.3215 3.86632 9.19174 3.86505V4.93039C10.0391 4.93124 10.8515 5.26823 11.4507 5.86742C12.0499 6.46661 12.3869 7.27904 12.3878 8.12641Z" fill="white"/>
<path d="M15.0511 8.12644H16.1165C16.1143 6.29054 15.3841 4.53044 14.0859 3.23226C12.7877 1.93408 11.0276 1.20384 9.19174 1.20172V2.26706C10.7452 2.26889 12.2345 2.88681 13.3329 3.98526C14.4314 5.08371 15.0493 6.573 15.0511 8.12644Z" fill="white"/>
</g>
<defs>
<clipPath id="clip0_53_180">
<rect width="17.0455" height="17.0455" fill="white" transform="translate(0.136353 0.136353)"/>
</clipPath>
</defs>
</svg>
