<svg width="110" height="56" viewBox="0 0 110 56" fill="none" xmlns="http://www.w3.org/2000/svg">
<g clip-path="url(#clip0_18_159)">
<path d="M9.15631 1.93793H99.314C104.362 1.93793 108.458 6.02388 108.458 11.0545V47.2661C108.458 51.0158 105.405 54.0598 101.644 54.0598H9.15631C5.39539 54.0598 2.34229 51.0158 2.34229 47.2661V8.73163C2.34229 4.98193 5.39539 1.93793 9.15631 1.93793Z" fill="#202020"/>
<path d="M101.644 55.5H9.1563C4.60327 55.5 0.90004 51.8078 0.90004 47.2684V8.73164C0.90004 4.19218 4.60327 0.5 9.1563 0.5H99.314C105.152 0.5 109.9 5.23413 109.9 11.0545V47.2662C109.9 51.8056 106.197 55.4978 101.644 55.4978V55.5ZM9.1563 3.37587C6.19417 3.37587 3.78452 5.77834 3.78452 8.73164V47.2662C3.78452 50.2195 6.19417 52.6219 9.1563 52.6219H101.642C104.604 52.6219 107.013 50.2195 107.013 47.2662V11.0545C107.013 6.82029 103.559 3.37587 99.3118 3.37587H9.1563Z" fill="#4196FF"/>
<g opacity="0.51">
<path d="M98.939 48.8634H11.8611C9.48692 48.8634 7.55653 46.9388 7.55653 44.5717V11.4283C7.55653 9.06128 9.48692 7.13666 11.8611 7.13666H98.939C101.313 7.13666 103.244 9.06128 103.244 11.4283V44.5717C103.244 46.9388 101.313 48.8634 98.939 48.8634ZM11.8611 7.80032C9.85524 7.80032 8.22218 9.42851 8.22218 11.4283V44.5717C8.22218 46.5715 9.85524 48.1997 11.8611 48.1997H98.939C100.945 48.1997 102.578 46.5715 102.578 44.5717V11.4283C102.578 9.42851 100.945 7.80032 98.939 7.80032H11.8611Z" fill="#4196FF"/>
</g>
<path d="M39.8738 45.8305C39.7407 45.8305 39.5964 45.8083 39.4345 45.7619C35.3585 44.908 31.6464 43.2245 28.4002 40.7601C28.3869 40.7512 28.3758 40.7402 28.3625 40.7291C27.8011 40.1959 27.506 39.811 27.6613 39.4239C27.7035 39.3155 27.8499 39.0655 28.2737 39.0655C28.4069 39.0655 28.5688 39.0898 28.7708 39.1363C28.7974 39.1429 28.824 39.1518 28.8484 39.1628C31.9148 40.5189 34.1847 41.2069 35.5892 41.2069C36.0086 41.2069 36.3392 41.145 36.5766 41.0233C36.6254 40.822 36.7275 40.165 36.6853 38.278C36.6165 36.7405 36.5788 35.3114 36.5722 33.9332C36.368 33.9597 36.1794 33.9796 36.0041 33.9995L35.8755 34.0128C34.6307 34.119 33.4725 34.2429 32.4141 34.3845C32.8578 34.6389 33.3105 34.9176 33.7764 35.2273C33.8008 35.2428 33.823 35.2627 33.843 35.2826C34.147 35.5857 34.1159 36.1609 33.7254 37.4771C33.3061 38.7315 32.9022 39.3376 32.4119 39.4593C32.2854 39.4858 32.1855 39.4947 32.0924 39.4947C31.6597 39.4947 31.3313 39.2712 31.1693 38.8642C31.0184 38.5611 30.8321 38.1519 30.6124 37.6431C29.8691 36.5967 29.2656 35.6875 28.8196 34.9331C26.4632 35.3202 24.4108 35.8224 22.7111 36.4219C22.6002 36.4728 22.4848 36.4971 22.365 36.4971C21.817 36.4971 21.2933 35.9927 20.6654 34.8623C20.4124 34.4553 20.1129 33.8646 20.3703 33.4022C20.479 33.2076 20.7209 32.9775 21.26 32.9775C21.5085 32.9775 21.8081 33.024 22.1742 33.1169C26.0349 32.409 30.7788 31.6435 36.2748 30.8449C36.3348 30.8317 36.4013 30.8162 36.4768 30.8029C36.4634 30.6237 36.4612 30.4423 36.4834 30.2897C36.4191 29.9202 36.4368 29.6083 36.5367 29.3583C36.388 29.3804 36.2371 29.4026 36.0862 29.4269C33.2927 29.8406 31.1449 30.3295 29.696 30.8803C29.5651 30.9511 29.4253 30.9865 29.2789 30.9865C28.7464 30.9865 28.236 30.5352 27.6747 29.5707C27.4239 29.2013 27.1266 28.6615 27.364 28.2124C27.5193 27.9226 27.8322 27.7744 28.2959 27.7744C28.4934 27.7744 28.7219 27.7987 28.9949 27.8518C30.1087 27.5664 31.5643 27.2081 33.2373 26.8718C33.2417 26.7236 33.2506 26.5577 33.2705 26.3718C33.2705 26.1019 33.2705 25.7922 33.2816 25.4471C29.5318 26.1661 28.4601 26.5134 28.2338 26.6771C28.2183 26.6882 28.2005 26.6992 28.1828 26.7081C27.5682 27.0377 27.1155 27.1926 26.7649 27.1926C26.3323 27.1926 26.0194 26.9448 25.9351 26.5466C25.7975 26.1396 25.5934 25.6949 25.3227 25.1175C25.1496 24.8344 24.9544 24.4229 25.1341 24.0579C25.1962 23.9296 25.3582 23.7105 25.7421 23.6685C25.7576 23.6685 25.7753 23.6663 25.7909 23.6663C26.0239 23.6663 26.2968 23.642 26.6118 23.611L26.8027 23.5933C28.3403 23.3079 30.4992 22.9518 33.3881 22.5071C33.3881 21.5647 33.3926 20.974 33.417 20.6599C33.3992 20.6179 33.3837 20.5714 33.3682 20.5272C33.3238 20.713 33.224 20.9298 33.0331 21.1754C33.022 21.1908 33.0087 21.2041 32.9976 21.2174C32.6382 21.5758 32.1944 21.755 31.673 21.755C31.4777 21.755 31.2692 21.7284 31.0495 21.6775C30.2707 21.5227 29.7005 21.4165 29.3122 21.3833C28.4113 21.3081 28.1761 20.7506 28.1184 20.5161C27.9853 19.8834 27.9764 19.337 28.0918 18.8791C27.8633 18.7043 27.6613 18.4765 27.4927 18.1999C27.2176 18.5185 27.0689 18.8658 27.0401 19.2596C27.0401 19.2861 27.0334 19.3127 27.0268 19.3392C26.8404 20.0361 26.3367 20.5935 25.5335 20.9962C24.8612 21.3501 23.9958 21.7218 22.7355 22.1974C22.4293 22.2992 22.2141 22.3434 22.0366 22.3434C21.6461 22.3434 21.493 22.1111 21.4442 22.0116C21.2756 21.6576 21.5152 21.286 21.7726 20.9696C22.3783 20.1776 23.2326 19.1313 24.3043 17.8703C25.4425 16.5142 26.5408 14.7533 27.5659 12.634C27.7412 12.2004 27.9476 11.8044 28.1761 11.4615C28.327 11.2093 28.6066 11.0611 28.9527 11.0611C29.3898 11.0611 29.9578 11.2934 30.7366 11.7934C31.6109 12.3752 31.9637 12.8154 31.9237 13.2689C31.906 13.4769 31.7928 13.7622 31.369 13.9613C30.7655 14.3927 30.1043 15.032 29.4409 15.8218C29.7781 15.7488 30.1531 15.6382 30.5747 15.4878C31.6907 15.0652 33.1374 14.6361 34.8681 14.2157C34.9325 14.2003 34.999 14.1914 35.0634 14.1914C35.5537 14.1914 35.9021 14.6051 36.0951 15.4214C36.0996 15.4391 36.1018 15.4568 36.104 15.4745C36.1683 16.0452 36.1861 16.8416 35.6159 17.1668C34.5641 17.7088 33.3194 18.2154 31.9725 18.6534C32.0813 18.7618 32.1922 18.8547 32.312 18.9344C32.3275 18.9454 32.3431 18.9565 32.3586 18.9698L32.4163 19.0207C32.7025 19.2684 32.971 19.5051 33.2084 19.7794C33.2173 19.7905 33.2262 19.8016 33.235 19.8148C33.2417 19.6312 33.2861 19.452 33.3948 19.2906C33.5878 19.003 33.9229 18.857 34.3911 18.857C34.5109 18.857 34.6373 18.8658 34.7771 18.8835C34.8282 18.8061 34.8925 18.7264 34.9702 18.6468C36.4102 16.3527 37.939 13.7136 39.5099 10.8001C39.6674 10.4019 39.9892 10.1718 40.3974 10.1718C40.6548 10.1718 40.941 10.2647 41.2517 10.4506C41.2628 10.4572 41.2717 10.4638 41.2805 10.4705C41.904 10.9151 42.3256 11.2381 42.6384 11.5146C42.9757 11.7602 43.0489 12.0345 43.0467 12.2225C43.0467 12.6827 42.6274 12.9968 42.4498 13.1207C42.0216 13.5255 41.5978 14.0056 41.1629 14.5719C41.3116 14.5299 41.4713 14.479 41.6378 14.4193C42.7427 14.01 44.1029 13.6317 45.6738 13.2977C45.6871 13.2955 45.6982 13.2932 45.7115 13.291C45.747 13.2866 45.7825 13.2844 45.818 13.2844C46.1886 13.2844 46.6678 13.5078 46.8564 14.5697C46.8564 14.5785 46.8587 14.5874 46.8609 14.594C46.9851 15.6448 46.6434 16.0762 46.335 16.251C45.4098 16.7642 44.2049 17.2266 42.6629 17.6646C42.8115 17.8858 42.9668 18.0606 43.1332 18.1889C43.1399 18.1933 43.1466 18.1999 43.1532 18.2044C43.4683 18.4787 43.7456 18.7552 44.0119 19.0207C44.0452 19.0538 44.0785 19.0981 44.1007 19.1401C44.2804 19.5007 44.1384 19.9188 43.9942 20.2418C43.9808 20.2728 43.9631 20.3015 43.9431 20.3281C43.7567 20.5758 43.3884 20.8723 42.6895 20.8723C42.5674 20.8723 42.4388 20.8634 42.3056 20.8457C41.8641 20.786 41.5202 20.7572 41.2561 20.7572C41.1585 20.7572 41.0697 20.7617 40.9965 20.7705C40.981 20.7705 40.9632 20.7727 40.9477 20.7727C40.4285 20.7727 40.0446 20.567 39.8915 20.2042C39.4345 19.2529 39.268 18.4344 39.3923 17.7663C39.2747 17.669 39.1593 17.554 39.0528 17.419C38.9818 17.4964 38.913 17.5717 38.8442 17.6469C38.5491 17.9721 38.2718 18.2774 38.0055 18.5428C37.9989 18.5495 37.9944 18.5539 37.9878 18.5605C37.4996 18.9963 37.1025 19.3259 36.7719 19.5693C37.1823 19.7927 37.4242 20.0405 37.5285 20.3303C37.5973 20.5228 37.635 20.8236 37.4198 21.1709C37.4198 21.1709 37.4198 21.1754 37.4175 21.1754C37.402 21.2307 37.3599 21.4054 37.3066 21.9076C37.7615 21.8412 38.2452 21.7704 38.7622 21.6952C40.3264 21.4652 42.0971 21.2063 44.1783 20.9232C44.2382 20.9055 44.2981 20.8988 44.358 20.8988C45.0725 20.8988 45.2323 21.881 45.3299 22.8013C45.3787 23.496 45.2811 23.9406 45.0259 24.2127C44.8639 24.3875 44.6465 24.4782 44.398 24.4782C44.1938 24.4782 43.9697 24.4162 43.719 24.2879C41.5756 24.4295 39.3834 24.6375 37.0359 24.9206C37.0026 25.3609 36.976 25.8033 36.9738 26.1705C37.8413 26.0754 38.72 25.9825 39.5343 25.9161C41.0764 25.8099 41.387 25.6617 41.4003 25.6551C41.4891 25.6108 41.5801 25.5887 41.6777 25.5887C42.1148 25.5887 42.3655 26.04 42.4853 26.2546C42.6584 26.5997 42.8182 26.7125 42.8625 26.7391C43.3285 27.0488 43.4261 27.6881 43.4594 28.2766C43.4594 28.3009 43.4594 28.3274 43.4594 28.3518C43.3529 29.3163 42.9358 29.5176 42.6029 29.5176C42.4698 29.5176 42.3367 29.48 42.2036 29.407C41.3205 29.2322 40.3686 29.1437 39.3745 29.1437C39.3413 29.1437 39.3058 29.1437 39.2725 29.1437C40.2177 29.5309 40.7147 29.8981 40.8612 30.3162C40.8678 30.3383 40.8745 30.3582 40.8811 30.3804C41.7798 30.3295 42.6939 30.2963 43.5837 30.2675L43.6902 30.2631C45.9556 30.1879 47.2958 30.0707 47.6685 29.9158C47.6796 29.9114 47.6885 29.907 47.6996 29.9047C47.7773 29.8782 47.8571 29.8649 47.937 29.8649C48.4873 29.8649 48.7558 30.4534 48.8556 30.6746C48.86 30.6856 48.8645 30.6967 48.8689 30.7056C48.9821 31.0175 49.1485 31.2586 49.3526 31.4068C49.9561 31.7962 49.9495 32.6966 49.8896 33.3403C49.8075 34.2296 49.4924 34.6809 48.951 34.6809C48.8001 34.6809 48.6404 34.6389 48.4784 34.5526C46.1997 33.9641 43.8344 33.6788 41.245 33.6788C40.9521 33.6788 40.6548 33.6832 40.3553 33.6898C40.1578 35.349 40.1467 38.0059 40.3198 41.5963C40.4019 42.8152 40.5195 43.6868 40.6881 44.3284C40.6903 44.3372 40.6925 44.3461 40.6948 44.3549C40.8013 44.8836 40.7502 45.2641 40.5394 45.5207C40.4285 45.6557 40.2199 45.8172 39.8649 45.8172L39.8738 45.8305Z" fill="black"/>
<path d="M40.4107 10.612C40.5838 10.612 40.7924 10.6828 41.0364 10.8288C41.5734 11.2115 42.0327 11.5544 42.3766 11.8597C42.7605 12.1274 42.6828 12.4326 42.1858 12.7755C41.4957 13.4237 40.8456 14.2268 40.1955 15.1802C40.6171 15.1802 41.1518 15.0652 41.8042 14.8373C42.8381 14.4546 44.1783 14.0741 45.7847 13.7312C45.8025 13.7312 45.818 13.729 45.8358 13.729C46.1176 13.729 46.3284 14.0365 46.4371 14.6493C46.5147 15.2975 46.3994 15.7178 46.1309 15.8704C45.0969 16.4434 43.719 16.9389 41.9972 17.3968L42.0349 17.4345C42.2657 17.8924 42.5319 18.2751 42.8781 18.5406C43.1843 18.8082 43.4528 19.0759 43.7212 19.3414C43.7989 19.494 43.7589 19.7241 43.6059 20.067C43.4217 20.3103 43.1155 20.4342 42.7072 20.4342C42.6052 20.4342 42.4964 20.4276 42.3811 20.4121C41.9617 20.3568 41.5823 20.3214 41.2739 20.3214C41.1607 20.3214 41.0586 20.3258 40.9654 20.3369C40.6215 20.3369 40.3908 20.2218 40.3153 20.0316C39.856 19.0781 39.7029 18.2751 39.8937 17.6645C39.8937 17.6269 39.8937 17.5871 39.9315 17.5871C39.6253 17.4345 39.3568 17.1292 39.1283 16.7089C38.5913 17.2818 38.132 17.815 37.7126 18.2353C36.9849 18.8835 36.4102 19.3414 35.9908 19.5715C35.9531 19.6091 35.8755 19.6091 35.8377 19.6489C36.9471 20.0316 37.3687 20.4497 37.0625 20.9474C36.9849 21.0227 36.9094 21.5204 36.8318 22.4363C38.7067 22.1686 41.1962 21.7881 44.2959 21.3678C44.3248 21.3567 44.3514 21.3523 44.378 21.3523C44.6354 21.3523 44.804 21.8545 44.9083 22.8566C44.9638 23.6441 44.804 24.0468 44.4179 24.0468C44.2626 24.0468 44.0696 23.9804 43.8366 23.8499C41.5024 24.0025 39.1283 24.2326 36.6387 24.5379C36.5633 25.4913 36.5233 26.2169 36.5633 26.6749C37.5973 26.5598 38.6312 26.4448 39.5876 26.3696C40.697 26.2944 41.387 26.1793 41.6156 26.0643C41.6422 26.051 41.6666 26.0444 41.6932 26.0444C41.8219 26.0444 41.955 26.197 42.1126 26.4846C42.2657 26.7899 42.4565 27.02 42.6495 27.1328C42.8803 27.2854 42.9935 27.6681 43.0334 28.3163C42.9757 28.8318 42.8315 29.0884 42.6185 29.0884C42.5475 29.0884 42.4676 29.0596 42.3833 29.0021C41.4447 28.8119 40.4507 28.7167 39.3923 28.7167C38.3339 28.7167 37.2156 28.8119 36.0285 29.0021C33.1951 29.4224 31.014 29.918 29.5207 30.4909C29.4497 30.533 29.3721 30.5551 29.2944 30.5551C28.9505 30.5551 28.5333 30.1525 28.0674 29.345C27.5593 28.5995 27.6347 28.2278 28.3137 28.2278C28.5045 28.2278 28.7397 28.2566 29.0259 28.3163C30.3661 27.9734 31.9348 27.5907 33.6966 27.2478C33.6966 27.0178 33.6966 26.7523 33.7343 26.4072C33.7343 25.9869 33.7343 25.4913 33.772 24.9184C30.3262 25.5665 28.4135 26.0245 27.9919 26.3298C27.455 26.6173 27.0534 26.7611 26.7827 26.7611C26.5519 26.7611 26.4188 26.655 26.3833 26.4448C26.2302 25.9869 25.9994 25.4913 25.7332 24.9184C25.427 24.4228 25.4647 24.1552 25.8108 24.1175C26.117 24.1175 26.461 24.0799 26.8825 24.0423C28.5289 23.737 30.8631 23.3543 33.8497 22.8964C33.8497 21.6377 33.8497 20.8744 33.8874 20.6068C33.5213 19.7241 33.6899 19.3038 34.411 19.3038C34.5952 19.3038 34.8171 19.3303 35.0722 19.3856C35.0722 19.2706 35.1499 19.118 35.3407 18.9277C36.7563 16.6757 38.2873 14.0431 39.9337 10.9881C40.0224 10.7469 40.1844 10.6186 40.4174 10.6186M28.9638 11.5013C29.3055 11.5013 29.8203 11.7225 30.5081 12.1628C31.5421 12.8508 31.7706 13.3087 31.1582 13.5741C30.5081 14.0321 29.7426 14.7577 28.9372 15.7488C28.7064 15.9788 28.5156 16.1691 28.4002 16.3593C28.4623 16.3637 28.5245 16.366 28.5888 16.366C29.1679 16.366 29.8735 16.2111 30.7344 15.9014C31.8438 15.4811 33.2617 15.0608 34.9835 14.6426C35.0145 14.636 35.0434 14.6316 35.0745 14.6316C35.3363 14.6316 35.536 14.9369 35.6735 15.5209C35.749 16.2089 35.6735 16.627 35.4051 16.7796C34.2956 17.3526 32.8778 17.9256 31.2314 18.4211C31.4622 18.764 31.7285 19.0693 32.0746 19.2994C32.3808 19.567 32.6493 19.7949 32.8778 20.0626C33.0309 20.2528 32.9532 20.5581 32.687 20.9032C32.4141 21.1753 32.0813 21.3125 31.6774 21.3125C31.5154 21.3125 31.3424 21.2903 31.156 21.2461C30.3905 21.0935 29.7781 20.9784 29.3565 20.9408C28.8972 20.9032 28.6288 20.7107 28.5533 20.4055C28.4002 19.6799 28.4379 19.1069 28.6288 18.6888C28.2449 18.4985 27.9387 18.1534 27.7102 17.6579C27.6325 17.5429 27.5571 17.4278 27.5193 17.3526C27.3662 17.5827 27.2509 17.7353 27.2131 17.8481C26.8293 18.2685 26.6385 18.7264 26.6007 19.2219C26.4476 19.7949 26.0261 20.2528 25.3382 20.5957C24.6105 20.9784 23.6919 21.3589 22.5824 21.7792C22.345 21.8589 22.1653 21.8965 22.041 21.8965C21.7459 21.8965 21.7726 21.6753 22.1231 21.2439C22.7355 20.4431 23.5787 19.4122 24.6504 18.1534C25.8375 16.742 26.9469 14.9479 27.9809 12.8109C28.134 12.4282 28.3248 12.0477 28.5555 11.7048C28.6376 11.5677 28.773 11.5013 28.9638 11.5013ZM37.6261 29.1592C37.9146 29.1592 38.2851 29.2432 38.74 29.4158C40.0801 29.9113 40.6548 30.3693 40.424 30.752C40.3486 30.7896 40.3087 30.8294 40.3486 30.867C41.458 30.7896 42.6074 30.752 43.7168 30.7144C46.0133 30.6369 47.3912 30.5241 47.8505 30.3317C47.8838 30.3206 47.917 30.3162 47.9481 30.3162C48.1367 30.3162 48.2987 30.5086 48.4629 30.867C48.616 31.2873 48.8467 31.5926 49.113 31.7829C49.4192 31.9731 49.5346 32.4709 49.4569 33.3093C49.3992 33.942 49.2328 34.2495 48.9599 34.2495C48.8689 34.2495 48.7668 34.2163 48.6537 34.1499C46.375 33.5571 43.9254 33.2496 41.2539 33.2496C40.8301 33.2496 40.3996 33.2584 39.9625 33.2739V33.3491C39.7318 34.953 39.6941 37.7005 39.8849 41.6316C39.9625 42.7776 40.0757 43.731 40.2687 44.4566C40.393 45.0716 40.2687 45.3902 39.8716 45.3902C39.7761 45.3902 39.6674 45.3725 39.541 45.3349C35.5204 44.4942 31.8838 42.855 28.6687 40.4105C28.0319 39.8043 27.8988 39.5123 28.2737 39.5123C28.3714 39.5123 28.5023 39.5322 28.6687 39.5721C31.8172 40.9635 34.1248 41.6537 35.5892 41.6537C36.1728 41.6537 36.621 41.5454 36.9361 41.3286C37.0891 41.0609 37.1668 40.03 37.1269 38.2757C37.0492 36.559 37.0115 34.9552 37.0115 33.4287C36.5522 33.5062 36.1683 33.5438 35.8244 33.5814C34.0249 33.734 32.4163 33.9243 31.0007 34.1544C31.8816 34.5747 32.7225 35.0702 33.5279 35.6056C33.681 35.7582 33.6056 36.3312 33.2972 37.3621C32.9532 38.393 32.6071 38.9659 32.3009 39.0411C32.2255 39.0566 32.1545 39.0633 32.0901 39.0633C31.8305 39.0633 31.6663 38.9416 31.5754 38.696C31.4223 38.3907 31.2314 37.9704 31.0007 37.4373C30.1575 36.2537 29.5074 35.2627 29.0481 34.4596C26.4077 34.88 24.2621 35.4131 22.5403 36.0237C22.4848 36.0524 22.4249 36.0657 22.365 36.0657C22.01 36.0657 21.5707 35.5945 21.0492 34.6499C20.5411 33.8314 20.6166 33.431 21.2622 33.431C21.4908 33.431 21.7903 33.4818 22.1609 33.5814C26.1037 32.8558 30.8498 32.0926 36.3636 31.2917C36.5167 31.2541 36.7075 31.2143 36.976 31.2143C36.9005 30.7564 36.9005 30.4511 36.9383 30.2985C36.7829 29.5463 37.0159 29.1636 37.6239 29.1636M40.4107 9.72711C39.8272 9.72711 39.3501 10.0545 39.1194 10.6076C38.2363 12.2446 37.3687 13.7932 36.5211 15.2422C36.2061 14.01 35.5648 13.7489 35.0767 13.7489C34.9746 13.7489 34.8725 13.7622 34.7705 13.7865C33.2839 14.1493 31.9992 14.5188 30.9474 14.886C31.2048 14.6515 31.4267 14.4745 31.6086 14.3418C32.221 14.0365 32.3542 13.5675 32.3764 13.3065C32.4474 12.5034 31.7196 11.9061 30.9985 11.4261C30.994 11.4239 30.9896 11.4217 30.9851 11.4172C30.1309 10.8686 29.4874 10.6142 28.9594 10.6142C28.469 10.6142 28.0496 10.8376 27.8056 11.227C27.5637 11.5898 27.3507 12.0013 27.1665 12.4526C26.1592 14.532 25.0831 16.2598 23.967 17.5849C22.8975 18.8414 22.041 19.89 21.4242 20.6975C21.2267 20.9386 20.7386 21.5536 21.047 22.1996C21.2223 22.5646 21.5928 22.7836 22.0388 22.7836C22.2651 22.7836 22.527 22.7327 22.862 22.6199C22.8731 22.6155 22.8842 22.611 22.8953 22.6088C24.1667 22.1288 25.0453 21.7505 25.7421 21.3855C26.6606 20.9253 27.2375 20.2749 27.4572 19.452C27.4705 19.3989 27.4794 19.3458 27.4838 19.2927C27.4927 19.1843 27.5127 19.0803 27.5437 18.9808C27.5659 19.0029 27.5859 19.0228 27.6081 19.0449C27.5371 19.5029 27.5615 20.0205 27.6813 20.5913C27.6835 20.6023 27.6857 20.6134 27.688 20.6223C27.8588 21.3058 28.4535 21.7549 29.2789 21.8235C29.6383 21.8567 30.213 21.9629 30.9652 22.1111C31.2115 22.1686 31.4489 22.1973 31.6752 22.1973C32.1523 22.1973 32.5783 22.0735 32.9466 21.8279C32.9466 21.923 32.9466 22.0226 32.9466 22.1288C30.2529 22.5469 28.2183 22.8831 26.745 23.1552L26.5741 23.1707C26.2701 23.1995 26.0083 23.2238 25.7953 23.2238C25.762 23.2238 25.7287 23.2238 25.6977 23.2282C25.2628 23.2769 24.9144 23.5092 24.7391 23.8631C24.4463 24.4627 24.7835 25.0776 24.9366 25.3276C25.1896 25.8696 25.3826 26.2899 25.5113 26.666C25.6466 27.2589 26.1326 27.6372 26.7694 27.6372C26.9802 27.6372 27.2154 27.5951 27.4794 27.5089C27.222 27.6438 27.0667 27.8341 26.9757 28.0066C26.5919 28.7278 27.0889 29.491 27.3019 29.8074C27.7124 30.5131 28.3625 31.4311 29.2811 31.4311C29.4874 31.4311 29.6916 31.3825 29.878 31.2873C31.2692 30.7608 33.3282 30.2918 35.9997 29.8892C35.9997 30.0197 36.0108 30.1569 36.033 30.3007C36.0285 30.3449 36.0241 30.3892 36.0241 30.4356C30.6457 31.2187 25.9928 31.9687 22.1875 32.6655C21.8258 32.5793 21.5196 32.5372 21.2578 32.5372C20.4635 32.5372 20.1151 32.9465 19.9798 33.1898C19.6114 33.8513 19.9687 34.5857 20.2793 35.0879C20.7896 36.0082 21.4375 36.9417 22.3628 36.9417C22.5403 36.9417 22.7111 36.9063 22.8731 36.8356C24.4729 36.2714 26.3944 35.7958 28.591 35.4219C29.0193 36.121 29.5651 36.9395 30.2197 37.862C30.4304 38.3509 30.6124 38.7469 30.761 39.0478C30.8698 39.3088 31.034 39.5212 31.2403 39.6716C30.5858 39.4238 29.8491 39.1208 29.0215 38.7558C28.9727 38.7336 28.9194 38.7159 28.8662 38.7049C28.6265 38.6474 28.4357 38.6208 28.2649 38.6208C27.5504 38.6208 27.2997 39.1075 27.2398 39.2557C26.9424 39.9968 27.6081 40.6273 28.0474 41.0454C28.0718 41.0675 28.0962 41.0896 28.1206 41.1095C31.4134 43.6116 35.181 45.3194 39.3169 46.1888C39.5121 46.2441 39.6896 46.2706 39.8627 46.2706C40.2776 46.2706 40.6393 46.1069 40.8811 45.8127C41.3271 45.2685 41.1784 44.5252 41.1296 44.2796C41.1252 44.2619 41.123 44.2442 41.1185 44.2288C40.9566 43.6138 40.8434 42.7731 40.7635 41.5785C40.606 38.3288 40.6038 35.7825 40.7569 34.1367C40.9211 34.1344 41.0853 34.1322 41.245 34.1322C43.7789 34.1322 46.0932 34.4088 48.3209 34.9795C48.5317 35.0813 48.7424 35.1321 48.9488 35.1321C49.4059 35.1321 50.1913 34.9065 50.3311 33.3889C50.3999 32.6346 50.3977 31.5749 49.6056 31.0528C49.4791 30.9577 49.3659 30.7852 49.2861 30.5639C49.2772 30.5418 49.2705 30.5219 49.2594 30.4998C48.9355 29.7897 48.4917 29.4313 47.937 29.4313C47.8105 29.4313 47.6841 29.4512 47.5598 29.4932C47.5398 29.4999 47.5199 29.5087 47.4977 29.5153C47.349 29.5773 46.6811 29.7299 43.6746 29.8295L43.5659 29.8339C43.415 29.8383 43.2619 29.845 43.1088 29.8494C43.4417 29.6835 43.7989 29.2941 43.8965 28.407C43.901 28.3584 43.9032 28.3075 43.901 28.2566C43.8588 27.562 43.7345 26.7965 43.1244 26.3895C43.1133 26.3806 43.1 26.374 43.0889 26.3674C43.0689 26.3519 42.9824 26.2656 42.8892 26.082C42.8825 26.0709 42.8781 26.0599 42.8714 26.0488C42.7361 25.8033 42.3744 25.1551 41.6755 25.1551C41.5157 25.1551 41.3604 25.1905 41.2162 25.2613C41.1718 25.2767 40.7924 25.394 39.5077 25.4825C38.8398 25.5356 38.1364 25.6064 37.4331 25.6838C37.4397 25.5665 37.4464 25.4471 37.453 25.3254C39.6142 25.071 41.6466 24.8808 43.6325 24.7458C43.9032 24.8697 44.1561 24.9294 44.398 24.9294C44.7663 24.9294 45.1058 24.7856 45.3499 24.5224C45.8047 24.0379 45.8091 23.3035 45.7736 22.7924C45.7736 22.7814 45.7736 22.7725 45.7714 22.7615C45.6893 21.9629 45.534 20.4807 44.3802 20.463C44.3869 20.4497 44.3913 20.4386 44.398 20.4254C44.5666 20.0449 44.7619 19.4763 44.4956 18.9454C44.4534 18.8613 44.3958 18.7817 44.3292 18.7153C44.0585 18.4454 43.7811 18.1689 43.4638 17.8902C44.7197 17.5008 45.7359 17.0894 46.5458 16.6403C46.9807 16.3925 47.4555 15.8328 47.3024 14.5409C47.3024 14.5232 47.298 14.5077 47.2958 14.49C47.0406 13.0543 46.264 12.8397 45.8202 12.8397C45.767 12.8397 45.7137 12.8441 45.6605 12.8508C45.6361 12.853 45.6095 12.8574 45.585 12.864C44.4645 13.1029 43.4483 13.364 42.5497 13.6449C42.6118 13.5808 42.6762 13.5211 42.7383 13.4591C43.2375 13.0963 43.4927 12.6804 43.4927 12.2225C43.4927 11.9858 43.4172 11.5389 42.918 11.1673C42.5941 10.8841 42.1658 10.5545 41.5379 10.1076C41.5179 10.0943 41.498 10.0811 41.478 10.07C41.0919 9.83993 40.7391 9.72711 40.3952 9.72711H40.4107ZM32.8734 18.8193C33.5656 18.5737 34.2269 18.3127 34.837 18.0384C34.766 18.1512 34.6972 18.2618 34.6285 18.3746C34.6152 18.3901 34.6018 18.4034 34.5885 18.4189C34.5242 18.4145 34.4621 18.4123 34.4021 18.4123C33.6655 18.4123 33.275 18.7198 33.0708 18.9963C33.0065 18.9365 32.9399 18.879 32.8734 18.8193ZM37.5285 19.5538C37.7592 19.3657 38.0144 19.1467 38.2984 18.8923C38.3117 18.8812 38.3228 18.8702 38.3339 18.8591C38.5247 18.6689 38.72 18.4609 38.9219 18.2397C38.9263 18.8746 39.1194 19.5958 39.501 20.39C39.6297 20.6842 39.8582 20.9098 40.16 21.0514C39.6586 21.1244 39.1771 21.1952 38.7133 21.2638C38.4116 21.308 38.1187 21.3501 37.8391 21.3921C37.8413 21.3744 37.8458 21.3611 37.848 21.3501C38.0588 20.9762 38.0987 20.5647 37.9634 20.1864C37.8746 19.9387 37.7215 19.7307 37.5307 19.556L37.5285 19.5538ZM28.4934 27.0465C28.6643 26.947 29.4275 26.6572 32.8379 25.9891C32.8379 26.1174 32.8379 26.2368 32.8379 26.3519C32.8312 26.4072 32.8268 26.4581 32.8223 26.5089C31.3268 26.8164 30.0177 27.1372 28.986 27.4005C28.7286 27.3562 28.5045 27.3341 28.3026 27.3341C28.1007 27.3341 27.9431 27.3562 27.7989 27.3916C27.9853 27.3142 28.185 27.2169 28.4024 27.1018C28.4335 27.0841 28.4646 27.0664 28.4934 27.0465ZM41.174 29.9312C41.123 29.845 41.0586 29.7609 40.9854 29.679C41.356 29.7189 41.7176 29.772 42.066 29.8383C42.1015 29.856 42.1392 29.8715 42.1747 29.8848C41.8419 29.8981 41.5068 29.9135 41.174 29.9312ZM33.7343 34.672C34.4243 34.5946 35.1499 34.5216 35.9065 34.4574C35.9132 34.4574 35.922 34.4574 35.9287 34.4552L36.0552 34.4419C36.0818 34.4397 36.1084 34.4353 36.1351 34.4331C36.1484 35.6609 36.1839 36.9351 36.246 38.3C36.2771 39.6982 36.226 40.3839 36.1861 40.7025C36.0507 40.7379 35.8599 40.7667 35.5937 40.7667C34.9502 40.7667 33.8408 40.5985 31.9637 39.9371C32.008 39.9415 32.0524 39.9437 32.0968 39.9437C32.2188 39.9437 32.3497 39.9304 32.4829 39.9039C32.4962 39.9017 32.5095 39.8973 32.525 39.895C33.1884 39.7291 33.6721 39.0544 34.147 37.6364C34.1492 37.6275 34.1536 37.6165 34.1559 37.6076C34.5486 36.2869 34.6662 35.4773 34.1625 34.9751C34.1204 34.933 34.076 34.8977 34.0272 34.8645C33.9295 34.8003 33.8319 34.7362 33.7365 34.6742L33.7343 34.672Z" fill="#4196FF"/>
<path d="M82.4065 45.4853C82.2667 45.4853 82.1159 45.461 81.9494 45.4123C81.9406 45.4101 81.9317 45.4057 81.9228 45.4034C78.4326 44.127 75.364 42.1648 72.8012 39.5743C72.7857 39.5588 72.7724 39.5433 72.7613 39.5256C72.302 38.9062 72.1023 38.5323 72.2709 38.1939C72.3641 38.0124 72.5483 37.9041 72.7701 37.9041C72.9388 37.9041 73.134 37.9616 73.4225 38.0987C73.438 38.1054 73.4535 38.1142 73.4669 38.1231C76.6842 40.1273 78.2484 40.5476 78.9962 40.5476C79.1582 40.5476 79.2957 40.5277 79.4089 40.4901C79.491 40.2313 79.6064 39.4238 79.5642 36.9019C79.4932 35.037 79.4555 33.285 79.451 31.5727C77.7448 31.7453 76.2692 31.9665 75.0888 32.1611C75.131 32.2673 75.1754 32.3824 75.2197 32.5063C75.2242 32.5151 75.2264 32.5262 75.2286 32.535C75.3795 33.0593 75.5903 33.4818 75.8721 33.8269C75.8832 33.8402 75.8943 33.8557 75.9031 33.869C76.1516 34.2561 76.3602 34.6344 76.5466 34.9662L76.6065 35.0746C76.6198 35.099 76.6309 35.1233 76.6398 35.1498C76.7152 35.3755 76.7618 35.8312 76.2271 36.3666C76.0607 36.5325 75.7567 36.7294 75.2575 36.7294C75.0134 36.7294 74.7382 36.6829 74.4409 36.59C73.833 36.4108 73.2982 36.2604 72.992 36.225C72.9765 36.225 72.961 36.2206 72.9454 36.2161C72.4218 36.0989 72.0668 35.7715 71.9936 35.3357C71.765 34.3911 71.7184 33.5748 71.8493 32.8978C71.2591 33.0505 70.7333 33.2053 70.2784 33.3646C70.1697 33.4221 70.0521 33.4509 69.93 33.4509C69.4619 33.4509 69.0225 33.0571 68.4168 32.0881C68.1883 31.763 67.8954 31.2541 68.1239 30.8183C68.2238 30.6281 68.4545 30.4002 68.987 30.4002C69.1779 30.4002 69.3997 30.4268 69.6638 30.4821C72.4839 29.7344 75.7611 28.9955 79.4133 28.2831V26.7058C79.3423 26.3342 79.3534 26.0201 79.4466 25.7656C76.1206 26.5222 75.4749 26.8164 75.3551 26.8895C75.3396 26.9049 75.324 26.9182 75.3085 26.9315C75.0089 27.166 74.6983 27.2854 74.3832 27.2854C73.7065 27.2854 73.1185 26.7523 72.6392 25.6971C72.2088 24.8631 72.1245 24.2702 72.3841 23.8454C72.5172 23.6287 72.8034 23.3698 73.4114 23.3698C73.5157 23.3698 73.631 23.3765 73.7509 23.3919C73.9661 23.3698 75.1465 23.142 76.7884 22.8256C76.7352 21.9806 76.7152 21.2793 76.7241 20.6422C73.8418 21.0625 72.9543 21.5956 72.6814 21.8854C72.4995 22.0912 72.2909 22.1354 72.1511 22.1354C71.6297 22.1354 71.2458 21.6067 70.8242 20.3059C70.3672 18.8967 70.3916 18.4631 70.5913 18.191C70.7 18.0428 70.8686 17.9565 71.055 17.9565C71.1149 17.9565 71.177 17.9654 71.2392 17.9831C71.2392 17.9831 71.2525 17.9831 71.268 17.9831H71.2769C71.9336 17.9831 74.614 17.534 76.7374 17.1646C76.7596 11.2159 77.2899 10.5191 77.8357 10.3266C77.8557 10.32 77.8779 10.3134 77.8979 10.3089C77.9689 10.2957 78.0465 10.2868 78.1264 10.2868C78.6234 10.2868 79.3623 10.5523 80.5227 11.1496C81.6344 11.7601 82.0182 12.1274 82.0005 12.5565C81.996 12.6716 81.9472 12.9525 81.5878 13.1229C81.2838 13.2888 80.7779 13.948 80.6004 16.4412C81.7409 16.2598 83.0367 16.0275 84.4678 15.7687C85.2089 15.5674 85.7215 15.4744 86.0831 15.4744C86.8065 15.4744 86.9352 15.8903 86.9573 16.0695C86.9596 16.0872 86.9618 16.1049 86.9618 16.1248V17.3084C86.9618 17.7375 86.7954 18.4963 85.6815 18.764C84.1217 19.2684 82.371 19.7108 80.4717 20.0825C80.4295 20.8722 80.4229 21.5337 80.4517 22.0845C80.6825 22.0403 80.9221 21.9983 81.1595 21.954C82.3688 21.5403 83.2519 21.339 83.8599 21.339C84.3192 21.339 84.6453 21.4518 84.8583 21.6863C84.9804 21.8191 85.1157 22.0558 85.0802 22.4252C85.0802 22.4385 85.078 22.4518 85.0736 22.465C84.9404 23.1619 84.9249 23.7724 85.0314 24.2304C85.0736 24.4604 85.0203 24.664 84.885 24.8255C84.6475 25.1086 84.1949 25.2347 83.4183 25.2347C83.0766 25.2347 82.6706 25.2082 82.2068 25.1595C81.996 25.2037 81.7897 25.248 81.59 25.29C81.661 25.3144 81.732 25.3387 81.8052 25.3674C82.9879 25.8055 83.5958 26.2103 83.7711 26.6837C83.8576 26.9138 83.8399 27.1505 83.7223 27.3673C83.6912 27.4226 83.6491 27.4713 83.6003 27.5089C83.6003 27.5089 83.5736 27.5487 83.5426 27.6726C84.1017 27.6305 84.6786 27.573 85.2422 27.5177C87.3301 27.323 87.9248 27.1704 88.0912 27.0952C88.1045 27.0885 88.1178 27.0841 88.1311 27.0797C88.2088 27.0532 88.2886 27.0399 88.3685 27.0399C88.9188 27.0399 89.1873 27.6283 89.2871 27.8496C89.2916 27.8606 89.296 27.8695 89.3004 27.8805C89.4114 28.1858 89.5955 28.4004 89.8285 28.5044C89.8463 28.5132 89.8662 28.5221 89.884 28.5331C90.3544 28.8251 90.5585 29.4777 90.5141 30.5308C90.5141 31.6855 90.0393 31.9311 89.6421 31.9311C89.4691 31.9311 89.2938 31.878 89.1029 31.7696C87.4588 31.4355 85.7348 31.2652 83.9752 31.2652C83.6579 31.2652 83.334 31.2718 83.01 31.2829C82.817 33.3823 82.7926 36.6984 82.9346 41.1472C82.9346 42.3019 83.0478 43.2598 83.2586 43.9279C83.263 43.9434 83.2674 43.9611 83.2719 43.9788C83.3739 44.5163 83.3185 44.9079 83.0988 45.1712C82.9834 45.3105 82.7704 45.4742 82.4021 45.4742L82.4065 45.4853ZM65.3548 42.1603C64.9421 42.1603 64.4384 42.0475 63.8127 41.8152C63.7861 41.8064 63.7617 41.7931 63.7395 41.7798C63.3845 41.5675 63.207 41.3131 63.2114 41.0255C63.2136 40.8441 63.2935 40.5897 63.6441 40.3839C63.8283 40.2401 63.9059 40.0632 63.9059 39.7977L64.0191 30.5131C63.8993 30.6768 63.7972 30.8183 63.7151 30.9312C63.3446 31.4333 63.1426 32.0461 63.1071 32.7562C63.1071 32.7806 63.1027 32.8027 63.0983 32.827C62.9119 33.7075 62.2418 34.4508 61.108 35.037C60.1716 35.5569 58.938 36.1055 57.123 36.8112C57.1141 36.8156 57.1052 36.8179 57.0963 36.8201C56.7768 36.9218 56.5261 36.9727 56.3308 36.9727C55.9181 36.9727 55.7539 36.7515 55.694 36.6188C55.5121 36.2272 55.8116 35.7958 56.1267 35.4242C57.0808 34.3999 58.3455 33.1301 60.2338 31.2895C62.0221 29.1238 63.7018 26.5112 65.3681 23.3057C65.5257 22.9517 65.7209 22.5646 65.9162 22.2128C65.9228 22.2018 65.9273 22.1929 65.9339 22.1819C66.0959 21.9407 66.3577 21.808 66.675 21.808C67.1033 21.808 67.658 22.0447 68.4257 22.5557C69.2844 23.0955 69.6527 23.5402 69.6061 23.9892C69.5861 24.1928 69.4707 24.4693 69.0514 24.6463C68.4811 25.0887 67.8288 25.728 67.0567 26.5997C67.0034 26.874 66.9746 27.1505 66.9746 27.4248C66.9346 29.6746 66.8969 31.6568 66.8614 33.3801C66.8281 35.0304 66.8015 36.4462 66.7815 37.6209L66.7593 38.4217C66.7305 39.4592 66.7039 40.3552 66.7039 41.0874C66.7039 41.125 66.6994 41.1626 66.6883 41.2002C66.5951 41.5564 66.2956 42.1515 65.3504 42.1515L65.3548 42.1603ZM60.3203 24.6241C59.9631 24.6241 59.8166 24.4051 59.7678 24.31C59.5814 23.9384 59.8787 23.5269 60.0052 23.3588C62.2573 19.9298 63.704 17.8614 64.6958 16.6535C65.8496 15.1338 66.1358 14.4989 66.2046 14.271C66.2335 13.8175 66.5485 13.614 66.8614 13.614C67.1166 13.614 67.4117 13.7423 67.7889 14.0188C67.8133 14.0365 67.8333 14.0542 67.8532 14.0763C68.3192 14.5829 68.7563 15.0055 69.1912 15.3727C69.2156 15.3948 69.24 15.4191 69.26 15.4457C69.5817 15.8726 69.9123 16.4235 69.6305 16.8925C69.6194 16.9102 69.6083 16.9279 69.595 16.9433C68.5788 18.1866 67.3984 19.4808 66.0804 20.7926C64.4917 22.3765 62.6833 23.6397 60.7086 24.5467C60.6864 24.5578 60.6642 24.5644 60.6398 24.5711C60.52 24.6042 60.4157 24.6197 60.3203 24.6197V24.6241Z" fill="black"/>
<path d="M78.1198 10.7404C78.5369 10.7404 79.258 11.0125 80.312 11.5544C81.4214 12.165 81.8052 12.5477 81.3837 12.738C80.6559 13.1207 80.2343 14.5321 80.1211 16.9744C81.3837 16.7841 82.8769 16.5164 84.561 16.2112C85.2488 16.0253 85.7547 15.928 86.0787 15.928C86.3516 15.928 86.4958 15.9966 86.5136 16.1359V17.3195C86.5136 17.8548 86.2074 18.1977 85.5573 18.3504C83.9109 18.8857 82.0737 19.3436 80.0457 19.7241C79.968 20.9453 79.968 21.8987 80.0457 22.6244C80.4273 22.5469 80.8489 22.4717 81.2705 22.3943C82.4376 21.9939 83.2985 21.7926 83.8599 21.7926C84.4212 21.7926 84.6786 21.9939 84.6409 22.3943C84.4878 23.1951 84.4878 23.8455 84.6032 24.341C84.6586 24.6397 84.2637 24.8034 83.4228 24.8034C83.0855 24.8034 82.6728 24.7768 82.1913 24.7215C77.636 25.675 75.2242 26.3254 75.0334 26.5908C74.8115 26.7656 74.5963 26.8497 74.3832 26.8497C73.8973 26.8497 73.4425 26.3984 73.0431 25.5201C72.4617 24.3941 72.5838 23.8167 73.4092 23.8167C73.5068 23.8167 73.6133 23.8256 73.7309 23.8411C73.884 23.8411 75.0711 23.611 77.2522 23.1929C77.1767 22.0868 77.1368 21.0935 77.1767 20.14C74.5363 20.4829 72.9277 20.9807 72.353 21.5912C72.2887 21.6643 72.2199 21.7019 72.1467 21.7019C71.8804 21.7019 71.5742 21.1997 71.2414 20.1799C70.8553 18.9897 70.791 18.4101 71.0483 18.4101C71.0727 18.4101 71.0972 18.4145 71.126 18.4234C71.1571 18.43 71.2059 18.4344 71.2702 18.4344C71.856 18.4344 73.8352 18.1291 77.1745 17.5451C77.1745 13.2313 77.443 10.9417 77.9777 10.7514C78.0199 10.7426 78.0665 10.7381 78.1198 10.7381M66.8614 14.0587C67.0101 14.0587 67.2342 14.1626 67.5271 14.3794C67.9486 14.8374 68.4079 15.2953 68.905 15.7156C69.2489 16.1735 69.3643 16.4788 69.2489 16.6691C68.4057 17.7 67.2586 18.9963 65.7653 20.4851C64.1966 22.0492 62.4349 23.2703 60.52 24.1486C60.4401 24.1707 60.3736 24.1818 60.3181 24.1818C60.0851 24.1818 60.0873 23.9871 60.3669 23.6154C62.4726 20.4099 64.0036 18.1955 65.0375 16.9368C65.9938 15.678 66.5308 14.7998 66.6462 14.3418C66.6462 14.156 66.7194 14.0609 66.8614 14.0609M66.6728 22.2549C66.999 22.2549 67.496 22.4761 68.1772 22.9274C69.2112 23.5756 69.4397 24.0335 68.8273 24.2636C68.1772 24.7591 67.4494 25.4847 66.6462 26.4006C66.5685 26.7435 66.5308 27.0886 66.5308 27.4315C66.4531 31.8205 66.3777 35.2185 66.34 37.6231C66.3023 39.0345 66.2645 40.1805 66.2645 41.0963C66.1536 41.5166 65.8518 41.718 65.3548 41.718C64.9932 41.718 64.5316 41.6096 63.9658 41.4016C63.582 41.1715 63.5443 40.9437 63.8882 40.7534C64.1944 40.5234 64.3475 40.2181 64.3475 39.8L64.4629 30.4489C64.4629 30.0286 64.3874 29.6857 64.2321 29.4955C63.8482 29.991 63.542 30.4113 63.3512 30.679C62.9296 31.252 62.7011 31.9378 62.6612 32.7408C62.5081 33.4664 61.9334 34.1146 60.8994 34.6499C59.8654 35.2229 58.5253 35.7959 56.9566 36.4064C56.6836 36.4927 56.4729 36.5369 56.3264 36.5369C55.9603 36.5369 55.9958 36.2648 56.4595 35.7184C57.4935 34.6123 58.8714 33.2385 60.5555 31.5971C62.355 29.4225 64.0768 26.7501 65.7609 23.5048C65.914 23.1619 66.1048 22.7792 66.2978 22.4363C66.3755 22.3191 66.4997 22.2593 66.6684 22.2593M80.5405 25.5334C80.8289 25.5334 81.1995 25.6175 81.6544 25.79C82.9945 26.2856 83.5692 26.7435 83.3384 27.1638C83.1853 27.2788 83.07 27.5841 83.0322 28.1571C83.76 28.1195 84.5255 28.0421 85.291 27.9668C86.9374 27.8142 87.9314 27.6616 88.2775 27.5089C88.3108 27.4979 88.3441 27.4934 88.3752 27.4934C88.5638 27.4934 88.7258 27.6859 88.8899 28.0443C89.043 28.4646 89.3115 28.7699 89.6554 28.9225C89.9616 29.1128 90.1147 29.6481 90.077 30.5264C90.077 31.1679 89.9328 31.5042 89.6466 31.5042C89.5423 31.5042 89.4158 31.4577 89.2716 31.367C87.6319 31.0285 85.8679 30.8383 83.9797 30.8383C83.5315 30.8383 83.0744 30.8494 82.6107 30.8715C82.3799 32.9709 82.3422 36.4064 82.4953 41.176C82.4953 42.3595 82.6107 43.3506 82.8392 44.0762C82.9635 44.7243 82.8126 45.0473 82.4065 45.0473C82.3089 45.0473 82.198 45.0296 82.0737 44.992C78.6279 43.7333 75.6435 41.8241 73.1163 39.2668C72.657 38.6474 72.5416 38.351 72.7679 38.351C72.8633 38.351 73.0164 38.4018 73.2317 38.5036C75.9098 40.1716 77.8357 40.9968 78.9962 40.9968C79.2957 40.9968 79.5442 40.9415 79.7395 40.8331C79.9703 40.4902 80.0457 39.1916 80.008 36.902C79.9325 34.88 79.8926 32.9709 79.8926 31.1015H79.8016H79.8172C77.7892 31.2918 76.0274 31.5595 74.4587 31.8272C74.5363 31.9798 74.6495 32.2475 74.8026 32.6678C74.9557 33.2031 75.1865 33.6987 75.5304 34.119C75.7989 34.5393 76.0274 34.9596 76.2204 35.3025C76.2981 35.5326 76.1827 35.7981 75.9142 36.0658C75.7589 36.2206 75.537 36.3002 75.2575 36.3002C75.0578 36.3002 74.8292 36.2604 74.5741 36.1808C73.9239 35.9905 73.387 35.8379 73.0431 35.7981C72.6992 35.7229 72.4684 35.5304 72.4307 35.2627C72.1245 34.004 72.1622 33.0107 72.5083 32.3227L72.5461 32.2851C71.5498 32.5152 70.7466 32.743 70.0965 32.9731C70.0454 33.004 69.99 33.0217 69.9323 33.0217C69.6438 33.0217 69.2733 32.6302 68.794 31.867C68.3236 31.1945 68.3946 30.8582 68.987 30.8582C69.1668 30.8582 69.3975 30.8892 69.6727 30.9511C72.5438 30.1879 75.912 29.4247 79.8549 28.6615V26.6771C79.6996 25.925 79.9325 25.5423 80.5405 25.5423M78.1198 9.85547C78.0088 9.85547 77.9023 9.86653 77.8047 9.88644C77.7625 9.89529 77.7204 9.90635 77.6804 9.92183C76.9172 10.1939 76.6553 11.1496 76.4956 12.5035C76.3735 13.5322 76.3048 14.9767 76.2914 16.8062C74.705 17.0806 71.9314 17.5495 71.2835 17.554C71.2059 17.5363 71.126 17.5274 71.0483 17.5274C70.72 17.5274 70.4182 17.6801 70.2252 17.9433C69.8879 18.4057 69.9301 19.0162 70.396 20.4542C70.7555 21.5625 71.217 22.589 72.1444 22.589C72.4662 22.589 72.7702 22.4496 73.0031 22.1952C73.1496 22.0425 73.7886 21.5758 76.2737 21.1687C76.2781 21.5691 76.2937 22.0005 76.3181 22.4739C74.9868 22.7305 74.026 22.9142 73.7398 22.954C73.6244 22.9407 73.5135 22.9363 73.4092 22.9363C72.5527 22.9363 72.1622 23.3677 72.0047 23.6243C71.552 24.3654 71.9203 25.279 72.2443 25.9095C72.8012 27.1218 73.5223 27.7368 74.3832 27.7368C74.8004 27.7368 75.2042 27.5863 75.5836 27.2877C75.5947 27.2788 75.6036 27.2722 75.6147 27.2634C75.7678 27.1904 76.429 26.9315 78.9252 26.3475C78.9296 26.4758 78.9452 26.613 78.9696 26.7546V27.927C75.4949 28.6128 72.3641 29.3207 69.6483 30.0375C69.3998 29.991 69.1801 29.9689 68.987 29.9689C68.1927 29.9689 67.8577 30.3782 67.7312 30.6237C67.3607 31.3294 67.8665 32.0816 68.0529 32.3514C68.561 33.1611 69.1424 33.9044 69.9323 33.9044C70.112 33.9044 70.2895 33.8624 70.4537 33.785C70.7244 33.692 71.0195 33.5991 71.339 33.5062C71.3168 34.0858 71.39 34.7296 71.5609 35.4375C71.6696 36.0414 72.16 36.506 72.8523 36.6586C72.8833 36.6653 72.9144 36.6697 72.9454 36.6741C73.2361 36.7073 73.8596 36.8887 74.3167 37.0236C74.6539 37.1276 74.969 37.1807 75.2575 37.1807C75.9098 37.1807 76.3158 36.913 76.5422 36.6874C77.2455 35.9861 77.1701 35.3401 77.0636 35.0194C77.0458 34.9685 77.0236 34.9176 76.997 34.8689L76.9393 34.765C76.7596 34.442 76.5377 34.0416 76.2803 33.6412C76.2604 33.6124 76.2404 33.5836 76.2182 33.5549C75.9919 33.2784 75.8166 32.9399 75.6857 32.5196C76.6398 32.3691 77.7581 32.2077 79.0095 32.0705C79.0206 33.6301 79.0561 35.2273 79.1204 36.9241C79.1515 38.8443 79.0938 39.7159 79.0361 40.1119C79.0228 40.1119 79.0095 40.1119 78.9962 40.1119C78.4326 40.1119 76.9948 39.8044 73.7021 37.7537C73.6732 37.736 73.6422 37.7183 73.6111 37.705C73.2583 37.5391 73.0054 37.4683 72.7679 37.4683C72.3819 37.4683 72.0402 37.6718 71.8737 38.0014C71.5498 38.643 72.0424 39.3089 72.4018 39.7955C72.4262 39.8287 72.4529 39.8619 72.4839 39.8907C75.091 42.5298 78.2152 44.5275 81.7675 45.826C81.7853 45.8327 81.803 45.8393 81.823 45.8437C82.0315 45.9057 82.2224 45.9344 82.4065 45.9344C82.8281 45.9344 83.1964 45.7685 83.4449 45.4699C83.7534 45.0982 83.8421 44.5894 83.7112 43.9125C83.7045 43.8793 83.6957 43.8439 83.6846 43.8107C83.4871 43.1846 83.3806 42.2732 83.3806 41.176C83.3806 41.1671 83.3806 41.1561 83.3806 41.1472C83.2475 36.9816 83.2608 33.8204 83.4205 31.7276C83.6069 31.7232 83.7933 31.721 83.9775 31.721C85.6837 31.721 87.3567 31.8825 88.9521 32.2032C89.1851 32.3249 89.418 32.3868 89.6444 32.3868C89.9528 32.3868 90.9535 32.2541 90.9623 30.5441C90.9823 30.0773 91.0289 28.7345 90.1236 28.1704C90.0881 28.1482 90.0526 28.1283 90.0149 28.1129C89.8596 28.0443 89.7708 27.8739 89.722 27.7412C89.7131 27.7191 89.7065 27.6992 89.6954 27.677C89.3714 26.9669 88.9277 26.6063 88.373 26.6063C88.2465 26.6063 88.1178 26.6262 87.9958 26.6683C87.9691 26.6771 87.9425 26.6882 87.9159 26.6992C87.8493 26.728 87.4011 26.8806 85.2089 27.0842C84.8938 27.1151 84.5765 27.1483 84.2593 27.1771C84.2925 26.9647 84.2726 26.7457 84.1927 26.5378C84.0751 26.2258 83.8443 25.9493 83.4671 25.6883C84.3613 25.6816 84.9049 25.5069 85.2289 25.1197C85.4485 24.8565 85.5373 24.5224 85.4752 24.1818C85.473 24.1685 85.4707 24.1552 85.4663 24.1419C85.402 23.8654 85.3576 23.3654 85.5107 22.5602C85.5151 22.5337 85.5195 22.5071 85.5218 22.4783C85.5728 21.9474 85.3664 21.5979 85.1867 21.401C84.8894 21.0758 84.4434 20.9099 83.8599 20.9099C83.2075 20.9099 82.2867 21.1156 81.0464 21.5382C80.9909 21.5492 80.9332 21.5581 80.8778 21.5691C80.8733 21.2373 80.8778 20.8679 80.8977 20.4608C82.6772 20.1024 84.3236 19.6799 85.8013 19.2021C86.8198 18.9499 87.4033 18.2663 87.4033 17.3195V16.1359C87.4033 16.0983 87.4011 16.0629 87.3967 16.0275C87.3767 15.8638 87.217 15.0453 86.0809 15.0453C85.6815 15.0453 85.1357 15.1427 84.368 15.3506C83.1765 15.5674 82.0781 15.7643 81.0885 15.928C81.2971 13.9127 81.732 13.5676 81.7919 13.5277C82.1824 13.3353 82.4221 12.988 82.4376 12.5898C82.4687 11.8 81.6521 11.2846 80.7402 10.7846C80.7335 10.7802 80.7269 10.7757 80.718 10.7735C79.4755 10.1342 78.6967 9.85989 78.1175 9.85989L78.1198 9.85547ZM66.8614 13.1738C66.3533 13.1738 65.8363 13.5211 65.7675 14.1848C65.701 14.3728 65.4258 14.959 64.3408 16.3881C63.3401 17.6093 61.889 19.6843 59.6413 23.1066C59.4771 23.3256 59.0689 23.9052 59.3706 24.5092C59.5459 24.8587 59.9009 25.0666 60.3203 25.0666C60.4556 25.0666 60.5977 25.0467 60.7552 25.0025C60.8018 24.9892 60.8484 24.9737 60.8928 24.9516C62.6345 24.153 64.2476 23.0845 65.701 21.7682C65.6499 21.8213 65.6056 21.8788 65.5634 21.9386C65.5501 21.9585 65.5368 21.9784 65.5257 22.0005C65.326 22.3589 65.1285 22.7527 64.9665 23.1155C63.3224 26.2789 61.6671 28.8562 59.9054 30.9909C58.0216 32.8271 56.7591 34.0991 55.8139 35.1101C55.805 35.1189 55.7961 35.13 55.7872 35.141C55.5409 35.4286 54.964 36.1056 55.2902 36.8068C55.4677 37.1896 55.856 37.4174 56.3308 37.4174C56.5771 37.4174 56.8634 37.3621 57.2317 37.2449C57.2494 37.2382 57.2672 37.2338 57.2849 37.2272C59.1133 36.5148 60.3602 35.9596 61.3254 35.4264C62.5768 34.776 63.3202 33.9332 63.5354 32.92C63.542 32.8912 63.5465 32.8625 63.5487 32.8337L63.4622 39.7889C63.4622 39.9349 63.4333 39.9836 63.3889 40.0212C62.8586 40.3464 62.7699 40.7844 62.7655 41.0211C62.761 41.3352 62.8853 41.7887 63.5088 42.1626C63.5554 42.1914 63.6042 42.2135 63.6574 42.2334C64.3342 42.4834 64.8889 42.605 65.3548 42.605C66.249 42.605 66.9102 42.125 67.121 41.3242C67.141 41.2512 67.1499 41.176 67.1499 41.0985C67.1499 40.3707 67.1743 39.4703 67.2053 38.4306L67.2275 37.6497C67.2475 36.4684 67.2741 35.0526 67.3074 33.4111C67.3407 31.6834 67.3806 29.6968 67.4206 27.4492C67.4206 27.4448 67.4206 27.4381 67.4206 27.4337C67.4206 27.2258 67.4383 27.0178 67.4738 26.8076C68.1727 26.0245 68.7674 25.4405 69.2844 25.0335C69.9079 24.7414 70.0255 24.2481 70.0477 24.0402C70.1298 23.2305 69.3953 22.6487 68.6631 22.1863C67.8133 21.6222 67.2009 21.37 66.675 21.37C66.3533 21.37 66.0604 21.4718 65.8297 21.6532C66.0205 21.4762 66.2113 21.2948 66.3955 21.109C67.7223 19.7861 68.9138 18.4787 69.9389 17.2243C69.9656 17.1912 69.99 17.158 70.0122 17.1204C70.4848 16.335 69.8546 15.4966 69.6172 15.1803C69.5773 15.1272 69.5307 15.0785 69.4796 15.0365C69.0581 14.6825 68.6343 14.2688 68.1816 13.7777C68.1417 13.7357 68.0995 13.6959 68.0529 13.6627C67.5936 13.3286 67.2164 13.1716 66.8614 13.1716V13.1738Z" fill="#4196FF"/>
</g>
<defs>
<clipPath id="clip0_18_159">
<rect width="109" height="55" fill="white" transform="translate(0.90004 0.5)"/>
</clipPath>
</defs>
</svg>
