<svg width="110" height="56" viewBox="0 0 110 56" fill="none" xmlns="http://www.w3.org/2000/svg">
<path d="M9.19875 1.93799H99.2737C104.317 1.93799 108.409 6.02394 108.409 11.0545V47.2662C108.409 51.0159 105.359 54.0599 101.601 54.0599H9.19875C5.44128 54.0599 2.39098 51.0159 2.39098 47.2662V8.73169C2.39098 4.98199 5.44128 1.93799 9.19875 1.93799Z" fill="#202020"/>
<path d="M101.601 55.5H9.19873C4.64987 55.5 0.950043 51.8078 0.950043 47.2684V8.73164C0.950043 4.19218 4.64987 0.5 9.19873 0.5H99.2737C105.106 0.5 109.85 5.23413 109.85 11.0545V47.2662C109.85 51.8056 106.15 55.4978 101.601 55.4978V55.5ZM9.19873 3.37587C6.23931 3.37587 3.83187 5.77834 3.83187 8.73164V47.2662C3.83187 50.2195 6.23931 52.6219 9.19873 52.6219H101.599C104.559 52.6219 106.966 50.2195 106.966 47.2662V11.0545C106.966 6.82029 103.514 3.37587 99.2715 3.37587H9.19873Z" fill="#F7CE46"/>
<g opacity="0.5">
<path d="M98.8991 48.8634H11.901C9.52901 48.8634 7.6004 46.9388 7.6004 44.5717V11.4283C7.6004 9.06128 9.52901 7.13666 11.901 7.13666H98.8991C101.271 7.13666 103.2 9.06128 103.2 11.4283V44.5717C103.2 46.9388 101.271 48.8634 98.8991 48.8634ZM11.901 7.80032C9.897 7.80032 8.26544 9.42851 8.26544 11.4283V44.5717C8.26544 46.5715 9.897 48.1997 11.901 48.1997H98.8991C100.903 48.1997 102.535 46.5715 102.535 44.5717V11.4283C102.535 9.42851 100.903 7.80032 98.8991 7.80032H11.901Z" fill="#F7CE46"/>
</g>
<path d="M52.5659 44.7951C50.7436 44.7951 49.0811 44.3615 47.6246 43.5031C45.6517 42.3373 44.5632 40.8175 44.3881 38.9836C44.3504 38.7712 44.3216 38.5566 44.3016 38.3442C44.2861 38.3442 44.2706 38.3442 44.2551 38.3442C44.193 38.3442 44.131 38.3398 44.0689 38.3288L44.0334 38.3221L44.0002 38.3111C43.6809 38.2049 43.3462 38.1053 43.0004 38.0102C42.7831 38.7889 42.5814 39.3619 42.3619 39.8331L42.3486 39.8596C41.6105 41.1936 41.4287 41.7864 41.4087 42.0497V42.0674L41.4043 42.0851C41.3068 42.6669 41.1471 43.012 40.89 43.2067L40.8501 43.2354L40.8058 43.2554C39.602 43.7973 38.5845 44.0606 37.6934 44.0606C37.6446 44.0606 37.5958 44.0606 37.5471 44.0584C37.4651 44.0694 37.3941 44.0739 37.3276 44.0739C36.8998 44.0739 36.7468 43.846 36.6936 43.7111C36.5296 43.2907 36.9485 42.9036 37.1503 42.7178C37.1835 42.689 37.2168 42.6581 37.2478 42.6293C37.0594 42.5585 36.9086 42.4081 36.8177 42.1979C36.7845 42.1316 36.7335 42.0497 36.6737 41.9501C36.6049 41.8351 36.5229 41.7002 36.4342 41.5387C36.002 41.0166 35.6185 40.5697 35.3081 40.2091C35.246 40.1383 35.1884 40.0676 35.1308 40.0034C34.5455 40.7887 34.5189 41.1206 34.5278 41.2113V41.2312V41.2511C34.5278 41.6316 34.2662 42.0187 33.6788 42.5076C33.2243 42.9191 32.5682 43.2244 31.7391 43.3991C31.3689 43.4987 31.0851 43.5474 30.8745 43.5474C30.7482 43.5474 30.6462 43.5297 30.5597 43.5009C30.4489 43.8549 30.225 44.2641 29.7528 44.2641C29.4979 44.2641 29.2474 44.1314 28.9902 43.8549C28.5912 43.4898 28.108 43.074 27.5449 42.7377C26.8533 42.3063 26.0995 41.4325 25.235 40.0631C25.1796 39.9968 25.1042 39.9039 25.0643 39.7888C24.8803 40.1162 24.5855 40.5609 24.1089 41.1781C23.2222 42.3152 21.9209 42.9987 20.2383 43.2111C20.1076 43.262 20.0034 43.2863 19.908 43.2863C19.7041 43.2863 19.5312 43.1757 19.458 42.9965C19.3516 42.7421 19.4957 42.532 19.5977 42.4169C19.8282 41.9148 20.327 41.2666 21.0453 40.3994C21.7657 39.6052 22.3443 38.769 22.781 37.8996C23.2864 36.7006 23.5813 34.1587 23.6566 30.3493C23.6012 30.1082 23.6278 29.898 23.732 29.7233C23.8318 29.5596 24.0002 29.4467 24.2042 29.4047C24.3283 29.3848 24.6453 29.3029 25.5077 28.9689L25.5409 28.9578C25.8956 28.8516 26.5185 28.6902 27.4673 28.5265C28.0215 28.4203 28.5026 28.3672 28.8949 28.3672C29.1033 28.3672 29.2917 28.3827 29.458 28.4114C30.6129 28.6415 31.2336 28.9202 31.5307 29.3428C31.6171 29.4467 31.7103 29.5994 31.759 29.7963C31.9009 29.4998 32.1536 29.4025 32.2955 29.3693C32.4684 29.3228 32.6524 29.2698 32.8497 29.2122C33.1334 29.1304 33.4416 29.0419 33.7763 28.9534C34.2551 28.8052 35 28.6525 36.0397 28.4866C36.3655 28.4313 36.7025 28.4048 37.0416 28.4048C37.7111 28.4048 38.4072 28.5132 39.1099 28.73L39.1387 28.7388L39.1653 28.7521C39.5555 28.9313 39.7816 29.1791 39.837 29.4821C39.8459 29.5374 39.8503 29.5927 39.8481 29.648C39.9656 29.5706 40.1296 29.5109 40.3557 29.5109C40.4666 29.5109 40.8833 29.4202 42.2511 28.9954C43.4061 28.5972 44.5145 28.2986 45.5342 28.1083C45.9753 27.9889 46.4542 27.9269 46.9529 27.9269C47.3254 27.9269 47.7155 27.9601 48.1145 28.0265C49.0035 28.1813 49.8237 28.4092 49.8237 29.0353V29.1083L49.8015 29.1768C49.7106 29.4467 49.4357 29.8781 48.8195 30.7121C48.2453 31.4289 47.6956 32.8978 47.1724 35.0945C46.5938 37.2979 46.6248 38.884 47.2611 39.8198L47.3032 39.8817L47.3231 39.9547C47.4318 40.364 47.813 40.6936 48.5224 40.9989C49.1121 41.2799 49.4313 41.3529 49.5931 41.3683C49.6308 41.156 49.6752 40.7843 49.704 40.2003C49.704 39.4636 49.3426 38.2646 48.6865 36.8466C48.4581 36.4882 48.1034 35.9108 48.4958 35.5193C48.5911 35.4241 48.7219 35.371 48.8616 35.371C49.0766 35.371 49.3227 35.4728 49.9367 35.9904C51.4885 37.3797 52.537 39.0831 53.0624 41.0608L53.0691 41.0852L53.0735 41.1095C53.1733 41.7776 53.3284 42.7134 53.5279 43.1138L53.539 43.1359L53.5479 43.1602C53.8117 43.8814 53.5878 44.357 53.3528 44.6291L53.2265 44.7751L53.0336 44.7818C52.8784 44.7884 52.7232 44.7906 52.5703 44.7906L52.5659 44.7951ZM31.6171 30.7519C31.6016 30.7851 31.5839 30.8205 31.5639 30.8537L31.5462 30.8847L31.524 30.9134C31.063 31.5063 30.7703 32.8358 30.6595 34.8644C30.5065 36.9483 30.5065 38.6274 30.6573 39.864V39.8906C30.7083 40.6826 30.726 41.3927 30.7149 42.0143C30.9078 41.8196 31.1538 41.5962 31.462 41.3374C32.1403 40.7467 32.6546 40.176 33.0004 39.6295C32.9007 39.7291 32.781 39.8154 32.6391 39.8729L32.6191 39.8817L32.597 39.8884C32.4374 39.9348 32.2955 39.9569 32.1625 39.9569C31.841 39.9569 31.646 39.8198 31.5373 39.7048C31.3578 39.5123 31.2802 39.2402 31.3046 38.8752V36.1962C31.4354 33.6588 31.5396 31.8337 31.6171 30.7564V30.7519ZM38.4892 39.7202L38.5247 39.7556C38.7087 39.9392 38.784 40.2379 38.6111 41.2135L38.6067 41.2378C38.5956 41.2821 38.5845 41.3263 38.5734 41.3706C39.1454 40.7865 39.5045 40.3397 39.6464 40.0344L39.6552 40.0167L39.6641 40.0012C40.0631 39.3043 40.4045 38.4062 40.6816 37.3288C40.3136 37.1297 39.9634 36.8886 39.6508 36.6209C39.5511 36.5855 39.4602 36.5236 39.387 36.4417C39.1631 36.1851 39.1166 35.7449 39.2274 34.9684C39.3183 34.0946 39.5156 33.5614 39.8614 33.2562C40.0299 33.0925 40.2139 33.0106 40.4067 33.0106C40.8124 33.0106 41.0363 33.3601 41.1361 33.546C41.1538 33.5637 41.1715 33.5791 41.1893 33.5968C41.2358 32.9022 41.2935 32.2518 41.3622 31.6545C41.2469 31.6899 41.1338 31.7275 41.0164 31.7651C40.8501 31.878 40.6838 31.9355 40.5154 31.9355C40.2626 31.9355 39.8215 31.8072 39.6552 30.9555C39.5865 30.7785 39.5178 30.5617 39.5134 30.3471C39.5023 30.3604 39.489 30.3736 39.4757 30.3869C39.1653 30.8847 39.0412 31.8359 39.1121 33.2163C39.1121 34.8313 39.1121 36.4771 39.1498 38.2668C39.1498 38.6562 39.1498 39.6605 38.4271 39.6848C38.4316 39.6871 38.487 39.7225 38.487 39.7225L38.4892 39.7202ZM25.5121 39.1539C25.6562 39.1539 25.8136 39.207 26.1328 39.3685C26.8533 39.7158 27.3011 39.7888 27.5471 39.7888C27.7045 39.7888 27.8286 39.7601 27.9173 39.7048C27.9594 39.5543 28.0525 38.9991 28.0525 37.0545V32.4487C27.9727 31.1634 27.7821 30.7143 27.6713 30.5595C27.6003 30.5661 27.474 30.6037 27.2589 30.7232C26.9065 30.8979 26.6183 31.0439 26.4764 31.1833L26.4454 31.2143L26.4099 31.2386C26.3345 31.2873 26.2902 31.3227 26.2636 31.347V31.409L26.1661 31.5306C26.1372 31.566 26.1106 31.6058 26.084 31.6545C26.2813 31.6169 26.4831 31.5682 26.6936 31.5151C26.7646 31.493 26.8377 31.482 26.9087 31.482C27.1148 31.482 27.6025 31.5793 27.6779 32.4775V32.4952V32.5129C27.6779 33.1721 27.5161 33.546 27.1836 33.6588L27.1503 33.6676C26.8577 33.7406 26.6161 33.8092 26.3766 33.911L26.3589 33.9176L26.3412 33.9242C25.9843 34.0437 25.6872 34.1853 25.4766 34.3379C25.4146 34.5592 25.3636 34.7959 25.3237 35.0458C25.8202 34.9352 26.2968 34.7892 26.7579 34.6499C26.8267 34.6277 26.9042 34.6145 26.9818 34.6145C27.2744 34.6145 27.6513 34.7804 27.7843 35.5723C27.8286 35.8378 27.9639 36.6431 27.341 36.8001C26.8089 36.9329 26.3722 37.0811 25.9643 37.2691L25.9422 37.2802L25.92 37.289C25.6008 37.3952 25.3702 37.5147 25.2306 37.643C25.2394 38.008 25.2749 38.4327 25.3392 38.9106L25.3436 38.9393V38.9681C25.3436 39.0322 25.337 39.1075 25.3148 39.1982C25.3747 39.1738 25.4412 39.1605 25.5099 39.1605L25.5121 39.1539ZM33.5302 37.0014C34.4857 36.7957 35.4456 36.5855 36.2857 36.3931C36.2946 36.1696 36.3101 35.9042 36.3256 35.5967V35.548C36.2746 35.6608 36.1948 35.7493 36.0773 35.809L36.0264 35.8334L35.9709 35.8444C35.4589 35.9551 34.9357 36.1033 34.4214 36.2869L34.3948 36.2957C34.0246 36.4019 33.7408 36.5457 33.5302 36.7382V37.0014ZM43.4992 35.4905C43.7696 35.7029 44.0312 35.8843 44.2972 36.0369C44.3482 35.3312 44.4723 34.641 44.6652 33.9729C44.9622 32.4841 44.9822 31.4864 44.7251 31.0041C44.6608 30.9864 44.5832 30.9798 44.4967 30.9798C44.4302 30.9798 44.3571 30.9842 44.2795 30.9953V31.1081L44.1531 31.17C44.0711 31.4311 43.9248 32.2474 43.6632 34.5105L43.6588 34.5392C43.6011 34.86 43.5413 35.1874 43.4992 35.4905ZM35.7382 33.807C35.9576 33.807 36.217 33.9043 36.3544 34.3092V33.0327C36.2946 33.088 36.2236 33.1323 36.135 33.1632L36.1039 33.1743L36.0707 33.1809C35.4034 33.2982 34.7362 33.4486 34.0844 33.63C33.9514 33.6632 33.7896 33.7074 33.6677 33.7583C33.6389 33.9065 33.6211 34.057 33.6123 34.2118C33.6632 34.2362 33.7076 34.2406 33.7431 34.2406C33.7785 34.2406 33.8162 34.2362 33.8583 34.2251C34.0113 34.1897 34.162 34.1543 34.3172 34.1167C34.6852 34.0282 35.1019 33.9265 35.5342 33.8446C35.6029 33.8225 35.6717 33.8114 35.7382 33.8114V33.807ZM35.2859 30.721C34.7162 30.9333 34.4081 31.1501 34.366 31.3669C34.8093 31.2829 35.2682 31.1966 35.7515 31.1236C35.7914 31.1147 35.8335 31.1103 35.8756 31.1103C36.0574 31.1103 36.1948 31.19 36.3012 31.305C36.248 30.8913 36.1904 30.6723 36.1527 30.5617C36.0241 30.5617 35.7714 30.5949 35.2882 30.721H35.2859ZM32.0915 29.2432C31.8987 29.2432 31.728 29.168 31.6105 29.0286C31.5573 28.9667 31.4974 28.8671 31.4708 28.7255C31.4487 28.6857 31.4199 28.6393 31.391 28.5862C31.3112 28.4424 31.2004 28.2499 31.0563 28.0199C30.0831 27.0354 29.4536 25.8917 29.2319 24.6993C29.0501 24.4803 28.9814 24.2547 29.0235 24.0268C29.0568 23.852 29.172 23.6087 29.5444 23.445L29.6664 23.3919L29.7972 23.414C29.8105 23.414 29.8459 23.4207 29.9235 23.4207C30.6262 23.4207 32.5815 23.0512 34.1554 22.7371C33.5458 22.7835 32.9073 22.8322 32.2423 22.8787C32.178 22.8875 32.0938 22.8919 32.0095 22.8919C31.2691 22.8919 30.307 22.4827 29.939 20.5337C29.8304 19.9342 29.7351 19.5825 29.6686 19.3856C29.4092 19.4387 29.2274 19.4851 29.1255 19.5272L29.0967 19.5382L29.0656 19.5449C27.7511 19.8634 26.5739 20.2882 25.5697 20.8058L25.5498 20.8147C25.3591 20.901 25.1884 20.943 25.0222 20.943C24.816 20.943 24.3239 20.8656 24.1377 20.1554C24.0091 19.7683 23.8805 19.3325 23.732 18.8281L23.6433 18.525C23.5037 18.1224 23.5192 17.795 23.6921 17.5539C23.8029 17.399 24.0246 17.2132 24.4636 17.2132C24.6342 17.2132 24.8315 17.2397 25.0599 17.2951C27.9306 17.0783 30.174 16.8194 31.5506 16.5451C32.8009 16.2597 34.2174 15.9589 35.8734 15.6293L35.9022 15.6248C35.9931 15.6138 36.0818 15.6005 36.1727 15.5894C35.8202 15.5319 35.5342 15.4965 35.3258 15.4744C34.4325 15.4656 34.182 14.9435 34.1133 14.6315C33.967 13.8108 34.0024 13.2666 34.2241 12.8529C34.7074 11.7446 35.2483 11.2048 35.8756 11.2048C36.2214 11.2048 36.5539 11.3752 36.8576 11.7114L37.4606 12.3132L37.4894 12.3596C37.6934 12.7003 37.9151 12.9458 38.1478 13.0896L38.1633 13.0985L38.4094 13.2799C38.6222 13.437 38.8217 13.5852 38.9991 13.7334L39.0345 13.7622L39.0634 13.7975C39.3582 14.1648 39.2806 14.6338 38.8328 15.189C38.804 15.2266 38.7707 15.262 38.7331 15.2996C39.7129 15.2089 40.7082 15.1359 41.7124 15.0806C43.4836 14.9479 45.3391 14.8174 46.8643 14.7753C46.9064 14.7709 46.9463 14.7687 46.9862 14.7687C47.7089 14.7687 48.1877 15.4611 48.4094 16.8261C48.5313 17.7596 48.4781 18.2507 48.232 18.5295C48.1079 18.671 47.935 18.7485 47.7488 18.7485C47.5825 18.7485 47.4162 18.6887 47.2367 18.5693C46.4963 18.1401 45.1529 17.9233 43.2376 17.9233C41.5417 17.9233 39.3848 18.0981 36.8244 18.4432L36.4165 18.4896C35.0111 18.6534 33.8827 18.7839 32.9384 18.9144C32.8519 19.0405 32.7987 19.2064 32.7721 19.4188C32.8142 19.8413 32.9162 20.0537 33.078 20.0537C33.1312 20.0537 33.1977 20.0426 33.2731 20.0205L33.3152 20.0072L33.3595 20.0028C36.3633 19.7351 39.2407 19.4254 41.9097 19.0892C42.0405 19.0715 42.1624 19.0626 42.2733 19.0626C42.6324 19.0626 42.8918 19.1644 43.0492 19.3635C43.1799 19.5294 43.2198 19.7484 43.1622 19.9785L43.1533 20.0161L43.1378 20.0515C42.9804 20.4054 42.8962 20.693 42.8674 20.985L42.8629 21.0271L42.8496 21.0669C42.6834 21.6199 42.2223 21.9429 41.5816 21.954C41.0008 22.0447 40.3181 22.1354 39.5355 22.2261C40.2626 22.2858 40.921 22.4163 41.5307 22.6198C43.845 23.3609 44.2551 23.8388 44.3548 24.2458C44.4125 24.487 44.3393 24.7303 44.1531 24.9183L44.0733 24.998L43.9669 25.0312C43.7785 25.0887 43.4171 25.3254 42.7721 26.1417C42.0849 27.0111 41.9142 27.427 41.872 27.5708C41.8454 28.0575 41.5018 28.3827 40.9432 28.4446L40.8966 28.449L40.8501 28.4446C39.7506 28.334 38.7109 28.2765 37.7577 28.2765C35.5409 28.2765 33.7497 28.5773 32.4329 29.1702L32.413 29.1791L32.3908 29.1857C32.2866 29.2211 32.1891 29.2366 32.096 29.2366L32.0915 29.2432ZM32.9007 26.1262C32.9561 26.1461 33.1534 26.2014 33.6854 26.2014C34.1487 26.2014 34.7561 26.1616 35.4877 26.082C37.0084 25.9138 38.2454 25.6661 38.9703 25.3851C39.2185 25.2944 39.285 25.1993 39.3006 25.1219C39.0368 24.7701 38.323 24.5754 37.2722 24.5754C36.9352 24.5754 36.5584 24.5953 36.1527 24.633C33.9248 24.8763 33.0093 25.2103 32.6413 25.4736C32.577 25.8121 32.7255 25.9846 32.8696 26.0997L32.9029 26.1262H32.9007Z" fill="black"/>
<path d="M35.869 11.6474C36.0885 11.6474 36.3079 11.7712 36.5296 12.0168L37.1038 12.5898C37.3343 12.9725 37.6003 13.2778 37.9062 13.468C38.2122 13.6981 38.4804 13.8883 38.7087 14.0786C38.8617 14.2688 38.7841 14.5365 38.4782 14.9192C38.2476 15.2068 37.9062 15.344 37.474 15.344C37.3343 15.344 37.1836 15.3307 37.024 15.3019C36.2968 15.1493 35.7227 15.0719 35.3414 15.0342C34.8825 15.0342 34.6143 14.8816 34.5389 14.5387C34.4237 13.8905 34.4237 13.3928 34.6143 13.0499C35.0178 12.1163 35.4389 11.6496 35.8668 11.6496M46.9796 15.2156C47.434 15.2156 47.7843 15.7886 47.9638 16.9014C48.0835 17.8283 48.0148 18.3105 47.7421 18.3105C47.6668 18.3105 47.5759 18.2729 47.4673 18.1999C46.6604 17.7243 45.2505 17.4854 43.231 17.4854C41.5152 17.4854 39.3582 17.6579 36.7579 18.0097C35.1131 18.1999 33.7741 18.3526 32.7034 18.5052C32.4729 18.7353 32.3598 19.0406 32.3199 19.4211C32.382 20.1422 32.6258 20.5028 33.0714 20.5028C33.1689 20.5028 33.2754 20.4851 33.3906 20.452C36.3744 20.1843 39.243 19.879 41.9585 19.5361C42.0738 19.5206 42.1758 19.514 42.2667 19.514C42.6258 19.514 42.7854 19.6356 42.7255 19.8812C42.5726 20.2241 42.4573 20.5692 42.4196 20.9497C42.3044 21.3324 41.9984 21.5227 41.5396 21.5227C39.5888 21.8279 36.4919 22.1332 32.2069 22.4385C32.1381 22.4474 32.0716 22.4518 32.0073 22.4518C31.165 22.4518 30.6196 21.766 30.3714 20.4542C30.2184 19.6157 30.0654 19.118 29.9502 18.9277L29.9125 18.8901C29.4913 18.9653 29.1477 19.0428 28.957 19.1202C27.6957 19.4255 26.472 19.8458 25.3614 20.4188C25.2328 20.4763 25.1176 20.5073 25.0178 20.5073C24.7917 20.5073 24.6387 20.3546 24.5589 20.0383C24.406 19.5803 24.253 19.045 24.0624 18.3968C23.8917 17.9123 24.018 17.6624 24.4614 17.6624C24.6121 17.6624 24.7961 17.6911 25.02 17.7486C28.0792 17.5186 30.2982 17.2531 31.6371 16.9854C32.9761 16.6801 34.4281 16.3748 35.9599 16.0696C37.6801 15.8395 39.6309 15.6492 41.7346 15.5342C43.7608 15.3816 45.4832 15.2665 46.8976 15.2289C46.9264 15.2245 46.9552 15.2223 46.984 15.2223M38.5336 22.6354C39.6065 22.6354 40.5553 22.7703 41.3866 23.0469C43.4128 23.6951 44.2174 24.2304 43.8339 24.6109C43.4504 24.7259 42.9916 25.1463 42.4196 25.8697C41.8477 26.5931 41.5019 27.1682 41.4243 27.5111C41.4243 27.8164 41.2336 27.969 40.8878 28.0067C39.7639 27.8938 38.7176 27.8363 37.7511 27.8363C35.4589 27.8363 33.6145 28.1527 32.2445 28.7699C32.1847 28.7898 32.1337 28.7986 32.0894 28.7986C31.963 28.7986 31.9009 28.7212 31.9009 28.5796C31.8234 28.4646 31.6704 28.1593 31.4044 27.739C30.4489 26.7855 29.8371 25.6772 29.6442 24.4937C29.376 24.226 29.376 23.9981 29.7196 23.8455C29.7706 23.8543 29.8371 23.8588 29.9191 23.8588C30.562 23.8588 32.1404 23.5911 34.6542 23.0823C36.0973 22.7858 37.3853 22.6332 38.5336 22.6332M33.6855 26.6417C34.1576 26.6417 34.7739 26.6019 35.5343 26.52C37.2545 26.3298 38.4405 26.0621 39.1299 25.7944C39.5511 25.6418 39.7794 25.3741 39.7417 24.9936C39.438 24.4207 38.609 24.1331 37.27 24.1331C36.9175 24.1331 36.5296 24.153 36.1084 24.1928C34.0047 24.4229 32.7433 24.7658 32.2468 25.2237C32.0938 25.7192 32.2091 26.1395 32.5904 26.4448C32.699 26.5754 33.067 26.6439 33.6855 26.6439M46.9508 28.3717C47.2944 28.3717 47.6579 28.4026 48.0392 28.4668C48.9193 28.6194 49.3781 28.8097 49.3781 29.0398C49.3006 29.2698 48.9946 29.7278 48.4604 30.4511C47.8486 31.2144 47.2744 32.7408 46.7402 34.9928C46.1283 37.3201 46.166 39.0013 46.8931 40.0698C47.0461 40.6428 47.5426 41.0631 48.3473 41.406C48.9215 41.6781 49.3582 41.8153 49.6597 41.8153C49.7794 41.8153 49.8791 41.7932 49.9545 41.7489C50.0299 41.5587 50.1075 41.0233 50.1452 40.2225C50.1452 39.4217 49.8015 38.2005 49.0744 36.6343C48.8062 36.214 48.6909 35.9463 48.8062 35.8335C48.8195 35.8202 48.8372 35.8135 48.8594 35.8135C48.9769 35.8135 49.2318 35.9773 49.6464 36.329C51.1383 37.6652 52.1314 39.3066 52.6302 41.1759C52.7831 42.2068 52.9361 42.9324 53.1267 43.3129C53.2797 43.7333 53.242 44.0762 53.0115 44.3438C52.8607 44.3505 52.7122 44.3527 52.5637 44.3527C50.7969 44.3527 49.2252 43.9324 47.8486 43.1227C45.9754 42.0166 44.98 40.603 44.8271 38.9239C44.7495 38.5036 44.7118 38.0833 44.7118 37.7028C44.5854 37.8289 44.4325 37.9041 44.2529 37.9041C44.2152 37.9041 44.1775 37.9019 44.1376 37.8952C43.794 37.7802 43.2953 37.6276 42.6834 37.4749C42.4529 38.3532 42.2245 39.0788 41.9563 39.6495C41.3445 40.7556 41.0009 41.5587 40.961 42.0166C40.8834 42.4745 40.7703 42.7422 40.6174 42.8572C39.5068 43.3572 38.5292 43.6249 37.6868 43.6249C37.6314 43.6249 37.5737 43.6249 37.5183 43.6204C37.4407 43.6315 37.3764 43.6359 37.3188 43.6359C36.9818 43.6359 37.0151 43.439 37.4407 43.0475C38.9326 41.7113 39.7728 40.7954 40.041 40.2225C40.4999 39.4217 40.8812 38.3908 41.1893 37.0922C40.6927 36.8621 40.2339 36.5569 39.8504 36.214C39.6198 36.214 39.5444 35.8312 39.6597 35.0304C39.7351 34.3048 39.8903 33.8093 40.1563 33.5792C40.2427 33.4929 40.3225 33.4509 40.4001 33.4509C40.5287 33.4509 40.6484 33.5704 40.7681 33.8093C40.9987 34.0394 41.2647 34.2672 41.5706 34.5349C41.646 33.0461 41.7612 31.9024 41.8765 31.0617C41.493 31.1391 41.1494 31.252 40.8058 31.367C40.6994 31.4489 40.5996 31.4931 40.511 31.4931C40.3115 31.4931 40.1585 31.2807 40.0787 30.8339C39.8481 30.2609 39.9257 29.9556 40.3469 29.9556C40.5775 29.9556 41.2647 29.7654 42.3731 29.4203C43.4815 29.0398 44.5921 28.7323 45.6251 28.542C46.0264 28.4314 46.4653 28.3717 46.9441 28.3717M44.714 36.7869C44.714 35.9087 44.8293 34.9928 45.0953 34.077C45.4389 32.3603 45.4389 31.2144 45.0199 30.6414C44.8869 30.575 44.714 30.533 44.4968 30.533C44.3394 30.533 44.1576 30.5551 43.9492 30.6016C43.8738 30.7166 43.8339 30.7918 43.8339 30.8316C43.681 30.9091 43.4903 32.1302 43.2221 34.4575C43.1467 34.8778 43.0691 35.2981 43.0315 35.6786C43.4903 36.0591 43.9869 36.4042 44.561 36.6719C44.561 36.7095 44.5987 36.7471 44.714 36.7869ZM28.8928 28.8097C29.0745 28.8097 29.2364 28.823 29.376 28.8473C30.3314 29.0375 30.9433 29.2676 31.1738 29.6105C31.4044 29.8782 31.4044 30.2211 31.1738 30.6414C30.6374 31.3294 30.3314 32.7408 30.2184 34.8402C30.0654 36.9396 30.0654 38.6562 30.2184 39.9172C30.2938 41.1759 30.2938 42.2068 30.2184 43.0099C30.1231 43.5585 29.9679 43.824 29.7506 43.824C29.6221 43.824 29.4713 43.7288 29.3006 43.543C28.8418 43.1227 28.3452 42.7024 27.7711 42.3595C27.1592 41.9768 26.4321 41.1383 25.5919 39.8022C25.4722 39.6628 25.4456 39.5964 25.5121 39.5964C25.5742 39.5964 25.7139 39.6539 25.9355 39.7646C26.5829 40.0765 27.126 40.2313 27.5494 40.2313C27.8531 40.2313 28.0947 40.1517 28.2698 39.9924C28.4228 39.8398 28.5004 38.8465 28.5004 37.0546V32.4355C28.4228 31.1768 28.2321 30.4135 27.8885 30.1459C27.8287 30.1259 27.7666 30.1171 27.7023 30.1171C27.5161 30.1171 27.3033 30.1967 27.0462 30.3383C26.6627 30.5286 26.3567 30.6812 26.1661 30.8737C25.9355 31.0263 25.8225 31.1414 25.8225 31.2564C25.6695 31.4466 25.5543 31.7143 25.439 32.1346C25.4767 32.1722 25.5343 32.1922 25.6119 32.1922C25.6895 32.1922 25.7848 32.1722 25.8979 32.1346C26.2038 32.097 26.5097 32.0196 26.8156 31.9444C26.8489 31.9333 26.8799 31.9289 26.9087 31.9289C27.0861 31.9289 27.2036 32.1258 27.2368 32.5174C27.2368 32.9377 27.1592 33.2053 27.0462 33.243C26.7402 33.3182 26.472 33.3956 26.2038 33.5106C25.7449 33.6633 25.3636 33.8535 25.0954 34.0836C24.9424 34.5791 24.8648 35.0769 24.8272 35.495C24.9047 35.5326 24.989 35.5525 25.0799 35.5525C25.1708 35.5525 25.2661 35.5326 25.3614 35.495C25.8979 35.38 26.3944 35.2273 26.891 35.0747C26.9242 35.0636 26.9553 35.0592 26.9841 35.0592C27.1614 35.0592 27.2834 35.2561 27.3499 35.6476C27.4252 36.1056 27.3875 36.3356 27.2346 36.3732C26.7757 36.4883 26.2792 36.6409 25.7804 36.8688C25.3215 37.0214 24.9779 37.2117 24.785 37.4793C24.785 37.8997 24.8227 38.3952 24.9003 38.9682C24.9003 39.2734 24.5168 39.9216 23.752 40.9149C22.9495 41.9458 21.7259 42.594 20.1187 42.7842C20.0189 42.8263 19.9458 42.8484 19.9014 42.8484C19.8305 42.8484 19.846 42.7886 19.9657 42.6692C20.1564 42.2113 20.6551 41.5631 21.38 40.6848C22.1071 39.884 22.719 39.0058 23.1779 38.0899C23.7143 36.8312 24.0202 34.234 24.0956 30.3029C24.0202 30.0352 24.0956 29.8826 24.2863 29.845C24.5168 29.8074 24.9757 29.6548 25.6629 29.3871C26.0464 29.272 26.6582 29.1194 27.5361 28.9668C28.0725 28.865 28.5225 28.8141 28.8883 28.8141M37.0395 28.8473C37.669 28.8473 38.3141 28.9491 38.9769 29.1526C39.4735 29.3826 39.5511 29.6879 39.1299 30.106C38.7464 30.679 38.5934 31.7099 38.671 33.2363C38.671 34.8004 38.671 36.4816 38.7087 38.2735C38.7087 38.9261 38.6156 39.2381 38.4006 39.2381C38.3762 39.2381 38.3518 39.2336 38.3252 39.227C38.0193 39.1518 37.5981 38.9969 37.1015 38.7315C36.4897 38.5014 36.1838 38.3111 36.2215 38.1961H35.9532C35.7227 38.4638 35.532 38.6916 35.4168 38.8841C36.4498 39.1894 37.4052 39.5721 38.2077 40.0676C38.2853 40.1428 38.2853 40.4879 38.17 41.1361C38.0171 41.7843 37.8264 42.167 37.6336 42.2046C37.5848 42.2245 37.5382 42.2334 37.4939 42.2334C37.3698 42.2334 37.27 42.1537 37.2124 42.0144C37.137 41.8617 36.9818 41.6317 36.7912 41.2888C36.0641 40.4105 35.4899 39.7623 35.1086 39.3044C34.3815 40.1827 34.0379 40.8308 34.0756 41.2512C34.0756 41.4812 33.8451 41.7865 33.3862 42.167C32.965 42.5497 32.3532 42.8152 31.6261 42.9678C31.2913 43.0585 31.0364 43.1028 30.8657 43.1028C30.3115 43.1028 30.6019 42.6316 31.7413 41.6693C32.9273 40.6384 33.6544 39.6473 33.8828 38.6916C33.5768 38.7668 33.3086 38.8443 33.0803 38.8819H32.965C32.812 39.1872 32.6591 39.3774 32.4684 39.4548C32.3487 39.488 32.2445 39.5057 32.1559 39.5057C31.8433 39.5057 31.7125 39.2978 31.7413 38.8819V36.2095C31.8943 33.2319 32.0096 31.2852 32.0849 30.3317C32.0849 29.9888 32.2002 29.8361 32.3909 29.7963C32.812 29.6813 33.3086 29.5287 33.8828 29.376C34.3793 29.2234 35.1441 29.0707 36.1018 28.9181C36.4077 28.8672 36.718 28.8407 37.0328 28.8407M33.5458 31.9776C33.5458 31.9776 33.5835 31.9776 33.6988 31.94C34.3483 31.8249 35.0754 31.6723 35.8402 31.5573C35.8513 31.5528 35.8623 31.5506 35.8734 31.5506C35.9776 31.5506 36.0796 31.7121 36.1838 32.0904C36.1838 32.5107 36.1062 32.701 35.9931 32.7386C35.3436 32.8536 34.6542 33.0063 33.967 33.1965C33.6611 33.2717 33.4305 33.3491 33.2776 33.4642C33.2 33.7695 33.1623 34.0747 33.1623 34.4176C33.3352 34.5902 33.5281 34.6743 33.7431 34.6743C33.814 34.6743 33.8894 34.6654 33.9648 34.6455C34.4613 34.5305 35.0355 34.3778 35.6473 34.265C35.6784 34.2517 35.7072 34.2451 35.736 34.2451C35.8757 34.2451 35.9599 34.4088 35.9909 34.7605C35.9909 35.1809 35.9532 35.3711 35.8757 35.4087C35.3392 35.5237 34.8049 35.6764 34.2685 35.8666C33.732 36.0193 33.3507 36.2494 33.0825 36.5546V37.5479C34.4968 37.2426 35.7227 36.975 36.7158 36.7471C36.7158 36.4042 36.7535 35.8312 36.7934 35.1056V31.7851C36.7158 30.9069 36.6028 30.3737 36.4498 30.1813C36.3922 30.1392 36.2968 30.1171 36.1616 30.1171C35.9377 30.1171 35.603 30.1768 35.1485 30.2963C34.4214 30.564 34.0002 30.8693 33.9249 31.2896C33.7719 31.4046 33.6566 31.6325 33.5414 31.9776M35.869 10.7625C34.6675 10.7625 34.0401 12.1517 33.8185 12.6628C33.4815 13.3087 33.5613 14.083 33.6677 14.6891L33.6722 14.7091L33.6766 14.729C33.7209 14.9258 33.8362 15.2643 34.1421 15.5298C33.1623 15.7333 32.2734 15.9258 31.4487 16.1138C30.0987 16.3815 27.9018 16.6359 25.0909 16.8505C24.856 16.7974 24.6498 16.773 24.4614 16.773C23.8008 16.773 23.4683 17.1027 23.3286 17.3018C23.0714 17.6646 23.0338 18.1247 23.22 18.6645L23.3064 18.9565C23.455 19.4609 23.5813 19.8967 23.7121 20.2882C23.987 21.3125 24.7828 21.3921 25.0222 21.3921C25.2616 21.3921 25.4833 21.3368 25.7338 21.224L25.7538 21.2152L25.7737 21.2041C26.7469 20.7019 27.8885 20.2905 29.1699 19.9808L29.2319 19.9653L29.2918 19.9409C29.3051 19.9365 29.3272 19.9277 29.3605 19.9188C29.4026 20.0958 29.4536 20.3236 29.5068 20.6134C29.6398 21.3147 29.9546 22.3368 30.7017 22.9097C30.3758 22.954 30.1031 22.9805 29.928 22.9805C29.8859 22.9805 29.8681 22.9805 29.8659 22.9805L29.6021 22.9363L29.3671 23.0447C28.7908 23.3013 28.6334 23.7216 28.5913 23.9517C28.5469 24.1884 28.5602 24.5246 28.8218 24.8896C29.0723 26.1108 29.7174 27.2766 30.6972 28.2854C30.3824 28.1726 30.0056 28.0752 29.5578 27.9867H29.5511L29.5445 27.9845C29.3494 27.9491 29.141 27.9314 28.9016 27.9314C28.4782 27.9314 27.9839 27.9867 27.392 28.0974C26.4255 28.2655 25.787 28.4314 25.4213 28.5398L25.388 28.5509L25.3547 28.5641C24.4747 28.9048 24.2131 28.9645 24.1532 28.9734H24.1399L24.1266 28.9778C23.7986 29.042 23.5281 29.2278 23.3618 29.4999C23.2488 29.6835 23.1402 29.9822 23.22 30.3958C23.1247 35.0017 22.7168 36.9219 22.3842 37.7205C21.9653 38.5478 21.4111 39.3464 20.7349 40.092L20.7216 40.1074L20.7083 40.1229C19.9724 41.0122 19.4802 41.6516 19.2231 42.1869C18.8972 42.6006 18.9726 42.9745 19.0546 43.1714C19.1965 43.5143 19.5334 43.7355 19.9147 43.7355C20.0522 43.7355 20.1896 43.7089 20.3514 43.6492C22.1071 43.4147 23.5281 42.6603 24.4636 41.4591C24.7074 41.145 24.907 40.8684 25.0732 40.6273C25.8912 41.8728 26.625 42.6891 27.31 43.1161L27.3166 43.1205L27.3233 43.1249C27.8464 43.439 28.3031 43.8306 28.6844 44.1779C28.8351 44.3394 29.2164 44.7155 29.7617 44.7155C30.1186 44.7155 30.5487 44.5717 30.8435 43.9987C30.8568 43.9987 30.8701 43.9987 30.8834 43.9987C31.1339 43.9987 31.4421 43.9478 31.8522 43.8395C32.7455 43.6492 33.4616 43.3152 33.9847 42.8462C34.4503 42.4568 34.9778 41.9281 34.9778 41.2622V41.1959C34.9778 41.1671 35.0044 41.0322 35.1774 40.7446C35.4389 41.0499 35.7404 41.4038 36.0729 41.8042C36.1594 41.9569 36.237 42.0852 36.2991 42.1914C36.35 42.2754 36.3966 42.3551 36.4232 42.4037C36.4675 42.5033 36.523 42.5962 36.5872 42.678C36.3434 42.9612 36.0929 43.3904 36.2858 43.8859C36.3456 44.0363 36.5961 44.5297 37.3321 44.5297C37.4075 44.5297 37.4873 44.5252 37.5715 44.5142C37.6136 44.5142 37.6557 44.5142 37.6979 44.5142C38.6533 44.5142 39.7307 44.2376 40.9942 43.6691L41.0829 43.6293L41.1605 43.5696C41.6194 43.2267 41.7679 42.6404 41.8477 42.167L41.8543 42.1316V42.0962C41.8676 41.9834 41.9585 41.5056 42.7455 40.0831L42.761 40.0566L42.7743 40.03C42.9627 39.6274 43.1357 39.1584 43.3152 38.5655C43.5391 38.6319 43.7253 38.6916 43.8716 38.7403L43.9137 38.7536C43.927 38.8531 43.9426 38.9527 43.9603 39.05C44.1532 41.0233 45.3148 42.6515 47.4096 43.8903C48.937 44.7885 50.675 45.2442 52.577 45.2442C52.7366 45.2442 52.8984 45.242 53.058 45.2354L53.4437 45.2199L53.6965 44.9256C53.9514 44.6292 54.326 43.9877 53.9713 43.0165L53.9536 42.9678L53.9314 42.9214C53.8029 42.667 53.6654 42.0365 53.5191 41.0499L53.5125 41.0012L53.4992 40.9525C52.9494 38.8885 51.8565 37.1121 50.2516 35.6742L50.2427 35.6653L50.2338 35.6565C49.5932 35.1145 49.2496 34.9309 48.8727 34.9309C48.6133 34.9309 48.3739 35.0282 48.1922 35.2074C47.567 35.8312 48.0525 36.6608 48.3052 37.059C49.1299 38.8487 49.2651 39.7911 49.2695 40.2026C49.2584 40.4459 49.2429 40.6472 49.2274 40.8131C49.0988 40.7667 48.9392 40.6981 48.7397 40.6052L48.7242 40.5986L48.7087 40.5919C48.15 40.353 47.833 40.1008 47.7621 39.842L47.7244 39.6982L47.6402 39.5743C47.0793 38.7492 47.0682 37.2825 47.6114 35.2185V35.2074L47.6158 35.1963C48.2476 32.5417 48.8084 31.4511 49.1675 31.002L49.1786 30.9887L49.1897 30.9754C49.8525 30.0773 50.1252 29.6437 50.236 29.3185L50.2826 29.1813V29.0375C50.2826 27.9536 48.8816 27.7102 48.2099 27.593C47.7798 27.5222 47.3653 27.4846 46.9685 27.4846C46.4342 27.4846 45.9244 27.5487 45.45 27.677C44.4192 27.8695 43.2997 28.1726 42.1226 28.5774C41.8566 28.6593 41.6304 28.7278 41.4376 28.7854C41.943 28.5973 42.2711 28.1903 42.3221 27.6593C42.3664 27.5421 42.5349 27.1704 43.1334 26.4161C43.8073 25.5666 44.0778 25.4648 44.1066 25.456L44.3194 25.3918L44.479 25.2348C44.7783 24.9361 44.8936 24.5401 44.7982 24.1463C44.6076 23.3632 43.6278 22.8566 42.0915 22.339C42.679 22.1908 43.109 21.7881 43.2864 21.1997L43.3108 21.1178L43.3196 21.0338C43.344 20.7904 43.4172 20.5449 43.5546 20.2374L43.5857 20.1666L43.6034 20.0914C43.6943 19.7263 43.6256 19.3724 43.4083 19.0959C43.1645 18.7839 42.7854 18.6247 42.2844 18.6247C42.1558 18.6247 42.014 18.6357 41.861 18.6556C39.2008 18.9919 36.3301 19.2994 33.3308 19.5671L33.2554 19.5737C33.2465 19.5339 33.2399 19.4852 33.231 19.4277C33.2377 19.3879 33.2443 19.3525 33.251 19.3237C34.1399 19.2043 35.1929 19.0826 36.4786 18.9322L36.8776 18.8857H36.8865H36.8954C39.4358 18.5428 41.5728 18.3703 43.2487 18.3703C45.5121 18.3703 46.5451 18.6822 47.015 18.9499C47.2611 19.1136 47.5138 19.1954 47.7621 19.1954C48.0791 19.1954 48.3695 19.0649 48.5779 18.826C48.9171 18.4411 48.9991 17.8504 48.8638 16.7885V16.7753L48.8594 16.762C48.5335 14.7533 47.669 14.333 46.9995 14.333C46.9485 14.333 46.8975 14.3352 46.8466 14.3418C45.3192 14.3839 43.4682 14.5144 41.6925 14.6471C40.9876 14.6847 40.2893 14.7334 39.5954 14.7887C39.8193 14.1848 39.6065 13.7578 39.4203 13.5255L39.3649 13.4547L39.2962 13.3972C39.1077 13.2401 38.9038 13.0897 38.6865 12.9282C38.6134 12.8729 38.5358 12.8176 38.4582 12.7579L38.4272 12.7358L38.3961 12.7158C38.2255 12.6097 38.0481 12.4084 37.8841 12.1318L37.8286 12.0389L37.7511 11.9615L37.4451 11.6562L37.1924 11.404C36.707 10.8731 36.217 10.7603 35.889 10.7603L35.869 10.7625ZM36.1971 25.071C36.5872 25.0334 36.9486 25.0157 37.2678 25.0157C37.7488 25.0157 38.1057 25.0578 38.3673 25.1153C37.8286 25.2724 36.9131 25.4759 35.4345 25.6396C34.7207 25.717 34.131 25.7568 33.6832 25.7568C33.3574 25.7568 33.1845 25.7347 33.1047 25.7214L33.1002 25.717C33.4726 25.5423 34.3172 25.2768 36.1971 25.0733V25.071ZM40.1651 29.0818C40.123 28.9955 40.0654 28.9048 39.9922 28.8163C40.2583 28.8362 40.5287 28.8606 40.8014 28.8893L40.8945 28.8982L40.9876 28.8871C41.0585 28.8783 41.125 28.8672 41.1915 28.8539C40.624 29.0176 40.4134 29.0619 40.3358 29.0707C40.276 29.0707 40.2183 29.0751 40.1651 29.0818ZM27.392 31.1524C27.4053 31.1458 27.4186 31.1391 27.4319 31.1325C27.4363 31.148 27.4408 31.1635 27.443 31.179C27.4252 31.1701 27.4075 31.1613 27.3898 31.1524H27.392ZM44.1465 34.1942C44.284 33.0173 44.3859 32.305 44.4591 31.8758C44.4724 32.2851 44.4258 32.9111 44.2352 33.8668C44.2041 33.9752 44.1753 34.0836 44.1465 34.1942ZM39.5467 32.9443C39.5334 32.5218 39.54 32.17 39.56 31.878C39.8792 32.3138 40.3004 32.3758 40.5176 32.3758C40.6285 32.3758 40.7393 32.3603 40.8457 32.3293C40.8368 32.4333 40.8258 32.5373 40.8169 32.6434C40.6706 32.5837 40.5287 32.5638 40.4046 32.5638C40.1895 32.5638 39.8703 32.628 39.5577 32.9288C39.5533 32.9332 39.5489 32.9377 39.5444 32.9421L39.5467 32.9443ZM26.9841 34.1677C27.0705 34.1433 27.1614 34.119 27.2568 34.0947L27.29 34.0858L27.3233 34.0747C27.4297 34.0394 27.525 33.9907 27.6092 33.9265V34.3557C27.372 34.1942 27.1304 34.1654 26.9841 34.1654V34.1677ZM39.0922 39.8752C39.2563 39.738 39.3959 39.5411 39.4802 39.269C39.5577 39.0213 39.5932 38.7071 39.5932 38.278V38.258C39.5843 37.8775 39.5777 37.5037 39.5733 37.1364C39.7595 37.2825 39.9568 37.4196 40.1607 37.5457C39.9102 38.4417 39.6132 39.1938 39.274 39.7867L39.2563 39.8176L39.2407 39.8508C39.2186 39.8995 39.1831 39.9637 39.1277 40.0455C39.1188 39.9858 39.1055 39.9305 39.09 39.8774L39.0922 39.8752ZM25.6851 37.8598C25.7693 37.8156 25.889 37.7625 26.0619 37.7028L26.1085 37.6873L26.1528 37.6674C26.5319 37.4926 26.9442 37.3532 27.4496 37.2271C27.5006 37.2139 27.5538 37.1984 27.6092 37.1741C27.607 38.4328 27.5649 39.05 27.5294 39.3464C27.3565 39.342 26.9841 39.2867 26.3257 38.9704C26.1062 38.862 25.9311 38.7845 25.7671 38.7447C25.725 38.4217 25.6984 38.1253 25.6851 37.8598ZM31.1539 41.0145C31.145 40.6517 31.1273 40.2689 31.1029 39.8641C31.1361 39.9128 31.1738 39.957 31.2137 39.9991C31.3401 40.1362 31.5463 40.2911 31.8477 40.3596C31.646 40.5698 31.4199 40.7822 31.1716 40.999C31.1672 41.0034 31.1605 41.0078 31.1561 41.0122L31.1539 41.0145Z" fill="#F7CE46"/>
<path d="M61.4973 43.7974C60.9764 43.7974 60.4953 43.3152 59.8901 42.1847C59.6818 41.8087 59.429 41.2512 59.6906 40.8087C59.7992 40.6251 60.0342 40.4039 60.533 40.4039C60.7813 40.4039 61.0828 40.457 61.4508 40.5654C63.0446 40.2358 64.6141 39.977 66.2235 39.7779C66.1238 39.5898 66.004 39.3797 65.8666 39.1452C65.3346 38.205 64.8757 36.9971 64.4988 35.5481C64.2993 35.2141 64.2328 34.9198 64.2927 34.6477C64.3304 34.4862 64.4323 34.2584 64.7139 34.0814L64.8114 34.0195L64.9267 34.0128C66.4164 33.9398 67.9061 33.6522 69.3558 33.1589C70.1007 32.9023 71.0672 32.659 72.3441 32.409C72.18 32.3227 72.0116 32.2342 71.8364 32.1457C71.0317 31.8006 70.2514 31.2852 69.5775 30.6547C68.4492 29.5287 68.1455 29.1305 68.3871 28.7367C68.3716 28.7367 68.3538 28.7367 68.3383 28.7367C68.2208 28.7367 68.11 28.7013 68.0191 28.6327C67.8905 28.5487 67.8041 28.4204 67.7797 28.2721C67.7553 28.1261 67.7952 27.9779 67.8861 27.8496C68.2186 27.009 68.4359 26.248 68.5135 25.6374C68.4913 25.4538 68.4935 25.2879 68.5245 25.1463C68.4802 25.1596 68.3694 25.1883 68.3694 25.1883C68.2208 25.2215 68.079 25.2547 67.9526 25.2834C67.8905 25.2989 67.8307 25.3122 67.773 25.3255C67.7642 25.3697 67.7597 25.4073 67.7597 25.4449V25.4936L67.7487 25.5401C67.4826 26.7391 67.3186 27.6107 67.2211 28.3628C67.1435 28.8296 67.2144 28.9933 67.2388 29.0331L67.2565 29.0641L67.2698 29.0973C67.4317 29.5021 67.2432 29.9003 67.0548 30.241L67.0371 30.2742L67.0127 30.303C66.0262 31.5241 64.94 32.4466 63.785 33.0461C63.5079 33.2098 63.3018 33.2828 63.1156 33.2828C62.9116 33.2828 62.7343 33.1899 62.6301 33.0262C62.4461 32.7364 62.5747 32.3736 62.7077 32.0882L62.7188 32.0639L62.7321 32.0417C63.8161 30.2897 64.5387 29.0707 64.7959 28.4248C65.0397 27.6616 65.2282 26.8386 65.3678 25.9228C65.0375 26.0356 64.7427 26.1528 64.5919 26.2612C64.3747 26.4072 64.1641 26.4758 63.9557 26.4758C63.4725 26.4758 63.0801 26.1285 62.7853 25.4427C62.384 24.6839 62.1956 24.1663 62.4151 23.7814C62.6079 23.4163 63.0247 23.3256 63.3661 23.2858C63.9801 23.1973 64.6651 23.058 65.39 22.912L65.6294 22.8633C65.6782 22.0094 65.7092 21.2086 65.7358 20.4829C65.1949 20.6754 64.5742 20.8745 63.805 21.0979L63.7739 21.1046C63.539 21.1555 63.3461 21.1798 63.1843 21.1798C62.7121 21.1798 62.5414 20.9409 62.4816 20.7971C62.322 20.4122 62.6146 20.0427 62.8939 19.7618C63.5944 18.9344 64.4634 18.0539 65.4764 17.1469C66.6735 15.9103 67.8285 14.3573 68.908 12.5323C69.0366 12.2425 69.2317 11.9283 69.5066 11.5744C69.6352 11.3576 69.8591 11.2359 70.1295 11.2359C70.5108 11.2359 71.0051 11.4748 71.7832 12.0323C72.5635 12.6075 72.8606 13.03 72.7808 13.4481C72.7431 13.6406 72.6123 13.8928 72.1956 14.0233C71.5882 14.3706 70.9076 14.9723 70.1783 15.8108L70.1628 15.8285C70.1628 15.8285 70.0297 15.9523 69.9743 16.0054C71.0982 15.7245 72.0138 15.5807 72.7076 15.5807C73.0956 15.5807 73.4148 15.6227 73.6875 15.709L73.7473 15.7289L73.8005 15.7643C74.9665 16.5496 75.4675 17.1558 75.4232 17.7287C75.4055 17.9544 75.2946 18.2663 74.8668 18.4875C74.6495 18.6822 74.5321 19.118 74.5321 19.7175V19.7662L74.521 19.8126C74.4855 19.9763 74.4478 20.2219 74.4412 20.5582C74.6451 20.5183 74.8224 20.4852 74.9821 20.4608L75.0508 20.452L75.1173 20.463C75.4055 20.5095 75.718 20.6975 75.7424 21.2816C76.0683 20.5714 76.3321 19.9299 76.4075 19.5538L76.4119 19.5295L76.4185 19.5051C76.7001 18.6291 76.689 17.4589 76.3875 16.116C76.1836 15.7886 76.2301 15.5298 76.3099 15.3661C76.5227 14.9259 77.139 14.8352 77.6644 14.8108C77.9104 14.7577 78.5267 14.5808 80.0053 13.999C80.7878 13.7224 81.495 13.5831 82.1179 13.5831C82.5325 13.5831 82.916 13.6428 83.2596 13.7645L83.295 13.7755L83.3283 13.7932C84.379 14.3684 84.8246 14.7953 84.8667 15.2666C84.88 15.4192 84.8579 15.7156 84.5431 15.9745L84.5209 15.9922L84.4965 16.0076C84.0731 16.2665 83.7074 16.7509 83.4103 17.4456C83.0468 18.2066 83.1864 18.5915 83.3726 18.8393C83.4835 18.8946 83.6475 18.9233 83.8492 18.9233C84.266 18.9233 84.8335 18.8039 85.5406 18.5694L85.5739 18.5605C85.6781 18.534 85.7756 18.5207 85.8687 18.5207C86.1769 18.5207 86.3675 18.6601 86.4717 18.7773C86.6823 19.0118 86.7532 19.3614 86.6956 19.8768C86.5981 20.7506 86.1281 21.3169 85.37 21.4784C84.3258 21.7992 83.4968 21.9563 82.8362 21.9563C82.763 21.9563 82.6921 21.9563 82.6233 21.9496C83.3505 22.2173 83.9601 22.4363 84.3059 22.5315L84.3303 22.5381L84.3547 22.5469C85.0064 22.808 85.197 23.2327 85.2414 23.5446L85.2458 23.5756V23.6066C85.2458 24.0645 84.8468 24.2879 84.6805 24.372C84.6185 24.434 84.297 24.8122 83.417 26.7745C84.7182 27.2766 85.9397 27.7965 87.0547 28.3208L87.0858 28.3341L87.1124 28.3518C87.2476 28.4425 87.4981 28.6084 87.6887 30.1946C87.784 31.3936 87.651 32.0196 87.2409 32.2873C87.0348 32.4554 86.822 32.5417 86.6069 32.5417C86.4384 32.5417 86.1902 32.4864 85.9663 32.2276C85.7934 32.0572 85.5783 31.8626 85.3035 31.6192L85.1106 31.4467C83.8293 30.6923 82.6699 29.9822 81.6457 29.3539L81.4396 29.2278C80.7213 29.8052 79.8723 30.2255 78.9124 30.4844C77.7154 30.7631 76.7976 30.8958 76.0882 30.8958C75.7225 30.8958 75.4188 30.8604 75.1594 30.7896C74.9222 30.7277 74.7027 30.6635 74.5254 30.5795C74.5875 31.1989 74.634 31.6723 74.6518 32.0285C75.0818 31.971 75.5363 31.9157 75.9153 31.8714C77.1035 31.7143 78.2607 31.6325 79.3447 31.6325C80.9319 31.6325 82.4438 31.805 83.8382 32.1479L83.8714 32.1568C85.5673 32.712 86.3719 33.2607 86.4761 33.9376C86.5205 34.2164 86.454 34.6345 85.9064 35.0437C85.2303 35.7959 84.6029 36.7139 84.0887 37.705L84.0776 37.7271L84.0643 37.747C83.9645 37.8953 83.8847 38.0501 83.8271 38.205H84.8047C87.2587 38.205 88.7107 38.1253 89.1208 37.9683C89.2183 37.9351 89.2981 37.9218 89.3779 37.9218C89.7858 37.9218 90.1117 38.2271 90.3444 38.8332C90.4686 39.1739 90.6504 39.4571 90.861 39.6407C91.2977 39.9792 91.4573 40.6207 91.3664 41.6627V41.6826L91.362 41.7003C91.2046 42.6028 90.8565 43.0608 90.3245 43.0608C90.1605 43.0608 89.992 43.0099 89.8257 42.9126C86.751 42.0476 83.1642 41.6096 79.1651 41.6096C78.1898 41.6096 77.1745 41.6361 76.1459 41.687C70.0386 42.0631 65.2215 42.7466 61.8276 43.72C61.7256 43.7665 61.617 43.7908 61.5062 43.7908L61.4973 43.7974ZM68.4447 36.4905C68.396 37.7293 68.5822 38.7271 68.9812 39.3996C69.6662 39.2978 70.3955 39.2115 71.1581 39.1429C71.1315 39.0345 71.1115 38.9173 71.0938 38.789C70.7923 38.1917 70.6261 37.455 70.5839 36.5392C70.564 36.1919 70.5418 35.8844 70.5219 35.6233C70.4842 35.6322 70.4465 35.6432 70.4088 35.6499C68.9014 36.0989 68.529 36.3932 68.4447 36.4883V36.4905ZM73.7207 34.9198C73.5079 36.5215 73.4569 37.8753 73.5722 38.8332V38.8598C73.5722 38.8598 73.5744 38.8952 73.5766 38.8996C74.0045 38.8509 74.4833 38.8001 75.0463 38.7448C75.1638 38.2979 75.2858 37.694 75.4121 36.944C75.5983 35.9264 75.7203 35.1256 75.7845 34.515C75.0419 34.6256 74.3569 34.7384 73.7362 34.8513C73.7318 34.8756 73.7296 34.8977 73.7229 34.922L73.7207 34.9198ZM79.123 34.5969C79.0078 34.9442 78.9014 35.2716 78.7994 35.5857C78.7041 35.8777 78.6132 36.1587 78.5245 36.4286L78.5178 36.4463L78.509 36.464C78.141 37.3112 77.9348 37.9727 77.8949 38.435C78.5555 38.3819 79.2405 38.3333 79.9233 38.3001C80.6837 36.7184 80.994 35.3756 80.8477 34.3026C80.4487 34.1987 79.9588 34.1456 79.3868 34.1456C79.3403 34.1456 79.2937 34.1456 79.2472 34.1456C79.2427 34.2938 79.2006 34.4442 79.1208 34.5946L79.123 34.5969ZM74.4545 24.0778C74.3835 26.0356 74.3835 27.8297 74.4545 29.553C74.4966 29.5331 74.5431 29.5154 74.5941 29.4999C74.9377 29.3738 75.4165 29.292 76.055 29.2499C76.7511 29.1084 77.4981 28.8274 78.3361 28.3916C78.5156 28.2721 78.7462 28.1106 78.9967 27.9027C77.8129 27.2346 76.7599 26.644 75.8599 26.144L75.8444 26.1351L75.8289 26.1263C75.4365 25.8653 75.3944 25.5843 75.4299 25.3963C75.5119 24.9538 76.0306 24.8322 76.2035 24.7923C75.9685 24.3676 75.9087 24.0158 76.0195 23.7128C76.0594 23.6066 76.1304 23.4783 76.2656 23.3632C76.1636 23.4009 76.0616 23.4362 75.9574 23.465C75.8111 23.5269 75.6848 23.5557 75.5673 23.5557C75.3567 23.5557 75.1794 23.4584 75.0818 23.2902C74.9643 23.0889 75.0042 22.8743 75.0619 22.7173C74.9133 22.8367 74.7471 22.9385 74.5631 23.0204C74.5254 23.0425 74.4899 23.0624 74.4545 23.0801V24.0778ZM68.9745 28.4071C69.1275 28.4137 69.2916 28.469 69.4866 28.5796L69.5088 28.5929L69.531 28.6084C70.2093 29.1084 70.8056 29.3738 71.2512 29.3738C71.2978 29.3738 71.3443 29.3716 71.3886 29.365C71.3975 29.365 71.5748 29.2278 71.6147 28.3982C71.546 27.5554 71.5349 26.4183 71.5771 24.7149C71.5771 24.549 71.5771 24.3831 71.5726 24.2238C71.0229 24.4074 70.4687 24.5822 69.9167 24.7503C70.1539 24.8875 70.4177 25.0866 70.7125 25.3542L70.728 25.3675L70.7413 25.383C71.2002 25.8852 71.3377 26.1617 71.2645 26.4382C71.2246 26.5864 71.1204 26.7081 70.9807 26.77C70.9009 26.8121 70.8655 26.8475 70.8433 26.8696L70.8211 26.8895C70.1783 27.4492 69.5731 27.9469 68.9745 28.4049V28.4071ZM78.1698 25.1883C78.9634 25.383 79.7593 25.5998 80.5484 25.8343C80.9142 25.06 81.0605 24.4738 80.9829 24.0822C80.9253 24.0667 80.861 24.0645 80.81 24.0645C80.4886 24.0645 79.7326 24.2194 78.1676 25.1883H78.1698ZM80.4864 16.7443C80.094 16.7443 79.5819 16.9523 79.0033 17.3438L78.9789 17.3593L78.9523 17.3726C78.8171 17.4389 78.7506 17.7243 78.775 18.1336V18.1601C78.775 18.7818 78.8481 19.3879 78.9922 19.9609C79.0986 20.3303 79.01 20.8104 78.7284 21.3723L78.7107 21.4099L78.6863 21.443C78.2186 22.058 77.7109 22.5447 77.1656 22.9009C78.8725 22.131 80.3556 21.755 81.6812 21.755C81.6989 21.755 81.7167 21.755 81.7366 21.755C81.4773 21.6289 81.2733 21.4497 81.1292 21.2152C80.5329 20.2374 80.4287 19.1446 80.8233 18.0473C81.076 17.2575 81.0117 16.8925 80.9031 16.8439L80.8787 16.8306C80.7657 16.7709 80.6371 16.7399 80.4864 16.7399V16.7443ZM68.2474 22.2284C68.2696 22.2217 68.2896 22.2173 68.3117 22.2107C68.2896 22.1753 68.2718 22.1377 68.2585 22.1001C68.2541 22.1421 68.2497 22.1863 68.2474 22.2284ZM71.3798 20.3834C70.9342 20.828 70.4132 21.3059 69.8214 21.8081C69.9921 21.7616 70.1628 21.7151 70.3357 21.6665C70.6881 21.5846 71.0805 21.4807 71.515 21.3523C71.495 21.0404 71.4817 20.702 71.4795 20.3369C71.4795 20.3369 71.4197 20.3524 71.4086 20.3546L71.3798 20.3812V20.3834ZM68.509 19.0937C68.4603 19.368 68.3849 20.0405 68.2984 21.6753C68.3139 21.6444 68.3339 21.6134 68.3561 21.5846C68.8238 20.609 69.0876 19.8281 69.163 19.1999C69.1408 19.0295 69.1275 18.8238 69.1785 18.6313C68.7307 18.8039 68.5644 18.9742 68.5068 19.0937H68.509ZM70.462 18.3128C70.748 18.4676 71.0317 18.6866 71.3022 18.9565L71.3288 18.9831L71.3509 19.014C71.3975 19.0826 71.4463 19.1512 71.4928 19.2176C71.495 19.1401 71.4973 19.0605 71.5017 18.9831C71.5172 18.7928 71.5106 18.5605 71.3975 18.4411C71.2778 18.3128 71.0229 18.2862 70.83 18.2862C70.7192 18.2862 70.595 18.2951 70.4598 18.3128H70.462Z" fill="black"/>
<path d="M70.1318 11.6849C70.4022 11.6849 70.8633 11.9238 71.5261 12.3994C72.4062 13.0476 72.5968 13.4679 72.0227 13.6206C71.3333 14.0033 70.6084 14.6514 69.8436 15.5297C69.2694 16.0651 68.8482 16.523 68.5822 16.8659C70.4044 16.3062 71.7766 16.0341 72.7099 16.0341C73.0491 16.0341 73.3306 16.0695 73.5545 16.1403C74.9688 17.0937 75.3523 17.7817 74.6252 18.1246C74.2816 18.3923 74.0887 18.9254 74.0887 19.7285C74.0134 20.0714 73.9735 20.5293 74.0134 21.1023C74.4346 21.027 74.7782 20.9496 75.0464 20.912C75.2769 20.9496 75.3523 21.1797 75.2769 21.6752C75.124 22.0955 74.8181 22.4384 74.3592 22.6287C74.2439 22.7039 74.1286 22.7437 74.0156 22.7813V24.0799C73.9402 26.1793 73.9402 28.2411 74.0533 30.3405C74.1685 31.4864 74.2439 32.2098 74.2062 32.5549C74.7028 32.4797 75.3146 32.4022 75.9664 32.3248C77.1413 32.1677 78.2652 32.0881 79.3425 32.0881C80.8965 32.0881 82.353 32.254 83.7296 32.5903C85.9486 33.3159 86.5604 34.0415 85.6028 34.7273C84.8757 35.5281 84.2261 36.4838 83.6897 37.5124C83.4591 37.8553 83.3062 38.238 83.2685 38.6584H84.7981C87.2831 38.6584 88.775 38.5832 89.2738 38.3907C89.307 38.3796 89.3381 38.3752 89.3713 38.3752C89.5686 38.3752 89.7593 38.5765 89.9233 39.0013C90.0763 39.4216 90.3068 39.7645 90.5728 39.9945C90.8787 40.2246 90.994 40.7578 90.9164 41.636C90.8012 42.293 90.6016 42.6293 90.3157 42.6293C90.2204 42.6293 90.1139 42.5917 89.9987 42.5142C86.8575 41.6227 83.2419 41.1759 79.1563 41.1759C78.1699 41.1759 77.1568 41.2024 76.1149 41.2533C69.919 41.6338 65.0996 42.3218 61.657 43.3151C61.606 43.3438 61.5528 43.3571 61.4974 43.3571C61.1759 43.3571 60.7702 42.8903 60.2803 41.9789C59.8658 41.2356 59.95 40.8507 60.5308 40.8507C60.7547 40.8507 61.054 40.9082 61.4286 41.0254C63.0735 40.6825 64.8713 40.3773 66.8975 40.1472C66.7445 39.8043 66.514 39.384 66.2479 38.926C65.7514 38.0478 65.2925 36.8643 64.909 35.3754C64.6408 34.9551 64.6408 34.6498 64.9467 34.4596C66.514 34.3844 68.0435 34.0769 69.4978 33.5813C70.4931 33.2384 71.8697 32.9332 73.6277 32.6279C73.1688 32.3602 72.6323 32.0549 72.0205 31.7496C71.218 31.4067 70.4909 30.9112 69.8791 30.3382C69.0766 29.5374 68.6931 29.0795 68.7707 28.9645C68.8083 28.8892 68.866 28.8494 68.948 28.8494C69.03 28.8494 69.1342 28.887 69.2694 28.9645C70.052 29.5418 70.7126 29.8162 71.2535 29.8162C71.32 29.8162 71.3865 29.8117 71.4485 29.8029C71.832 29.7653 72.0227 29.2675 72.0604 28.3915C71.9828 27.4756 71.9828 26.2545 72.0227 24.7281C72.0227 24.3454 72.0227 23.9649 71.985 23.622C70.6461 24.0799 69.3847 24.4626 68.2741 24.7679C67.9305 24.8453 67.6246 24.9205 67.4317 24.9581C67.3563 25.1484 67.3164 25.301 67.3164 25.4537C67.0859 26.4846 66.8952 27.438 66.78 28.3163C66.7046 28.7742 66.7423 29.0795 66.8553 29.2697C66.9329 29.46 66.8553 29.6901 66.6647 30.033C65.7093 31.2165 64.6762 32.0947 63.5656 32.6655C63.3617 32.7872 63.2109 32.8469 63.1134 32.8469C62.9361 32.8469 62.9338 32.6522 63.1067 32.2828C64.2151 30.4887 64.9423 29.2675 65.2105 28.5795C65.5164 27.6261 65.7469 26.5576 65.8999 25.2966C65.1351 25.5267 64.5987 25.7169 64.3326 25.9072C64.1996 25.9957 64.0733 26.0399 63.9536 26.0399C63.6587 26.0399 63.4016 25.7744 63.1843 25.259C62.8407 24.6108 62.6878 24.1905 62.8008 24.0003C62.8762 23.8476 63.0691 23.7702 63.4127 23.7326C64.2151 23.6175 65.0952 23.4273 66.0507 23.237C66.126 21.9783 66.1659 20.8324 66.2036 19.8391C65.4388 20.1444 64.5964 20.412 63.6787 20.6797C63.4747 20.724 63.3085 20.7461 63.1843 20.7461C62.7676 20.7461 62.7809 20.5094 63.2198 20.0692C63.8316 19.3435 64.674 18.4653 65.7824 17.4742C66.9684 16.2531 68.1544 14.6891 69.3005 12.7423C69.4157 12.4746 69.6064 12.1693 69.8746 11.8265C69.9212 11.7335 70.0054 11.6849 70.1251 11.6849M67.7753 22.8167C68.5778 22.5866 69.4955 22.3588 70.4532 22.0911C70.9498 21.9761 71.4862 21.8234 71.9828 21.6708C71.9074 20.87 71.9074 19.9541 71.9451 18.9984C72.0072 18.2131 71.6303 17.8415 70.8323 17.8415C70.6616 17.8415 70.4709 17.8592 70.2626 17.8923C69.0012 18.1224 68.2741 18.4653 68.0834 18.9608C68.0059 19.3435 67.9305 20.2594 67.8529 21.7084C67.8152 22.0513 67.7753 22.434 67.7753 22.8145M77.3762 38.9238C78.294 38.8464 79.2494 38.7712 80.2071 38.7336C81.1625 36.8244 81.5084 35.2228 81.2401 33.9618C80.7524 33.7893 80.1362 33.7052 79.3891 33.7052C79.1408 33.7052 78.877 33.7141 78.5999 33.734C78.8305 33.9242 78.8681 34.1543 78.7152 34.422C78.4846 35.11 78.294 35.7205 78.1034 36.2913C77.7199 37.1695 77.4915 37.8952 77.4538 38.4283C77.4161 38.5809 77.3785 38.7336 77.3785 38.9238M76.2679 34.0017C76.1149 34.0017 75.9996 34.0017 75.9619 34.0393C74.9289 34.1919 74.0112 34.3446 73.2087 34.4972C73.284 34.5724 73.3239 34.6874 73.284 34.8401C73.0535 36.5568 73.0158 37.9305 73.1311 38.8862C73.1311 39.0389 73.1688 39.1915 73.2464 39.3818C73.8959 39.3043 74.623 39.2291 75.3878 39.1517C75.5407 38.6562 75.6937 37.9305 75.8467 37.0147C76.0772 35.7559 76.2302 34.7251 76.2679 33.9994M68.7707 39.8795C69.7261 39.7269 70.7591 39.6118 71.7921 39.5366C71.6392 39.3065 71.5616 39.0013 71.5239 38.6584C71.218 38.0854 71.065 37.3598 71.0273 36.5214C70.9897 35.8732 70.952 35.3754 70.9121 35.0326C70.6815 35.1078 70.4909 35.1852 70.3002 35.2228C68.8859 35.6431 68.1211 36.0236 68.0059 36.3687C67.9305 37.9328 68.1965 39.1163 68.7707 39.8795ZM82.118 14.0365C82.4837 14.0365 82.814 14.0873 83.1133 14.1913C84.2993 14.8395 84.6806 15.2974 84.2616 15.6425C83.765 15.9478 83.3439 16.4832 83.0003 17.284C82.6167 18.0848 82.6567 18.6954 83.0756 19.1931C83.2641 19.317 83.5212 19.3789 83.8449 19.3789C84.3148 19.3789 84.9289 19.2506 85.6759 19.0029C85.7446 18.9852 85.8067 18.9763 85.8621 18.9763C86.1858 18.9763 86.3144 19.2573 86.2479 19.8413C86.1703 20.5293 85.8267 20.9474 85.2525 21.0624C84.2461 21.3721 83.4414 21.527 82.8273 21.527C82.1601 21.527 81.7234 21.3456 81.5039 20.9872C80.9675 20.109 80.8921 19.1555 81.2357 18.202C81.5416 17.2486 81.5039 16.638 81.0827 16.4456C80.9032 16.3504 80.7037 16.304 80.482 16.304C79.9943 16.304 79.4068 16.534 78.7484 16.9809C78.4425 17.1335 78.2896 17.5163 78.3272 18.1644C78.3272 18.8126 78.4026 19.463 78.5578 20.0736C78.6332 20.3413 78.5578 20.7218 78.3272 21.1797C77.6001 22.1331 76.76 22.7835 75.8023 23.049C75.7026 23.0932 75.6205 23.1154 75.5607 23.1154C75.4166 23.1154 75.3989 22.9871 75.5341 22.7437C76.2612 21.2549 76.7201 20.224 76.8354 19.651C77.1413 18.6976 77.1413 17.4366 76.7977 15.9478C76.4917 15.5275 76.7977 15.2996 77.7154 15.2598C78.0989 15.1846 78.9014 14.9169 80.1628 14.4192C80.8876 14.1625 81.5416 14.0342 82.1135 14.0342M69.8392 18.5516C69.8835 18.5516 69.9367 18.5604 69.9943 18.5803C70.3002 18.6954 70.6438 18.9232 70.9897 19.2683C71.2579 19.6488 71.3732 19.8789 71.3333 19.9165C71.1803 19.9541 71.1027 19.9917 71.065 20.0692C70.4909 20.6421 69.7638 21.2903 68.9236 21.9783C68.8704 22.0048 68.815 22.0314 68.7751 22.0314C68.7574 22.0314 68.744 22.027 68.733 22.0159C68.6576 21.9783 68.6576 21.9009 68.733 21.8256C69.2295 20.7948 69.5354 19.9165 69.613 19.1909C69.5487 18.7794 69.6175 18.5516 69.8392 18.5516ZM81.6813 22.1995C81.7899 22.1995 81.8985 22.2017 82.0049 22.2084C83.0379 22.5911 83.765 22.8565 84.184 22.9716C84.5675 23.1242 84.7582 23.3543 84.7959 23.6198C84.7959 23.7724 84.6806 23.8874 84.4523 24.0025C84.2239 24.1175 83.7251 24.9957 82.9604 26.7124C82.885 26.7876 82.8074 26.9027 82.7697 27.0177C84.184 27.5531 85.5606 28.1238 86.8619 28.7344C86.9772 28.8118 87.1301 29.3073 87.2454 30.2608C87.3208 31.2143 87.2454 31.7872 86.9772 31.9399C86.8442 32.0549 86.72 32.1124 86.6048 32.1124C86.4895 32.1124 86.3853 32.0549 86.29 31.9399C86.0594 31.7098 85.7535 31.4443 85.3722 31.0992C83.8803 30.221 82.5813 29.4202 81.3953 28.6946C80.6682 29.3427 79.7881 29.8007 78.795 30.0683C77.6755 30.3294 76.7666 30.4643 76.0861 30.4643C75.7669 30.4643 75.4964 30.4356 75.2769 30.3736C74.5498 30.1834 74.3592 30.0307 74.7405 29.9157C75.0464 29.8007 75.5053 29.7255 76.1171 29.6856C76.8819 29.533 77.6844 29.2277 78.5644 28.7698C78.9081 28.5397 79.3292 28.2344 79.7504 27.8163C78.3361 27.0155 77.1124 26.3275 76.0794 25.7545C75.7358 25.5245 75.8112 25.3342 76.31 25.2192C77.8019 25.5245 79.2938 25.9072 80.7857 26.3651C81.3975 25.1816 81.5882 24.3431 81.3598 23.7702C81.2224 23.6706 81.0406 23.6198 80.8189 23.6198C80.1073 23.6198 78.9635 24.1286 77.4206 25.144C77.3275 25.1948 77.241 25.2214 77.159 25.2214C76.9373 25.2214 76.7578 25.0267 76.6181 24.6086C76.3122 24.0733 76.3499 23.7304 76.7711 23.5777C78.6531 22.6552 80.2714 22.1951 81.6879 22.1951M69.2628 24.978C69.3005 24.978 69.3404 24.9825 69.3847 24.9913C69.6529 25.0687 69.9965 25.2966 70.4177 25.6793C70.799 26.0996 70.9143 26.3275 70.799 26.3673C70.6461 26.4425 70.5685 26.52 70.5308 26.5576C69.919 27.0929 69.2295 27.6637 68.4647 28.2366C68.4204 28.2809 68.3761 28.3008 68.3384 28.3008C68.3118 28.3008 68.2896 28.2919 68.2741 28.2765C68.1987 28.2388 68.1987 28.1614 68.2741 28.0862C68.6576 27.1327 68.8859 26.2921 68.9635 25.6439C68.897 25.2103 69.0056 24.9803 69.2628 24.9803M70.1318 10.8C69.715 10.8 69.3537 10.9969 69.1431 11.3309C68.8615 11.6981 68.6554 12.0278 68.5157 12.3375C67.4627 14.1183 66.3366 15.6315 65.1728 16.8371C64.1553 17.7485 63.2797 18.6356 62.5725 19.4719C62.3486 19.6975 61.7944 20.2904 62.0782 20.9762C62.1602 21.173 62.4328 21.6332 63.191 21.6332C63.3838 21.6332 63.6077 21.6044 63.8738 21.5469L63.9048 21.5403L63.9336 21.5314C64.4368 21.3854 64.8757 21.2505 65.2726 21.12C65.2548 21.5624 65.2349 22.0247 65.2083 22.507C64.5299 22.6442 63.8871 22.7725 63.304 22.8565C63.0292 22.8875 62.3486 22.9716 62.025 23.5777C61.6813 24.1905 61.9939 24.9028 62.3841 25.6439C62.8452 26.7036 63.4902 26.9292 63.9536 26.9292C64.2373 26.9292 64.5188 26.8429 64.7871 26.6726C64.674 27.2456 64.5366 27.7809 64.3747 28.2875C64.1265 28.9069 63.4171 30.1015 62.353 31.8226L62.3264 31.8669L62.3043 31.9133C62.1979 32.1412 61.9163 32.7429 62.2555 33.2761C62.4395 33.5636 62.7609 33.7362 63.1156 33.7362C63.3816 33.7362 63.6565 33.6455 64.0001 33.442C65.2061 32.8159 66.3344 31.8558 67.3563 30.5904L67.4051 30.5307L67.4428 30.4643C67.6024 30.1767 67.9349 29.5772 67.6822 28.9445C67.7088 28.9667 67.7376 28.9888 67.7687 29.0087C67.8019 29.0308 67.8352 29.0529 67.8684 29.0706C67.9194 29.6348 68.5091 30.2254 69.2517 30.9665L69.2628 30.9776L69.2739 30.9864C69.8015 31.4797 70.3933 31.9089 71.014 32.2452C70.3002 32.4089 69.7084 32.5748 69.2074 32.7473C67.7997 33.2274 66.3521 33.5061 64.9023 33.5769L64.6718 33.588L64.4767 33.7096C64.0644 33.9663 63.9137 34.3092 63.8582 34.5525C63.7762 34.9175 63.8516 35.3091 64.0821 35.7206C64.4656 37.1806 64.9334 38.4062 65.4743 39.3618V39.3663L65.4809 39.3707C65.492 39.3884 65.5031 39.4083 65.512 39.426C64.1531 39.6096 62.8186 39.8353 61.4641 40.114C61.1028 40.0145 60.7946 39.9658 60.5286 39.9658C59.7838 39.9658 59.4424 40.3551 59.3049 40.5874C58.8882 41.2953 59.3448 42.1227 59.5 42.4036C59.9899 43.3151 60.6084 44.242 61.4951 44.242C61.657 44.242 61.8166 44.2088 61.9673 44.1469C65.328 43.1868 70.1052 42.512 76.1681 42.1382C77.179 42.0873 78.1876 42.063 79.1541 42.063C83.0911 42.063 86.6181 42.4921 89.6418 43.335C89.8612 43.4544 90.0873 43.5142 90.3135 43.5142C90.8477 43.5142 91.5393 43.2155 91.7876 41.7886L91.7943 41.751V41.7134C91.863 40.9569 91.8652 39.8884 91.1337 39.311C90.9829 39.176 90.8477 38.9592 90.7524 38.7004V38.6938L90.7457 38.6871C90.3644 37.7005 89.7859 37.4925 89.3647 37.4925C89.2361 37.4925 89.1097 37.5124 88.9878 37.5545L88.9679 37.5611L88.9479 37.5677C88.7462 37.6452 87.9371 37.7757 84.7914 37.7757H84.5476C85.022 36.8886 85.5895 36.0657 86.1969 35.3843C86.9218 34.8202 86.9528 34.2074 86.9018 33.8844C86.8508 33.5548 86.6957 33.2606 86.423 32.9863C86.4806 32.9951 86.5405 32.9995 86.6003 32.9995C86.9107 32.9995 87.2122 32.8845 87.4959 32.6611C88.1831 32.1987 88.2075 31.2032 88.1255 30.1944V30.1767L88.121 30.1591C87.9415 28.6702 87.6932 28.23 87.3496 28.0021L87.2942 27.9645L87.2343 27.9358C86.2346 27.4668 85.1505 27.0022 84.0045 26.5487C84.5941 25.2679 84.8668 24.8542 84.9555 24.7369C85.5496 24.3984 85.6781 23.9494 85.6781 23.6242V23.5622L85.6693 23.5003C85.6205 23.1574 85.4099 22.538 84.5609 22.1774C84.8468 22.1088 85.1505 22.0247 85.472 21.9252C86.4052 21.7195 87.0082 21.0005 87.1257 19.9453C87.1523 19.7086 87.2321 18.9918 86.791 18.5007C86.556 18.2397 86.2257 18.0959 85.8577 18.0959C85.7291 18.0959 85.5939 18.1136 85.4565 18.149L85.4232 18.1578L85.39 18.1689C84.5675 18.4432 84.0931 18.5007 83.8404 18.5007C83.7584 18.5007 83.6985 18.4941 83.6542 18.4874C83.5944 18.3503 83.5811 18.1158 83.7939 17.6711L83.8005 17.6556L83.8072 17.6401C84.0687 17.0296 84.3747 16.6137 84.7183 16.4035L84.7693 16.3725L84.8158 16.3349C85.2902 15.9478 85.3235 15.4855 85.3013 15.2443C85.2281 14.4546 84.4079 13.9037 83.5345 13.4237L83.4702 13.3883L83.4015 13.3639C83.0113 13.2268 82.5791 13.1582 82.1135 13.1582C81.4396 13.1582 80.6837 13.3042 79.8657 13.594L79.8524 13.5984L79.8391 13.6051C78.4159 14.1648 77.824 14.3351 77.6001 14.3882C76.9595 14.4214 76.2146 14.5541 75.9065 15.1912C75.8245 15.3616 75.6826 15.7841 75.9642 16.2973C76.2346 17.534 76.2435 18.6025 75.9908 19.39L75.9752 19.4365L75.9664 19.4851C75.9287 19.671 75.8334 19.9453 75.7026 20.266C75.5053 20.1178 75.2947 20.0647 75.1838 20.047L75.0486 20.0249L74.9245 20.0426C74.9311 20.0006 74.94 19.963 74.9466 19.9298L74.9688 19.8347V19.7373C74.9688 19.2042 75.073 18.9498 75.1351 18.8613C75.7159 18.5295 75.84 18.0494 75.86 17.7795C75.9176 17.0296 75.3567 16.2995 74.0422 15.4147L73.9358 15.3439L73.8139 15.3063C73.4991 15.2067 73.1333 15.158 72.701 15.158C72.2931 15.158 71.8254 15.2023 71.2934 15.2886C71.6769 14.9235 72.036 14.6426 72.3707 14.4457C73.0114 14.2245 73.171 13.7511 73.2087 13.5476C73.355 12.7799 72.7032 12.1804 72.0449 11.6959C71.1648 11.0632 70.6128 10.8088 70.1251 10.8088L70.1318 10.8ZM79.2361 17.7198L79.2517 17.7109C79.9233 17.2552 80.3135 17.1889 80.4864 17.1889C80.5108 17.1889 80.533 17.1889 80.5529 17.1933C80.5485 17.3172 80.5197 17.5428 80.4 17.9189C79.9743 19.1135 80.0807 20.3059 80.7081 21.3766C80.1716 21.4429 79.6108 21.5602 79.0255 21.7327C79.03 21.7261 79.0344 21.7195 79.0411 21.7128L79.092 21.6465L79.1297 21.5735C79.4578 20.9164 79.5576 20.3346 79.4246 19.8457C79.2916 19.3104 79.2251 18.7462 79.2251 18.1622V18.1091C79.2118 17.8945 79.2295 17.7751 79.2428 17.7198H79.2361ZM74.8757 28.9578C74.8269 27.4248 74.8336 25.8253 74.8957 24.1109V24.0954V24.0799V23.7569C75.0641 23.9051 75.2836 23.9914 75.5208 24.0003C75.5164 24.1949 75.554 24.3808 75.605 24.54C75.1883 24.7568 75.0375 25.0665 74.9932 25.3187C74.9555 25.5289 74.9356 26.0665 75.5829 26.4956L75.6117 26.5155L75.6427 26.5332C76.3898 26.9469 77.2432 27.4248 78.1876 27.9579C78.1588 27.9778 78.1322 27.9955 78.1078 28.0132C77.3275 28.4158 76.6358 28.6791 75.993 28.8118C75.554 28.8406 75.1838 28.8915 74.8735 28.96L74.8757 28.9578ZM79.3337 25.0311C79.9123 24.7303 80.2958 24.5976 80.5374 24.5445C80.5064 24.7259 80.4376 24.9736 80.3024 25.3032C79.981 25.2103 79.6573 25.1196 79.3337 25.0334V25.0311ZM70.8855 24.9139C70.9675 24.8873 71.0495 24.8608 71.1315 24.8343C71.1293 24.9404 71.1271 25.0422 71.1249 25.144C71.1072 25.1241 71.0894 25.1041 71.0717 25.0842L71.0429 25.0533L71.0118 25.0245C70.9697 24.9847 70.9276 24.9493 70.8855 24.9117V24.9139ZM69.8458 28.2875C70.2581 27.9579 70.6793 27.6039 71.1138 27.2234H71.116C71.1249 27.6725 71.1426 28.0619 71.1714 28.4048C71.1581 28.6481 71.1338 28.8118 71.1094 28.918C70.8722 28.8804 70.4643 28.7388 69.8436 28.2875H69.8458ZM76.0816 31.3514C76.8243 31.3514 77.7775 31.2143 78.9923 30.9333L79.0078 30.9289L79.0233 30.9245C79.9344 30.6789 80.7524 30.294 81.464 29.7763C82.466 30.3913 83.5988 31.0815 84.8446 31.8182L85.0065 31.962C85.135 32.077 85.2503 32.1788 85.3523 32.2739C84.9776 32.0947 84.5298 31.92 84.0022 31.7474L83.9712 31.7364L83.938 31.7275C82.5081 31.3758 80.9608 31.1988 79.3403 31.1988C78.2386 31.1988 77.0659 31.2806 75.8533 31.4421C75.6095 31.4709 75.3368 31.5041 75.0575 31.5395C75.0486 31.4399 75.0398 31.3359 75.0287 31.2253C75.0331 31.2253 75.0375 31.2275 75.042 31.2298C75.339 31.3116 75.6782 31.3514 76.0816 31.3514ZM79.5332 34.7693C79.562 34.7118 79.5864 34.6521 79.6086 34.5945C79.9167 34.6034 80.1938 34.6277 80.4376 34.6698C80.4798 35.5502 80.2093 36.6231 79.6352 37.8752C79.2339 37.8974 78.8327 37.9239 78.4381 37.9527C78.5223 37.6407 78.6664 37.216 78.9169 36.6453L78.9324 36.6099L78.9457 36.5723C79.0366 36.3001 79.1275 36.0192 79.2228 35.725C79.3204 35.4219 79.4223 35.1056 79.5354 34.7715L79.5332 34.7693ZM74.1286 35.2294C74.49 35.1653 74.8713 35.1033 75.2703 35.0392C75.2016 35.5436 75.104 36.1453 74.9732 36.8576V36.8643L74.971 36.8709C74.8735 37.4527 74.7782 37.9416 74.6873 38.3354C74.4346 38.3619 74.1974 38.3863 73.9757 38.4106C73.9314 37.7536 73.938 36.736 74.1264 35.2294H74.1286ZM68.8815 36.7116C69.0367 36.6165 69.3847 36.4417 70.1207 36.205C70.1273 36.3201 70.1362 36.4395 70.1428 36.5656C70.1828 37.4284 70.3291 38.1473 70.5884 38.7513C70.1207 38.7977 69.6685 38.853 69.2295 38.915C68.9835 38.3664 68.866 37.6208 68.8815 36.7116Z" fill="#F7CE46"/>
</svg>
